<svg version="1.1" xmlns="http://www.w3.org/2000/svg" viewBox="0 0 639.9786252297931 551.7458959117348" width="639.9786252297931" height="551.7458959117348">
  <!-- svg-source:excalidraw -->
  
  <defs>
    <style class="style-fonts">
      @font-face {
        font-family: "Virgil";
        src: url("https://excalidraw.com/Virgil.woff2");
      }
      @font-face {
        font-family: "Cascadia";
        src: url("https://excalidraw.com/Cascadia.woff2");
      }
      @font-face {
        font-family: "Assistant";
        src: url("https://excalidraw.com/Assistant-Regular.woff2");
      }
    </style>
    
  </defs>
  <rect x="0" y="0" width="639.9786252297931" height="551.7458959117348" fill="#f8f9fa"></rect><g stroke-linecap="round" transform="translate(26.08519907497555 328.8681850877683) rotate(0 74.708403014586 16.383511452070252)"><path d="M0 0 C0 0, 0 0, 0 0 M0 0 C0 0, 0 0, 0 0 M-0.26 6.4 C1.46 3.92, 3.52 2.74, 4.99 0.36 M-0.26 6.4 C1.86 4.35, 3.94 2.03, 4.99 0.36 M0.13 12.04 C3.15 9.84, 4.25 8.54, 10.63 -0.03 M0.13 12.04 C3.56 8.77, 5.93 4.92, 10.63 -0.03 M-0.13 18.44 C7.77 10.48, 10.24 6.02, 15.62 0.33 M-0.13 18.44 C3.48 15.25, 6.86 11.23, 15.62 0.33 M0.27 24.08 C5.57 17.17, 12.6 12.54, 21.26 -0.07 M0.27 24.08 C6.06 18.54, 11.55 12.32, 21.26 -0.07 M0 30.48 C7.18 23.04, 14.43 13.85, 26.25 0.29 M0 30.48 C8.42 21.88, 17.24 12.65, 26.25 0.29 M1.71 34.61 C11.1 26.11, 16.52 14.68, 31.89 -0.1 M1.71 34.61 C10.71 25.19, 18.81 14.18, 31.89 -0.1 M7.35 34.22 C14.04 26.26, 23.83 16.54, 36.88 0.26 M7.35 34.22 C19.87 21.5, 31.21 6.61, 36.88 0.26 M12.34 34.58 C19.82 24.26, 28.9 15.58, 42.52 -0.14 M12.34 34.58 C23.17 21.11, 34.17 9.17, 42.52 -0.14 M17.98 34.18 C26.68 23.11, 37.58 9.3, 47.51 0.22 M17.98 34.18 C24.49 25.91, 33.18 17.42, 47.51 0.22 M22.97 34.54 C32.95 26.98, 40.83 18.08, 53.15 -0.17 M22.97 34.54 C31.68 24.74, 40.34 15.18, 53.15 -0.17 M28.61 34.15 C36.81 21.94, 47.36 14.61, 58.14 0.19 M28.61 34.15 C37.34 24.87, 44.94 15.35, 58.14 0.19 M33.6 34.51 C39.05 26.56, 49.66 18.86, 63.78 -0.21 M33.6 34.51 C43.99 23.77, 54.38 10.44, 63.78 -0.21 M39.24 34.12 C46.97 28.07, 50.87 19.91, 68.77 0.15 M39.24 34.12 C50.94 21.35, 61.15 9.07, 68.77 0.15 M44.23 34.48 C52.68 27.97, 58.01 16.47, 74.41 -0.24 M44.23 34.48 C49.75 27.48, 56.35 20.61, 74.41 -0.24 M49.87 34.08 C62.23 20.17, 72.51 8.93, 79.4 0.12 M49.87 34.08 C56.16 26.88, 63.21 20.21, 79.4 0.12 M54.86 34.44 C65.7 25.34, 75.1 12.79, 85.04 -0.28 M54.86 34.44 C62.66 23.94, 71.72 15.46, 85.04 -0.28 M60.51 34.05 C69.88 20.81, 83.46 7.34, 90.03 0.08 M60.51 34.05 C69.76 23.05, 80.14 10.92, 90.03 0.08 M65.49 34.41 C71.15 26.26, 80.57 19.27, 95.67 -0.31 M65.49 34.41 C73.55 24.77, 82.18 14.17, 95.67 -0.31 M70.48 34.77 C78.54 24.23, 90.54 12.33, 100.66 0.05 M70.48 34.77 C80.81 22.52, 90.21 11.73, 100.66 0.05 M76.12 34.37 C84.83 22.79, 98.16 8.13, 106.3 -0.34 M76.12 34.37 C85.33 23.66, 94.78 11.21, 106.3 -0.34 M81.11 34.73 C92.11 22.71, 101.47 13.57, 111.29 0.02 M81.11 34.73 C88.34 26.73, 94.93 18.85, 111.29 0.02 M86.75 34.34 C93.58 25.91, 99.68 16.69, 116.27 0.38 M86.75 34.34 C97.19 21.92, 107.84 9.98, 116.27 0.38 M91.74 34.7 C99.17 29.02, 105.63 20.97, 121.92 -0.02 M91.74 34.7 C100.48 25.57, 107.9 16.7, 121.92 -0.02 M97.38 34.3 C103.42 25.2, 112 17.67, 126.91 0.34 M97.38 34.3 C104.44 27.61, 109.77 19.68, 126.91 0.34 M102.37 34.66 C113.39 23.89, 123.61 12.49, 132.55 -0.05 M102.37 34.66 C112.7 21.48, 124 8.02, 132.55 -0.05 M108.01 34.27 C117.72 22.11, 131.98 8.41, 137.54 0.31 M108.01 34.27 C118.01 23.41, 128.85 10.71, 137.54 0.31 M113 34.63 C125.02 22.83, 136.74 7.37, 143.18 -0.09 M113 34.63 C121.39 26.23, 129.24 15.37, 143.18 -0.09 M118.64 34.23 C131.52 20.06, 141.83 7.85, 148.17 0.27 M118.64 34.23 C124.8 26.69, 131.25 20.91, 148.17 0.27 M123.63 34.59 C130.35 25.99, 140.17 16.86, 151.84 2.14 M123.63 34.59 C133.89 22.35, 144.15 11.69, 151.84 2.14 M129.27 34.2 C136.65 26.01, 145.34 16.62, 151.58 8.54 M129.27 34.2 C137.84 25.33, 145.26 15.98, 151.58 8.54 M134.26 34.56 C139.39 25.75, 146.82 18.83, 151.97 14.18 M134.26 34.56 C138.69 29.19, 144.03 22.65, 151.97 14.18 M139.9 34.16 C142.48 28.11, 148.15 23.08, 151.71 20.58 M139.9 34.16 C144.62 29.32, 147.74 23.87, 151.71 20.58 M144.89 34.52 C148.26 31.79, 150.64 28.08, 152.11 26.22 M144.89 34.52 C146.43 32.39, 148.12 30.74, 152.11 26.22" stroke="#ffc9c9" stroke-width="0.5" fill="none"></path><path d="M0 0 C47.87 -2.14, 95.25 -1.76, 149.42 0 M0 0 C46.88 -0.55, 94.83 -0.1, 149.42 0 M149.42 0 C148.21 11.7, 150.77 22.65, 149.42 32.77 M149.42 0 C150 13.59, 149.12 25.72, 149.42 32.77 M149.42 32.77 C113.67 34.1, 73.78 32.08, 0 32.77 M149.42 32.77 C111.78 33.04, 75.82 33.94, 0 32.77 M0 32.77 C-0.99 27.29, 1.16 20.04, 0 0 M0 32.77 C-0.87 24.86, -0.72 19, 0 0" stroke="#e03131" stroke-width="1" fill="none"></path></g><g transform="translate(37.072898964561546 336.5499702246243) rotate(0 63.720703125 8.701726315213818)"><text x="63.720703125" y="14.004340788547596" font-family="Cascadia, Segoe UI Emoji" font-size="14.502877192023401px" fill="#e03131" text-anchor="middle" style="white-space: pre;" direction="ltr" dominant-baseline="alphabetic">order-requested</text></g><g stroke-linecap="round" transform="translate(186.27678160877656 328.8681851815991) rotate(0 71.65378775917253 16.383511452070252)"><path d="M0 0 C0 0, 0 0, 0 0 M0 0 C0 0, 0 0, 0 0 M-0.26 6.4 C1.4 4.42, 2.14 4.04, 4.99 0.36 M-0.26 6.4 C1.23 4.12, 3.85 2.2, 4.99 0.36 M0.13 12.04 C3.16 7.73, 6.37 5.18, 10.63 -0.03 M0.13 12.04 C4.01 8.11, 7.23 5.4, 10.63 -0.03 M-0.13 18.44 C2.34 13.54, 7.32 9.52, 15.62 0.33 M-0.13 18.44 C5.28 11.05, 11.02 4.78, 15.62 0.33 M0.27 24.08 C4.94 19.54, 9.33 12.17, 21.26 -0.07 M0.27 24.08 C8 15.01, 16.41 5.61, 21.26 -0.07 M0 30.48 C10.89 18.19, 21.27 6.75, 26.25 0.29 M0 30.48 C9.38 18.2, 20.38 7.86, 26.25 0.29 M1.71 34.61 C12.57 22.72, 24.56 10.81, 31.89 -0.1 M1.71 34.61 C12.1 23.07, 22.6 9.67, 31.89 -0.1 M7.35 34.22 C20.42 20.85, 29.3 9.96, 36.88 0.26 M7.35 34.22 C17.65 22.09, 27.88 9.46, 36.88 0.26 M12.34 34.58 C22.03 25.86, 29.7 15.49, 42.52 -0.14 M12.34 34.58 C19.3 26.87, 26.49 18.73, 42.52 -0.14 M17.98 34.18 C26.89 23.14, 38.95 10.14, 47.51 0.22 M17.98 34.18 C26.96 22.23, 37.46 12.95, 47.51 0.22 M22.97 34.54 C33.56 20.16, 45.42 8.42, 53.15 -0.17 M22.97 34.54 C31.4 25.48, 40.41 14.67, 53.15 -0.17 M28.61 34.15 C34.66 25.02, 40.26 19.08, 58.14 0.19 M28.61 34.15 C38.21 23.03, 49.17 10.46, 58.14 0.19 M33.6 34.51 C44.75 22.61, 52.53 10.34, 63.78 -0.21 M33.6 34.51 C44.59 22, 56.81 8.27, 63.78 -0.21 M39.24 34.12 C52.52 21.13, 60.49 8.86, 68.77 0.15 M39.24 34.12 C46.68 25.42, 54.48 16.42, 68.77 0.15 M44.23 34.48 C53.87 23.25, 65.84 7.38, 74.41 -0.24 M44.23 34.48 C54.99 22.3, 63.26 12.12, 74.41 -0.24 M49.87 34.08 C54.3 26.43, 60.69 19.51, 79.4 0.12 M49.87 34.08 C57.85 24.15, 65.19 15.94, 79.4 0.12 M54.86 34.44 C65.06 22.59, 75.3 8.2, 85.04 -0.28 M54.86 34.44 C62.68 25.48, 68.62 17.25, 85.04 -0.28 M60.51 34.05 C69.25 26.68, 75.05 14.8, 90.03 0.08 M60.51 34.05 C69.55 22.54, 79.72 11.1, 90.03 0.08 M65.49 34.41 C74.55 25.29, 84.22 11.84, 95.67 -0.31 M65.49 34.41 C77.12 21.86, 88.32 8.02, 95.67 -0.31 M70.48 34.77 C81.85 23.42, 91.86 10.86, 100.66 0.05 M70.48 34.77 C78.15 27.31, 85.47 17.62, 100.66 0.05 M76.12 34.37 C86.43 22.99, 97.1 10.5, 106.3 -0.34 M76.12 34.37 C86.86 22.55, 98.03 11.43, 106.3 -0.34 M81.11 34.73 C87.08 25.55, 95.43 17.74, 111.29 0.02 M81.11 34.73 C88.22 26.24, 95.64 16.82, 111.29 0.02 M86.75 34.34 C96.6 25.37, 103.28 14.71, 116.27 0.38 M86.75 34.34 C95.69 22.19, 105.7 12.53, 116.27 0.38 M91.74 34.7 C102.6 21.68, 113.73 9.36, 121.92 -0.02 M91.74 34.7 C100.01 23.85, 109.9 13.47, 121.92 -0.02 M97.38 34.3 C103.45 26.7, 114.49 18.26, 126.91 0.34 M97.38 34.3 C109.2 21.09, 120.96 8.41, 126.91 0.34 M102.37 34.66 C114.34 23.78, 124.94 8.68, 132.55 -0.05 M102.37 34.66 C111.76 25.14, 119.96 14.65, 132.55 -0.05 M108.01 34.27 C118.76 23.26, 126.48 10.78, 137.54 0.31 M108.01 34.27 C119.76 22.05, 130.82 9.21, 137.54 0.31 M113 34.63 C124.33 19.11, 135.74 6.78, 143.18 -0.09 M113 34.63 C126.06 20.92, 138.11 7.92, 143.18 -0.09 M118.64 34.23 C124.08 27.14, 133.89 17.91, 146.2 2.54 M118.64 34.23 C125.33 25.28, 132.8 17.04, 146.2 2.54 M123.63 34.59 C132.48 26.85, 138.24 17.32, 145.94 8.93 M123.63 34.59 C129.64 27.64, 134.86 21.19, 145.94 8.93 M129.27 34.2 C135.75 29.71, 137.52 23.25, 146.33 14.58 M129.27 34.2 C135.92 26.61, 141.19 19.73, 146.33 14.58 M134.26 34.56 C136.47 32.79, 140.9 28, 146.07 20.97 M134.26 34.56 C138.47 30.83, 142.47 25.04, 146.07 20.97 M139.9 34.16 C142.04 32.68, 141.96 31.27, 146.46 26.62 M139.9 34.16 C142.24 32.03, 144.04 29.98, 146.46 26.62" stroke="#ffc9c9" stroke-width="0.5" fill="none"></path><path d="M0 0 C38.26 -0.33, 75.5 -1.1, 143.31 0 M0 0 C32.29 1.45, 63.57 -0.32, 143.31 0 M143.31 0 C145.17 12.01, 143.34 24.72, 143.31 32.77 M143.31 0 C142.66 13.18, 142.87 26.6, 143.31 32.77 M143.31 32.77 C86.21 33.89, 31.71 31.72, 0 32.77 M143.31 32.77 C101.44 33.15, 61.01 33.25, 0 32.77 M0 32.77 C-1.83 20, -1.76 5.68, 0 0 M0 32.77 C0.67 26.27, -0.73 18.54, 0 0" stroke="#e03131" stroke-width="1" fill="none"></path></g><g transform="translate(194.20986624294903 336.54997031845505) rotate(0 63.720703125 8.701726315213818)"><text x="63.720703125" y="14.004340788547596" font-family="Cascadia, Segoe UI Emoji" font-size="14.502877192023401px" fill="#e03131" text-anchor="middle" style="white-space: pre;" direction="ltr" dominant-baseline="alphabetic">order-validated</text></g><g stroke-linecap="round" transform="translate(10 275.8051091670977) rotate(0 309.98931261489656 63.62515845916414)"><path d="M0 0 C149.47 -0.83, 298.8 -1.42, 619.98 0 M619.98 0 C620.01 38.33, 619.61 74.98, 619.98 127.25 M619.98 127.25 C453.55 129.44, 288.28 130.02, 0 127.25 M0 127.25 C2.09 87.11, -1.02 42.49, 0 0" stroke="#1e1e1e" stroke-width="1.5" fill="none" stroke-dasharray="8 9"></path></g><g stroke-linecap="round" transform="translate(28.1478474985488 110.7324398681967) rotate(0 47.595247339523326 47.2351589078271)"><path d="M3.18 9.39 C3.18 9.39, 3.18 9.39, 3.18 9.39 M3.18 9.39 C3.18 9.39, 3.18 9.39, 3.18 9.39 M1.61 17.3 C8.32 11.97, 13.9 5.43, 14.73 2.2 M1.61 17.3 C6.49 11.95, 10.5 8.23, 14.73 2.2 M0.03 25.2 C7.85 19.82, 14.4 10.17, 21.03 1.05 M0.03 25.2 C5.45 18.41, 9.48 13.41, 21.03 1.05 M-0.23 31.6 C9.42 21.62, 15.78 10.99, 26.67 0.66 M-0.23 31.6 C9.91 21.1, 19.13 11.41, 26.67 0.66 M0.17 37.24 C10.6 27.53, 16.74 15.62, 32.31 0.26 M0.17 37.24 C9.11 26.65, 18.78 17.33, 32.31 0.26 M-0.1 43.64 C11.15 28.96, 25.39 14.5, 37.3 0.62 M-0.1 43.64 C10.52 31.39, 20.04 18.79, 37.3 0.62 M0.3 49.28 C13.38 36.18, 25.96 19.26, 42.29 0.98 M0.3 49.28 C9.88 39.48, 18.95 27.88, 42.29 0.98 M0.04 55.68 C11.54 42.87, 23.54 28.45, 47.93 0.59 M0.04 55.68 C16.66 35.85, 35.95 14.87, 47.93 0.59 M-0.22 62.08 C12.73 46.51, 25.18 33.53, 52.92 0.95 M-0.22 62.08 C17.4 42.93, 35.47 22.62, 52.92 0.95 M0.17 67.72 C21.35 46.36, 37.3 23.06, 58.56 0.55 M0.17 67.72 C23.54 40.78, 45.75 16.71, 58.56 0.55 M0.56 73.37 C20.89 49.28, 42.06 25.23, 63.55 0.91 M0.56 73.37 C24.26 47, 44.99 20.59, 63.55 0.91 M1.62 78.26 C27.93 48.49, 54.39 21.75, 69.19 0.52 M1.62 78.26 C18.13 59.06, 35.37 38.66, 69.19 0.52 M2.67 83.14 C22.64 61.87, 43.5 37.81, 74.18 0.88 M2.67 83.14 C22.33 62.31, 39.73 40.07, 74.18 0.88 M5.03 86.52 C27.86 58.97, 54.61 33.69, 79.16 1.24 M5.03 86.52 C21.62 68.34, 37.93 49.32, 79.16 1.24 M7.39 89.9 C37.97 56.34, 66.07 21.4, 83.49 2.35 M7.39 89.9 C26.39 69.11, 45.89 47.14, 83.49 2.35 M11.07 91.77 C41.65 56.71, 70.35 25.12, 87.17 4.22 M11.07 91.77 C35.8 64.24, 60.21 36.2, 87.17 4.22 M14.74 93.64 C40.18 62.06, 68.54 32.79, 90.19 6.85 M14.74 93.64 C42.84 62.24, 69.91 29.18, 90.19 6.85 M19.73 94 C42.28 67.93, 61.46 43.92, 92.55 10.23 M19.73 94 C39.52 70.04, 61.35 44.46, 92.55 10.23 M24.72 94.36 C44.49 71.47, 64.43 46.34, 93.6 15.12 M24.72 94.36 C48.16 67.44, 70.58 42.46, 93.6 15.12 M30.36 93.97 C50.84 69.56, 72.26 46.52, 94.65 20 M30.36 93.97 C44.58 78.95, 57.42 63.23, 94.65 20 M35.35 94.33 C55.15 71.76, 75.43 47.84, 95.05 25.65 M35.35 94.33 C49.59 77.63, 64.85 59.59, 95.05 25.65 M40.33 94.69 C61.77 70.69, 80.76 48.42, 95.44 31.29 M40.33 94.69 C56.94 75.94, 73.58 57.19, 95.44 31.29 M45.98 94.29 C64.2 72.06, 81.85 52.52, 95.18 37.69 M45.98 94.29 C60.82 78.54, 75.11 61.27, 95.18 37.69 M50.96 94.65 C67.25 78.92, 79.92 63.17, 94.92 44.09 M50.96 94.65 C66.43 77.59, 80.39 59.84, 94.92 44.09 M56.61 94.26 C66.89 83.74, 72.33 77.41, 95.31 49.73 M56.61 94.26 C67.2 81.02, 79.06 66.91, 95.31 49.73 M61.59 94.62 C72.96 81.59, 87.8 65.77, 95.05 56.13 M61.59 94.62 C69.76 85.88, 77.74 77.37, 95.05 56.13 M67.24 94.22 C76.18 83.06, 88.34 72.36, 94.79 62.52 M67.24 94.22 C75.26 85.91, 82.62 76.77, 94.79 62.52 M72.22 94.58 C81.9 83.8, 90.81 76.24, 95.18 68.17 M72.22 94.58 C76.9 88.34, 82.52 82.07, 95.18 68.17 M78.52 93.43 C85.05 87.08, 89.11 80.31, 94.92 74.57 M78.52 93.43 C83.78 86.69, 89.66 80.19, 94.92 74.57 M85.48 91.53 C88.31 87.23, 90.34 86, 94.01 81.72 M85.48 91.53 C88.36 88.66, 90.68 84.79, 94.01 81.72" stroke="#b2f2bb" stroke-width="0.5" fill="none"></path><path d="M23.62 0 C42.6 -0.2, 58.05 0.7, 71.57 0 M23.62 0 C42.15 -0.09, 61.42 0.3, 71.57 0 M71.57 0 C89.14 -1.98, 94.99 6.85, 95.19 23.62 M71.57 0 C88.77 0.63, 94.15 7.56, 95.19 23.62 M95.19 23.62 C94.13 41.04, 94.33 60.83, 95.19 70.85 M95.19 23.62 C95.53 39.17, 94.7 55.51, 95.19 70.85 M95.19 70.85 C93.71 87.37, 88.18 95.72, 71.57 94.47 M95.19 70.85 C92.94 86.63, 89.52 96.32, 71.57 94.47 M71.57 94.47 C51.2 93.77, 34.57 94.9, 23.62 94.47 M71.57 94.47 C52.28 94.39, 33.9 93.51, 23.62 94.47 M23.62 94.47 C9.69 94.07, 1.56 84.77, 0 70.85 M23.62 94.47 C8.63 94.92, 1.46 87.62, 0 70.85 M0 70.85 C2.07 55.24, 0.86 37.26, 0 23.62 M0 70.85 C-0.2 52.98, 0.18 33.81, 0 23.62 M0 23.62 C-1.06 9.46, 7.2 1.54, 23.62 0 M0 23.62 C2.14 6.76, 6 1.66, 23.62 0" stroke="#1e1e1e" stroke-width="1" fill="none"></path></g><g transform="translate(54.502860463072125 149.26587246081) rotate(0 21.240234375 8.701726315213818)"><text x="21.240234375" y="14.004340788547596" font-family="Cascadia, Segoe UI Emoji" font-size="14.502877192023401px" fill="#1e1e1e" text-anchor="middle" style="white-space: pre;" direction="ltr" dominant-baseline="alphabetic">order</text></g><g stroke-linecap="round"><g transform="translate(54.45382485125606 210.05361061634812) rotate(0 -1.1144410756543266 54.55789587941172)"><path d="M0 0 C1.19 33.2, -0.46 66.64, -2.23 109.12 M0 0 C-0.15 33.43, -1.86 68.31, -2.23 109.12" stroke="#1e1e1e" stroke-width="1" fill="none"></path></g><g transform="translate(54.45382485125606 210.05361061634812) rotate(0 -1.1144410756543266 54.55789587941172)"><path d="M-10.37 85.48 C-5.91 92.1, -4.34 99.03, -2.23 109.12 M-10.37 85.48 C-6.97 91.9, -5.41 99.83, -2.23 109.12" stroke="#1e1e1e" stroke-width="1" fill="none"></path></g><g transform="translate(54.45382485125606 210.05361061634812) rotate(0 -1.1144410756543266 54.55789587941172)"><path d="M6.73 85.78 C5.89 92.4, 2.15 99.24, -2.23 109.12 M6.73 85.78 C4.74 92.19, 0.91 100.03, -2.23 109.12" stroke="#1e1e1e" stroke-width="1" fill="none"></path></g></g><mask></mask><g stroke-linecap="round" transform="translate(123.33834215029776 448.8396655020206) rotate(0 52.16366340262289 46.45311520485711)"><path d="M3.07 9.3 C3.07 9.3, 3.07 9.3, 3.07 9.3 M3.07 9.3 C3.07 9.3, 3.07 9.3, 3.07 9.3 M0.84 17.96 C3.38 15.77, 5.99 12.09, 11.34 5.88 M0.84 17.96 C4.32 14.83, 8.11 11.19, 11.34 5.88 M0.58 24.36 C6.48 19.86, 8.5 12.35, 18.29 3.98 M0.58 24.36 C6.09 19.04, 10.66 12.08, 18.29 3.98 M0.98 30 C6.21 23.74, 14.51 15.72, 25.25 2.07 M0.98 30 C11.41 19.65, 20.68 7.13, 25.25 2.07 M0.71 36.4 C8.19 26.07, 17.27 17.4, 30.89 1.68 M0.71 36.4 C11.54 22.93, 22.54 10.99, 30.89 1.68 M0.45 42.79 C11.16 29.37, 24.05 13.26, 35.88 2.04 M0.45 42.79 C8.41 32.82, 18.56 22.65, 35.88 2.04 M0.85 48.44 C13.64 37.71, 24.23 25.69, 41.52 1.65 M0.85 48.44 C12.52 35.28, 24.1 22.38, 41.52 1.65 M0.59 54.84 C13.68 36.75, 29.25 23.63, 46.51 2.01 M0.59 54.84 C14.17 40.23, 26.47 25.29, 46.51 2.01 M0.98 60.48 C11.45 46.54, 27.14 32.99, 51.5 2.37 M0.98 60.48 C18.29 41.9, 35.66 20.55, 51.5 2.37 M0.72 66.88 C14.42 53.72, 24.54 38.4, 57.14 1.97 M0.72 66.88 C22.46 42.74, 42.79 18.83, 57.14 1.97 M0.46 73.27 C16.18 58.43, 28.98 38.33, 62.13 2.33 M0.46 73.27 C12.44 58.7, 25.78 44.07, 62.13 2.33 M2.82 76.65 C28.4 48.12, 51.68 21.92, 67.77 1.94 M2.82 76.65 C16.74 61.08, 31.31 45.75, 67.77 1.94 M4.53 80.79 C27.07 58.75, 47.98 32.96, 72.76 2.3 M4.53 80.79 C23.11 57.93, 43.05 36.93, 72.76 2.3 M6.23 84.92 C32.02 53.34, 61.63 21.42, 78.4 1.9 M6.23 84.92 C29.49 57.65, 54.29 28.93, 78.4 1.9 M7.94 89.05 C24.69 68.5, 44.93 49.06, 83.39 2.26 M7.94 89.05 C28.9 63.99, 50.88 38.03, 83.39 2.26 M11.62 90.92 C35.18 62.17, 62.82 32.28, 89.03 1.87 M11.62 90.92 C37.44 60.52, 62.63 31.57, 89.03 1.87 M15.29 92.79 C40.05 61.93, 69.85 28.33, 92.71 3.74 M15.29 92.79 C39.5 64.61, 63.97 34.88, 92.71 3.74 M19.62 93.91 C45.3 64.66, 69.28 38.7, 96.38 5.61 M19.62 93.91 C37.27 74.19, 54.23 54.37, 96.38 5.61 M24.61 94.27 C42.42 73.45, 59.67 51.4, 100.06 7.48 M24.61 94.27 C52.08 62.21, 79.81 30.61, 100.06 7.48 M30.25 93.87 C47.19 77.93, 62.7 59.47, 102.42 10.85 M30.25 93.87 C50.06 72.11, 68.67 50.37, 102.42 10.85 M35.24 94.23 C51.22 73.79, 69.51 55.09, 104.78 14.23 M35.24 94.23 C50.63 77.29, 64.59 59.43, 104.78 14.23 M40.88 93.84 C63.39 69.62, 85.09 45.01, 105.18 19.88 M40.88 93.84 C63.46 65.97, 87.36 38.02, 105.18 19.88 M45.87 94.2 C67.24 68.47, 93.16 41.36, 106.23 24.77 M45.87 94.2 C66.48 71.24, 88.02 46.22, 106.23 24.77 M50.86 94.56 C72.4 71.44, 93.77 44.87, 105.96 31.16 M50.86 94.56 C66.34 78.43, 81.02 59.71, 105.96 31.16 M56.5 94.16 C77.3 70.69, 95.53 49.38, 106.36 36.81 M56.5 94.16 C66.7 81.73, 77.34 71.12, 106.36 36.81 M61.49 94.52 C73.02 80.48, 87.53 65.94, 106.1 43.2 M61.49 94.52 C77.66 75.41, 93.93 57.83, 106.1 43.2 M67.13 94.13 C79.85 79.88, 93.85 64.36, 105.84 49.6 M67.13 94.13 C81.68 78.38, 95.21 62.01, 105.84 49.6 M72.12 94.49 C83.32 78.84, 96.69 65.09, 106.23 55.24 M72.12 94.49 C80.86 83.89, 90.65 72.23, 106.23 55.24 M77.76 94.1 C85.65 81.35, 97.12 69.82, 105.97 61.64 M77.76 94.1 C88.5 82.48, 97.52 70.06, 105.97 61.64 M82.75 94.46 C92.32 85.45, 100.14 74.69, 105.71 68.04 M82.75 94.46 C88.12 87.61, 93.7 81.74, 105.71 68.04 M89.05 93.31 C92.98 88.1, 98.62 82.07, 104.79 75.19 M89.05 93.31 C93.63 88.9, 97.43 83.81, 104.79 75.19" stroke="#b2f2bb" stroke-width="0.5" fill="none"></path><path d="M23.23 0 C44.76 -0.88, 64.62 -0.46, 81.1 0 M23.23 0 C43.61 0.06, 64.82 0.85, 81.1 0 M81.1 0 C95.68 -0.27, 105.84 9.27, 104.33 23.23 M81.1 0 C94.74 -1.64, 103.96 6.34, 104.33 23.23 M104.33 23.23 C102.86 41.06, 102.94 57.34, 104.33 69.68 M104.33 23.23 C104.41 33.95, 103.01 43.44, 104.33 69.68 M104.33 69.68 C106.24 86.77, 98.32 91.26, 81.1 92.91 M104.33 69.68 C102.68 83.06, 96.18 93.01, 81.1 92.91 M81.1 92.91 C61.29 92.42, 41.84 93.56, 23.23 92.91 M81.1 92.91 C69.8 91.88, 57.26 92.99, 23.23 92.91 M23.23 92.91 C9.01 93.79, 1.08 83.2, 0 69.68 M23.23 92.91 C7.41 94.75, 1.26 85.62, 0 69.68 M0 69.68 C-0.86 55.51, 0.77 42.73, 0 23.23 M0 69.68 C-0.09 56.99, 1.18 42.27, 0 23.23 M0 23.23 C-1.63 9.19, 6.09 -0.22, 23.23 0 M0 23.23 C-0.72 8.11, 9.36 0.27, 23.23 0" stroke="#1e1e1e" stroke-width="1" fill="none"></path></g><g transform="translate(136.63786981073315 479.3684710645748) rotate(0 38.8641357421875 15.924309642302887)"><text x="38.8641357421875" y="12.814092915290736" font-family="Cascadia, Segoe UI Emoji" font-size="13.270258035252542px" fill="#1e1e1e" text-anchor="middle" style="white-space: pre;" direction="ltr" dominant-baseline="alphabetic">order </text><text x="38.8641357421875" y="28.738402557593787" font-family="Cascadia, Segoe UI Emoji" font-size="13.270258035252542px" fill="#1e1e1e" text-anchor="middle" style="white-space: pre;" direction="ltr" dominant-baseline="alphabetic">validation</text></g><g stroke-linecap="round"><g transform="translate(163.37196743688787 358.7900529321987) rotate(0 -1.6877863532087645 42.91462964180391)"><path d="M-0.39 0.65 C-0.67 14.72, -1.76 70.55, -2.28 84.64 M1.6 -0.06 C1.32 14.1, -1.67 71.18, -2.65 85.56" stroke="#1e1e1e" stroke-width="1" fill="none"></path></g><g transform="translate(163.37196743688787 358.7900529321987) rotate(0 -1.6877863532087645 42.91462964180391)"><path d="M-9.81 61.6 C-6.93 69.36, -8.22 73.24, -2.65 85.56 M-9.81 61.6 C-8.33 67.41, -5.34 74.27, -2.65 85.56" stroke="#1e1e1e" stroke-width="1" fill="none"></path></g><g transform="translate(163.37196743688787 358.7900529321987) rotate(0 -1.6877863532087645 42.91462964180391)"><path d="M7.26 62.61 C5.93 70.06, 0.43 73.69, -2.65 85.56 M7.26 62.61 C4.48 68.21, 3.23 74.82, -2.65 85.56" stroke="#1e1e1e" stroke-width="1" fill="none"></path></g></g><mask></mask><g stroke-linecap="round"><g transform="translate(199.60551259858892 442.44385850736853) rotate(0 2.001801912527128 -42.05833832445978)"><path d="M1.1 -1.19 C1.81 -15.42, 3.28 -70.96, 3.89 -84.73 M0.21 0.8 C0.79 -13.33, 2.18 -69.67, 2.88 -83.52" stroke="#1e1e1e" stroke-width="1" fill="none"></path></g><g transform="translate(199.60551259858892 442.44385850736853) rotate(0 2.001801912527128 -42.05833832445978)"><path d="M10.58 -59.73 C6.42 -66.21, 5.31 -71.11, 2.88 -83.52 M10.58 -59.73 C8.92 -66.77, 4.84 -76.03, 2.88 -83.52" stroke="#1e1e1e" stroke-width="1" fill="none"></path></g><g transform="translate(199.60551259858892 442.44385850736853) rotate(0 2.001801912527128 -42.05833832445978)"><path d="M-6.51 -60.34 C-6.1 -66.82, -2.64 -71.55, 2.88 -83.52 M-6.51 -60.34 C-2.57 -67.16, -1.06 -76.22, 2.88 -83.52" stroke="#1e1e1e" stroke-width="1" fill="none"></path></g></g><mask></mask><g stroke-linecap="round" transform="translate(210.3353221222552 115.58329286645221) rotate(0 47.595247339523326 47.2351589078271)"><path d="M3.18 9.39 C3.18 9.39, 3.18 9.39, 3.18 9.39 M3.18 9.39 C3.18 9.39, 3.18 9.39, 3.18 9.39 M3.57 15.03 C6.88 11.64, 7.97 9.96, 12.1 5.22 M3.57 15.03 C5.93 11.91, 9.1 9.53, 12.1 5.22 M0.69 24.45 C6.77 16.23, 12.19 9.5, 18.4 4.07 M0.69 24.45 C5.64 19.4, 9.78 13.05, 18.4 4.07 M1.08 30.09 C8.48 23.13, 15.06 13.14, 25.36 2.17 M1.08 30.09 C8.11 23.01, 14.04 14.96, 25.36 2.17 M0.82 36.49 C10.14 24.81, 24.79 12.7, 31 1.77 M0.82 36.49 C12.05 22.73, 24.76 8.7, 31 1.77 M0.56 42.89 C14.25 29.89, 24.46 13.07, 35.99 2.13 M0.56 42.89 C11.7 28.36, 24.62 15.22, 35.99 2.13 M0.95 48.53 C9.87 40.22, 15.83 29.97, 41.63 1.74 M0.95 48.53 C15.08 30.92, 29.32 16.22, 41.63 1.74 M0.69 54.93 C17.14 38.15, 31.15 23.64, 46.62 2.1 M0.69 54.93 C10.22 42.42, 20.39 31.94, 46.62 2.1 M1.09 60.57 C16.31 42.9, 30.92 29.63, 52.26 1.7 M1.09 60.57 C16.83 43.84, 29.87 28, 52.26 1.7 M0.83 66.97 C13.1 48.69, 29.42 32.88, 57.25 2.06 M0.83 66.97 C19.87 44.64, 39.15 23.25, 57.25 2.06 M1.88 71.86 C23.12 44.53, 47.85 21.65, 62.23 2.42 M1.88 71.86 C26.04 44.33, 48.7 16.86, 62.23 2.42 M2.93 76.75 C18.23 55.8, 35.11 35.78, 67.88 2.03 M2.93 76.75 C25.32 51.5, 45.1 28.27, 67.88 2.03 M3.98 81.63 C23.59 58.45, 43.26 35.34, 72.86 2.39 M3.98 81.63 C26.55 56.21, 47.42 31.07, 72.86 2.39 M5.03 86.52 C21.28 68.82, 35 50.5, 78.51 1.99 M5.03 86.52 C27.9 60.24, 50.41 33.58, 78.51 1.99 M8.05 89.15 C29.96 66.58, 47.43 42.27, 82.84 3.11 M8.05 89.15 C35.98 58.24, 62.7 27.06, 82.84 3.11 M10.41 92.53 C30.06 72.27, 50.84 47.73, 87.17 4.22 M10.41 92.53 C38.27 60.07, 67.13 27.57, 87.17 4.22 M14.74 93.64 C41.2 63.02, 65.64 35.35, 90.19 6.85 M14.74 93.64 C33.2 72.68, 50.29 52.55, 90.19 6.85 M19.07 94.76 C32.22 76.52, 50.56 60.66, 92.55 10.23 M19.07 94.76 C42.96 66.69, 67.59 39.5, 92.55 10.23 M24.06 95.12 C44.81 71.02, 66.54 44.1, 93.6 15.12 M24.06 95.12 C45.99 72.04, 67.5 47.66, 93.6 15.12 M29.7 94.72 C48.19 74.4, 67.76 52.6, 94.65 20 M29.7 94.72 C52.53 68.99, 73.67 42.31, 94.65 20 M34.69 95.08 C51.62 76.77, 66.54 57.79, 96.36 24.14 M34.69 95.08 C58.53 67.01, 81.62 41.37, 96.36 24.14 M40.33 94.69 C60.34 74.06, 79.1 52.19, 96.1 30.54 M40.33 94.69 C57.66 73.38, 76.55 53.95, 96.1 30.54 M45.32 95.05 C57.44 82.72, 70.96 66.26, 95.84 36.93 M45.32 95.05 C61.58 77.81, 76.85 59.05, 95.84 36.93 M50.31 95.41 C65.4 76.74, 81.91 57.62, 96.23 42.58 M50.31 95.41 C64.79 78.53, 78.58 62, 96.23 42.58 M55.95 95.01 C67.36 80.44, 79.79 67.25, 95.97 48.97 M55.95 95.01 C72.01 76.33, 86.89 60.36, 95.97 48.97 M60.94 95.37 C68.15 84.97, 76.84 73.47, 95.71 55.37 M60.94 95.37 C71.55 84.98, 80.32 73.41, 95.71 55.37 M66.58 94.98 C78.02 84.74, 84.81 70.93, 96.1 61.02 M66.58 94.98 C76.37 83.19, 85.95 73.42, 96.1 61.02 M72.22 94.58 C77.83 89.06, 83.81 83.4, 95.84 67.41 M72.22 94.58 C80.21 85.7, 88.7 75.21, 95.84 67.41 M78.52 93.43 C81.62 88.4, 84.54 85.5, 95.58 73.81 M78.52 93.43 C83.56 88.41, 89.06 82.38, 95.58 73.81 M85.48 91.53 C88.57 87.15, 94.46 81.61, 97.29 77.94 M85.48 91.53 C88.27 88.76, 90.99 86.07, 97.29 77.94" stroke="#b2f2bb" stroke-width="0.5" fill="none"></path><path d="M23.62 0 C36.08 -1.06, 52.62 1.28, 71.57 0 M23.62 0 C41.96 0.8, 59.26 -0.83, 71.57 0 M71.57 0 C85.88 -1.83, 94.84 7.96, 95.19 23.62 M71.57 0 C88.21 2.19, 95.95 7.63, 95.19 23.62 M95.19 23.62 C93.35 38.01, 94.77 50.33, 95.19 70.85 M95.19 23.62 C95.98 33.91, 95.89 42.34, 95.19 70.85 M95.19 70.85 C94.9 88.21, 88.42 94.87, 71.57 94.47 M95.19 70.85 C95 88.69, 86.83 93.97, 71.57 94.47 M71.57 94.47 C58.45 93.45, 47.31 93.84, 23.62 94.47 M71.57 94.47 C52.67 94.96, 34.58 94.13, 23.62 94.47 M23.62 94.47 C7.24 94.79, 1.41 86.83, 0 70.85 M23.62 94.47 C9.31 93.54, -1.32 85.45, 0 70.85 M0 70.85 C1.06 56.67, 2.07 42.04, 0 23.62 M0 70.85 C0.57 54.69, -0.27 39.13, 0 23.62 M0 23.62 C-0.82 9.83, 6.31 1.97, 23.62 0 M0 23.62 C0.24 7.84, 8.04 0.63, 23.62 0" stroke="#1e1e1e" stroke-width="1" fill="none"></path></g><g transform="translate(232.44228821177853 145.41499914385167) rotate(0 25.48828125 17.40345263042809)"><text x="25.48828125" y="14.004340788547596" font-family="Cascadia, Segoe UI Emoji" font-size="14.502877192023401px" fill="#1e1e1e" text-anchor="middle" style="white-space: pre;" direction="ltr" dominant-baseline="alphabetic">order-</text><text x="25.48828125" y="31.40779341897568" font-family="Cascadia, Segoe UI Emoji" font-size="14.502877192023401px" fill="#1e1e1e" text-anchor="middle" style="white-space: pre;" direction="ltr" dominant-baseline="alphabetic">status</text></g><g stroke-linecap="round"><g transform="translate(260.2845190323137 319.89456283199615) rotate(0 0.36350882334272683 -52.2103634236928)"><path d="M0.51 0.75 C0.59 -16.73, -0.67 -87.03, -0.45 -104.4 M-0.67 0.1 C-0.17 -17.21, 1.25 -85.29, 1.65 -102.85" stroke="#1e1e1e" stroke-width="1" fill="none"></path></g><g transform="translate(260.2845190323137 319.89456283199615) rotate(0 0.36350882334272683 -52.2103634236928)"><path d="M9.69 -79.18 C9.03 -86.44, 6 -87.92, 1.65 -102.85 M9.69 -79.18 C5.71 -89.16, 3.19 -97.21, 1.65 -102.85" stroke="#1e1e1e" stroke-width="1" fill="none"></path></g><g transform="translate(260.2845190323137 319.89456283199615) rotate(0 0.36350882334272683 -52.2103634236928)"><path d="M-7.41 -79.55 C-4.2 -86.81, -3.38 -88.2, 1.65 -102.85 M-7.41 -79.55 C-4.88 -89.25, -0.9 -97.15, 1.65 -102.85" stroke="#1e1e1e" stroke-width="1" fill="none"></path></g></g><mask></mask><g mask="url(#mask-daTHjkIToN-M2o3weSvlI)" stroke-linecap="round"><g transform="translate(153.20611391500347 10.982899492233628) rotate(0 -32.26885196057469 54.62581184292321)"><path d="M0.07 -0.98 C-10.74 17.01, -53.72 90.49, -64.48 108.83 M-1.35 1.12 C-12.35 19.2, -54.75 91.95, -65.4 110.15" stroke="#1e1e1e" stroke-width="1" fill="none"></path></g><g transform="translate(153.20611391500347 10.982899492233628) rotate(0 -32.26885196057469 54.62581184292321)"><path d="M-60.93 85.55 C-63.88 93.85, -64.42 102.01, -65.4 110.15 M-60.93 85.55 C-62.76 91.78, -63.23 99.63, -65.4 110.15" stroke="#1e1e1e" stroke-width="1" fill="none"></path></g><g transform="translate(153.20611391500347 10.982899492233628) rotate(0 -32.26885196057469 54.62581184292321)"><path d="M-46.16 94.18 C-54.09 99.61, -59.56 104.89, -65.4 110.15 M-46.16 94.18 C-52.24 98.02, -56.93 103.4, -65.4 110.15" stroke="#1e1e1e" stroke-width="1" fill="none"></path></g></g><mask id="mask-daTHjkIToN-M2o3weSvlI"><rect x="0" y="0" fill="#fff" width="317.74381783615286" height="220.23452317808005"></rect><rect x="65.71265257942878" y="56.90698501994302" fill="#000" width="110.44921875" height="17.40345263042808" opacity="1"></rect></mask><g transform="translate(65.71265257942872 56.90698501994302) rotate(0 54.83116420119538 8.65974159103962)"><text x="55.224609375" y="14.004340788547596" font-family="Cascadia, Segoe UI Emoji" font-size="14.502877192023401px" fill="#1e1e1e" text-anchor="middle" style="white-space: pre;" direction="ltr" dominant-baseline="alphabetic">order request</text></g><g stroke-linecap="round"><g transform="translate(86.63850854546865 321.3444797001466) rotate(0 79.49377276160533 -50.03492354627588)"><path d="M0.47 0.86 C26.88 -15.58, 133.36 -82.58, 159.64 -99.49 M-0.75 0.26 C25.46 -16.45, 132.14 -84.68, 159.03 -101.31" stroke="#1e1e1e" stroke-width="1" fill="none"></path></g><g transform="translate(86.63850854546865 321.3444797001466) rotate(0 79.49377276160533 -50.03492354627588)"><path d="M143.72 -81.55 C151.36 -88.36, 156.96 -98.7, 159.03 -101.31 M143.72 -81.55 C148.39 -85.51, 151.37 -91.4, 159.03 -101.31" stroke="#1e1e1e" stroke-width="1" fill="none"></path></g><g transform="translate(86.63850854546865 321.3444797001466) rotate(0 79.49377276160533 -50.03492354627588)"><path d="M134.6 -96.01 C145.74 -97.13, 154.96 -101.73, 159.03 -101.31 M134.6 -96.01 C141.73 -96.21, 147.04 -98.4, 159.03 -101.31" stroke="#1e1e1e" stroke-width="1" fill="none"></path></g></g><mask></mask><g stroke-linecap="round"><g transform="translate(297.1548777362966 168.80167720330155) rotate(0 24.586539673034565 26.702215356715442)" fill-rule="evenodd"><path d="M0 0 C0 0, 0 0, 0 0 M0 0 C0 0, 0 0, 0 0 M0.39 5.64 C4.05 1.85, 5.79 -1.73, 8.27 -3.41 M0.39 5.64 C3.96 1.69, 6.65 -1.79, 8.27 -3.41 M0.13 12.04 C5.12 6.3, 9.23 -0.02, 13.91 -3.81 M0.13 12.04 C3.41 7.09, 7.52 2.92, 13.91 -3.81 M0.53 17.68 C5.35 8.64, 13.48 3.54, 19.55 -4.2 M0.53 17.68 C4.29 12.64, 10.36 7.09, 19.55 -4.2 M0.27 24.08 C8.98 16.34, 14.96 5.91, 25.2 -4.6 M0.27 24.08 C6.58 16.82, 13.36 8.71, 25.2 -4.6 M0.66 29.72 C12.19 18.32, 18.45 8.05, 30.18 -4.24 M0.66 29.72 C11.89 16.82, 22.63 5.58, 30.18 -4.24 M0.4 36.12 C10.76 25.19, 19.77 11.8, 35.17 -3.88 M0.4 36.12 C13.44 23.08, 24.13 7.96, 35.17 -3.88 M0.79 41.77 C13.04 26.15, 25.05 12.92, 40.16 -3.52 M0.79 41.77 C12.44 28.74, 23.97 15.19, 40.16 -3.52 M0.53 48.16 C17.02 31.34, 31.04 13.52, 44.49 -2.4 M0.53 48.16 C13.18 33.72, 25.39 17.94, 44.49 -2.4 M0.93 53.81 C17.15 35.83, 33.3 17.08, 48.16 -0.53 M0.93 53.81 C12.99 39.03, 25.76 24.47, 48.16 -0.53 M3.95 56.43 C17.35 38.31, 33.46 23.39, 49.21 4.36 M3.95 56.43 C21.8 36.83, 39.05 16.17, 49.21 4.36 M8.28 57.55 C21.15 44.24, 30.09 31.37, 49.61 10 M8.28 57.55 C18.02 45.94, 27.44 35.91, 49.61 10 M13.26 57.91 C23.75 46.42, 32.17 38.74, 49.35 16.4 M13.26 57.91 C22.27 45.76, 32.15 35.29, 49.35 16.4 M18.25 58.27 C27.62 49.44, 36.36 40.4, 49.09 22.79 M18.25 58.27 C29.81 45.6, 41.62 30.62, 49.09 22.79 M23.24 58.63 C30.32 52.59, 37.34 41.79, 49.48 28.44 M23.24 58.63 C28.73 51.11, 36.88 43.96, 49.48 28.44 M28.23 58.99 C31.68 54.09, 38.97 49.87, 49.22 34.84 M28.23 58.99 C35.23 50.51, 42.49 44.47, 49.22 34.84 M33.87 58.59 C38.66 51.89, 42.17 46.99, 49.61 40.48 M33.87 58.59 C38.84 51.73, 45.81 45.22, 49.61 40.48 M39.51 58.2 C42.88 52.91, 46.43 49.34, 49.35 46.88 M39.51 58.2 C42.33 55.01, 44.96 52.33, 49.35 46.88 M47.12 55.54 C47.87 54.48, 48.55 54.11, 49.09 53.27 M47.12 55.54 C47.97 54.63, 48.61 53.84, 49.09 53.27" stroke="#b2f2bb" stroke-width="0.5" fill="none"></path><path d="M0.33 0.69 C0.14 8.51, -0.93 38.32, -0.94 47.2 C-0.94 56.08, -0.24 52.7, 0.32 53.98 C0.88 55.27, 0.51 54.33, 2.43 54.92 C4.35 55.5, 7.83 56.98, 11.84 57.49 C15.84 57.99, 21.78 58.04, 26.47 57.94 C31.15 57.84, 36.25 57.27, 39.96 56.87 C43.67 56.46, 47.06 56.08, 48.73 55.5 C50.4 54.93, 49.71 54.55, 49.97 53.42 C50.23 52.28, 50.22 56.92, 50.26 48.67 C50.3 40.42, 50.48 12.18, 50.21 3.91 C49.94 -4.37, 49.53 0.14, 48.62 -1 C47.72 -2.14, 46.48 -2.38, 44.76 -2.95 C43.04 -3.52, 41.6 -4.1, 38.29 -4.4 C34.99 -4.7, 29.26 -4.84, 24.95 -4.75 C20.64 -4.66, 16.37 -4.25, 12.42 -3.84 C8.47 -3.44, 3.42 -2.94, 1.27 -2.32 C-0.89 -1.7, -0.26 -0.46, -0.52 -0.13 C-0.78 0.21, -0.27 -0.44, -0.28 -0.33 M-0.95 0 C-0.8 7.94, 1.09 39.66, 1.2 48.31 C1.31 56.96, -0.52 50.7, -0.29 51.9 C-0.05 53.1, 0.8 54.57, 2.62 55.53 C4.44 56.5, 6.4 56.89, 10.63 57.69 C14.86 58.48, 23.06 60.09, 28.01 60.28 C32.97 60.48, 37.01 59.68, 40.35 58.86 C43.7 58.04, 46.69 56.49, 48.09 55.38 C49.5 54.26, 48.81 53.39, 48.78 52.2 C48.75 51.01, 48.15 56.11, 47.93 48.21 C47.71 40.31, 47.6 13.17, 47.46 4.83 C47.32 -3.52, 47.6 -0.38, 47.11 -1.85 C46.62 -3.32, 46.17 -3.49, 44.52 -3.99 C42.87 -4.48, 40.94 -4.65, 37.22 -4.84 C33.5 -5.03, 26.71 -4.95, 22.21 -5.14 C17.7 -5.33, 13.35 -6.54, 10.19 -5.97 C7.02 -5.4, 4.66 -2.73, 3.23 -1.71 C1.8 -0.68, 2.44 -0.05, 1.6 0.19 C0.76 0.43, -1.49 -0.06, -1.82 -0.24" stroke="#1e1e1e" stroke-width="1" fill="none"></path></g></g><mask></mask><g stroke-linecap="round"><g transform="translate(297.5384368723169 205.2346485545704) rotate(0 24.638686387611074 2.4824213618876456)"><path d="M-0.5 -0.38 C-0.29 -0.03, 0.21 1.75, 1.44 2.41 C2.67 3.07, 4.66 3.16, 6.85 3.58 C9.04 4.01, 11.36 4.72, 14.58 4.95 C17.79 5.18, 21.99 5.09, 26.13 4.97 C30.27 4.85, 35.79 4.71, 39.42 4.23 C43.06 3.76, 46.22 2.85, 47.93 2.13 C49.65 1.41, 49.39 0.29, 49.7 -0.1 M0.24 0.62 C0.38 0.78, 0.04 1, 1.08 1.56 C2.12 2.11, 4.19 3.33, 6.48 3.96 C8.76 4.6, 11.63 5.19, 14.81 5.37 C17.98 5.54, 21.33 5.04, 25.52 5.03 C29.71 5.01, 36.14 5.85, 39.95 5.28 C43.77 4.71, 46.82 2.53, 48.4 1.62 C49.98 0.7, 49.31 0.23, 49.45 -0.18" stroke="#1e1e1e" stroke-width="1" fill="none"></path></g></g><mask></mask><g stroke-linecap="round"><g transform="translate(296.92811101791165 186.77872325665794) rotate(0 24.638686387611074 2.4824213618876456)"><path d="M0.14 0.23 C0.43 0.58, 0.09 1.15, 1.25 1.75 C2.41 2.36, 4.92 3.32, 7.13 3.84 C9.33 4.36, 11.35 4.69, 14.46 4.87 C17.57 5.06, 21.55 4.97, 25.8 4.94 C30.05 4.91, 36.28 5.17, 39.98 4.7 C43.68 4.22, 46.38 2.92, 48.02 2.09 C49.65 1.27, 49.47 0.14, 49.76 -0.26 M-0.45 -0.13 C-0.19 0.31, -0.43 1.49, 0.79 2.23 C2.02 2.98, 4.59 3.85, 6.9 4.36 C9.2 4.86, 11.34 5.15, 14.63 5.25 C17.93 5.35, 22.6 5.13, 26.69 4.97 C30.77 4.82, 35.77 4.89, 39.13 4.32 C42.49 3.75, 45.12 2.35, 46.86 1.56 C48.6 0.77, 49.14 0, 49.55 -0.42" stroke="#1e1e1e" stroke-width="1" fill="none"></path></g></g><mask></mask><g stroke-linecap="round" transform="translate(296.3026734204308 164.32376397870848) rotate(0 24.455283043584927 4.945897010916269)"><path d="M0.76 3.31 C0.76 3.31, 0.76 3.31, 0.76 3.31 M0.76 3.31 C0.76 3.31, 0.76 3.31, 0.76 3.31 M3.12 6.69 C4.06 5.27, 5.24 4.07, 7.06 2.16 M3.12 6.69 C4.32 5.06, 5.75 3.73, 7.06 2.16 M7.45 7.8 C8.39 6.47, 10.25 4.9, 12.7 1.77 M7.45 7.8 C9.13 6.1, 10.54 4.12, 12.7 1.77 M11.78 8.92 C13.31 7.08, 15.08 4.89, 18.35 1.37 M11.78 8.92 C14.16 6.43, 15.87 4.07, 18.35 1.37 M16.77 9.28 C19.63 5.87, 22.35 3.36, 23.99 0.98 M16.77 9.28 C18.9 6.97, 20.85 4.31, 23.99 0.98 M21.76 9.64 C24.87 6.94, 26.73 3.11, 29.63 0.58 M21.76 9.64 C24.21 6.61, 26.61 3.94, 29.63 0.58 M26.75 10 C29.15 7.65, 31.26 5.05, 34.62 0.94 M26.75 10 C29.65 6.93, 32.2 3.74, 34.62 0.94 M31.73 10.36 C34 8.14, 35.86 5.05, 38.95 2.06 M31.73 10.36 C34.22 7.61, 36.69 4.74, 38.95 2.06 M38.03 9.21 C39.53 7.29, 41.17 5.46, 43.94 2.42 M38.03 9.21 C39.82 6.86, 41.89 4.88, 43.94 2.42 M43.68 8.82 C45.23 7.18, 46.67 5.28, 47.61 4.29 M43.68 8.82 C44.87 7.54, 45.78 6.3, 47.61 4.29" stroke="#b2f2bb" stroke-width="0.5" fill="none"></path><path d="M26.78 -0.17 C31.75 -0.09, 38.08 0.96, 41.79 1.82 C45.49 2.68, 48.59 3.9, 49.02 4.98 C49.45 6.06, 47.49 7.42, 44.38 8.29 C41.27 9.17, 35.49 10.04, 30.37 10.21 C25.26 10.38, 18.46 9.92, 13.69 9.31 C8.93 8.71, 3.93 7.59, 1.78 6.59 C-0.37 5.58, -0.69 4.17, 0.78 3.29 C2.24 2.41, 6.09 1.8, 10.57 1.31 C15.06 0.82, 24.73 0.6, 27.67 0.35 C30.61 0.1, 28.32 -0.19, 28.23 -0.2 M23.61 0.35 C28.59 0.18, 35.44 -0.38, 39.67 0.35 C43.9 1.07, 48.07 3.55, 48.99 4.71 C49.91 5.86, 47.75 6.39, 45.21 7.28 C42.66 8.17, 38.59 9.63, 33.72 10.05 C28.86 10.46, 21.1 10.31, 16.01 9.79 C10.93 9.27, 5.84 7.73, 3.23 6.92 C0.63 6.11, -0.38 5.79, 0.4 4.93 C1.17 4.08, 4.02 2.51, 7.89 1.79 C11.77 1.06, 20.89 0.92, 23.64 0.6 C26.39 0.29, 24.38 -0.03, 24.39 -0.11" stroke="#1e1e1e" stroke-width="1" fill="none"></path></g><g stroke-linecap="round" transform="translate(336.20628682757956 178.03746847220827) rotate(0 3.5841561541175793 3.8899066178769317)"><path d="M1.35 1.17 C1.35 1.17, 1.35 1.17, 1.35 1.17 M1.35 1.17 C1.35 1.17, 1.35 1.17, 1.35 1.17 M1.74 6.81 C3.18 5.04, 4.6 3.43, 6.33 1.53 M1.74 6.81 C3.25 5.14, 4.64 3.41, 6.33 1.53" stroke="#b2f2bb" stroke-width="0.5" fill="none"></path><path d="M3.54 0.21 C4.31 0.25, 5.48 0.68, 6.09 1.25 C6.71 1.83, 7.14 2.81, 7.22 3.64 C7.31 4.48, 7.05 5.62, 6.62 6.26 C6.19 6.91, 5.42 7.37, 4.66 7.54 C3.89 7.7, 2.74 7.58, 2.02 7.25 C1.29 6.91, 0.65 6.16, 0.31 5.52 C-0.04 4.88, -0.25 4.14, -0.06 3.39 C0.14 2.64, 0.8 1.64, 1.46 1.03 C2.13 0.43, 3.54 -0.05, 3.93 -0.23 C4.31 -0.41, 3.8 -0.14, 3.77 -0.05 M3.34 -0.49 C4.16 -0.54, 5.57 0.69, 6.12 1.28 C6.67 1.86, 6.48 2.21, 6.64 3 C6.79 3.79, 7.4 5.24, 7.06 6 C6.72 6.77, 5.39 7.39, 4.6 7.59 C3.81 7.79, 2.98 7.4, 2.32 7.21 C1.66 7.03, 1.07 7.06, 0.64 6.48 C0.2 5.91, -0.34 4.61, -0.28 3.77 C-0.23 2.92, 0.28 2.08, 0.94 1.43 C1.6 0.78, 3.32 0.13, 3.7 -0.13 C4.07 -0.39, 3.16 -0.14, 3.19 -0.13" stroke="#1e1e1e" stroke-width="1" fill="none"></path></g><g stroke-linecap="round" transform="translate(336.20628682757956 195.11414389547917) rotate(0 3.5841561541175793 3.8899066178769317)"><path d="M1.13 0.99 C1.13 0.99, 1.13 0.99, 1.13 0.99 M1.13 0.99 C1.13 0.99, 1.13 0.99, 1.13 0.99 M1.53 6.63 C2.61 5.28, 3.61 4.11, 6.12 1.35 M1.53 6.63 C2.42 5.5, 3.55 4.31, 6.12 1.35" stroke="#b2f2bb" stroke-width="0.5" fill="none"></path><path d="M3.46 0.26 C4.23 0.18, 5.19 0.54, 5.79 1.05 C6.39 1.55, 6.9 2.53, 7.06 3.28 C7.22 4.03, 7.14 4.9, 6.76 5.56 C6.39 6.21, 5.52 6.89, 4.8 7.2 C4.09 7.51, 3.19 7.57, 2.47 7.43 C1.75 7.29, 0.86 6.99, 0.47 6.36 C0.08 5.74, -0.02 4.59, 0.11 3.68 C0.24 2.76, 0.72 1.48, 1.25 0.85 C1.79 0.21, 2.97 0.01, 3.34 -0.13 C3.7 -0.27, 3.44 -0.06, 3.44 0 M4.23 0.49 C4.9 0.58, 5.11 0.52, 5.65 1.08 C6.19 1.64, 7.36 2.99, 7.45 3.84 C7.53 4.69, 6.7 5.63, 6.18 6.2 C5.66 6.77, 5.02 6.96, 4.35 7.25 C3.68 7.54, 2.89 8.15, 2.17 7.93 C1.45 7.71, 0.41 6.71, 0.04 5.94 C-0.34 5.17, -0.39 4.21, -0.1 3.32 C0.19 2.43, 1.16 1.17, 1.78 0.59 C2.4 0, 3.21 -0.04, 3.63 -0.2 C4.06 -0.37, 4.28 -0.55, 4.32 -0.39" stroke="#1e1e1e" stroke-width="1" fill="none"></path></g><g stroke-linecap="round" transform="translate(336.20628682757956 213.67422109029212) rotate(0 3.5841561541175793 3.8899066178769317)"><path d="M1.78 0.22 C1.78 0.22, 1.78 0.22, 1.78 0.22 M1.78 0.22 C1.78 0.22, 1.78 0.22, 1.78 0.22 M1.51 6.62 C2.58 5.27, 3.33 4.32, 6.11 1.33 M1.51 6.62 C3.07 4.85, 4.47 3.36, 6.11 1.33" stroke="#b2f2bb" stroke-width="0.5" fill="none"></path><path d="M4.04 0.32 C4.75 0.36, 5.64 0.96, 6.15 1.5 C6.67 2.04, 7.11 2.82, 7.12 3.56 C7.14 4.3, 6.73 5.27, 6.26 5.92 C5.8 6.57, 5.07 7.17, 4.35 7.47 C3.62 7.76, 2.54 8, 1.88 7.7 C1.23 7.4, 0.67 6.54, 0.4 5.69 C0.13 4.83, 0.1 3.45, 0.29 2.59 C0.47 1.73, 0.89 0.97, 1.5 0.53 C2.12 0.09, 3.57 0.04, 3.98 -0.05 C4.39 -0.15, 3.93 -0.12, 3.95 -0.05 M2.54 0.02 C3.25 -0.19, 5.02 0.42, 5.7 0.86 C6.37 1.31, 6.43 2.03, 6.6 2.7 C6.78 3.36, 6.94 4.02, 6.75 4.86 C6.55 5.71, 6.11 7.23, 5.42 7.77 C4.73 8.31, 3.42 8.26, 2.62 8.09 C1.82 7.92, 0.99 7.49, 0.6 6.77 C0.21 6.04, 0.27 4.66, 0.28 3.72 C0.28 2.78, 0.1 1.84, 0.63 1.15 C1.16 0.46, 3.05 -0.31, 3.45 -0.43 C3.86 -0.54, 3.18 0.31, 3.06 0.46" stroke="#1e1e1e" stroke-width="1" fill="none"></path></g><g mask="url(#mask-vtXqPZC1tuUkEzXkeK3-7)" stroke-linecap="round"><g transform="translate(338.1178534373878 14.608632621259858) rotate(0 -33.719172874228605 45.684057622464934)"><path d="M0.74 -0.89 C-10.78 14.45, -56.59 75.52, -67.92 91.02 M-0.34 1.25 C-12.15 16.86, -57.86 77.55, -69.12 92.37" stroke="#1e1e1e" stroke-width="1" fill="none"></path></g><g transform="translate(338.1178534373878 14.608632621259858) rotate(0 -33.719172874228605 45.684057622464934)"><path d="M-61.77 68.48 C-66.39 77.22, -68.4 87.85, -69.12 92.37 M-61.77 68.48 C-65.37 76.38, -67.24 85.39, -69.12 92.37" stroke="#1e1e1e" stroke-width="1" fill="none"></path></g><g transform="translate(338.1178534373878 14.608632621259858) rotate(0 -33.719172874228605 45.684057622464934)"><path d="M-48.13 78.79 C-58.08 83.52, -65.52 90.05, -69.12 92.37 M-48.13 78.79 C-56.58 83.02, -63.39 88.28, -69.12 92.37" stroke="#1e1e1e" stroke-width="1" fill="none"></path></g></g><mask id="mask-vtXqPZC1tuUkEzXkeK3-7"><rect x="0" y="0" fill="#fff" width="505.556199185845" height="205.97674786619012"></rect><rect x="257.67016493815925" y="51.59096392851097" fill="#000" width="93.45703125" height="17.40345263042808" opacity="1"></rect></mask><g transform="translate(257.67016493815925 51.59096392851097) rotate(0 46.25625186750193 8.757888129085131)"><text x="46.728515625" y="14.004340788547596" font-family="Cascadia, Segoe UI Emoji" font-size="14.502877192023401px" fill="#1e1e1e" text-anchor="middle" style="white-space: pre;" direction="ltr" dominant-baseline="alphabetic">order query</text></g></svg>
