<svg version="1.1" xmlns="http://www.w3.org/2000/svg" viewBox="0 0 708.6929313707556 288.7480349759221" width="708.6929313707556" height="288.7480349759221">
  <!-- svg-source:excalidraw -->
  
  <defs>
    <style class="style-fonts">
      @font-face {
        font-family: "Virgil";
        src: url("https://excalidraw.com/Virgil.woff2");
      }
      @font-face {
        font-family: "Cascadia";
        src: url("https://excalidraw.com/Cascadia.woff2");
      }
      @font-face {
        font-family: "Assistant";
        src: url("https://excalidraw.com/Assistant-Regular.woff2");
      }
    </style>
    
  </defs>
  <rect x="0" y="0" width="708.6929313707556" height="288.7480349759221" fill="#ffffff"></rect><g stroke-linecap="round"><g transform="translate(650.4417811721644 35.78052153772933) rotate(0 -3.012296776485641 35.31214977495483)" fill-rule="evenodd"><path d="M-38.06 13.29 C-38.06 13.29, -38.06 13.29, -38.06 13.29 M-38.06 13.29 C-38.06 13.29, -38.06 13.29, -38.06 13.29 M-37.66 18.94 C-35.42 17.16, -33.33 15.36, -30.45 10.63 M-37.66 18.94 C-35.71 16.78, -33.13 13.55, -30.45 10.63 M-37.92 25.33 C-32.81 21.98, -30.2 18.1, -22.83 7.98 M-37.92 25.33 C-33.73 18.53, -27.78 13.7, -22.83 7.98 M-38.18 31.73 C-33.21 24.42, -26.74 18.14, -15.22 5.32 M-38.18 31.73 C-32.64 26.66, -27.12 19.48, -15.22 5.32 M-38.45 38.13 C-32.2 31.28, -22.79 19.76, -7.61 2.66 M-38.45 38.13 C-30.03 30.48, -24.01 21.45, -7.61 2.66 M-38.05 43.77 C-24.24 26.73, -12.89 13.39, 0 0 M-38.05 43.77 C-25.25 29.14, -12.39 15.45, 0 0 M-38.31 50.17 C-28.31 35.65, -17.25 23.73, 3.67 1.87 M-38.31 50.17 C-28.32 40.87, -19.69 29.81, 3.67 1.87 M-37.26 55.06 C-22.75 42.1, -12.69 26.51, 7.35 3.74 M-37.26 55.06 C-20.18 34.08, -0.81 13.97, 7.35 3.74 M-33.59 56.93 C-21.69 43.32, -7.47 26.54, 11.02 5.61 M-33.59 56.93 C-19.2 40.65, -4.3 22.6, 11.02 5.61 M-29.91 58.8 C-20.76 47.08, -8.71 34.07, 15.36 6.72 M-29.91 58.8 C-14.2 41.87, 2.61 23.24, 15.36 6.72 M-26.24 60.67 C-11.02 43.61, 4.29 22.85, 19.03 8.59 M-26.24 60.67 C-13.87 45.32, -0.46 31.33, 19.03 8.59 M-21.91 61.78 C-12.07 50.29, -3.3 39.34, 22.71 10.46 M-21.91 61.78 C-4.94 42.35, 11.53 22.95, 22.71 10.46 M-18.23 63.65 C-5.07 49.56, 10.77 31.94, 26.38 12.33 M-18.23 63.65 C-1.47 45.94, 13.64 26.94, 26.38 12.33 M-14.56 65.52 C-0.25 48.56, 13.85 35.25, 30.06 14.2 M-14.56 65.52 C-2.89 53.04, 7.1 41.47, 30.06 14.2 M-10.88 67.39 C0.09 54.74, 14.91 37.75, 32.42 17.58 M-10.88 67.39 C0.14 54.47, 11.89 42.31, 32.42 17.58 M-7.21 69.26 C0.5 60.08, 10.75 50.46, 32.16 23.98 M-7.21 69.26 C6.61 55.05, 17.73 40.35, 32.16 23.98 M-2.22 69.62 C5.18 61.6, 13.19 50.37, 31.89 30.38 M-2.22 69.62 C7.82 57.9, 16.83 47.78, 31.89 30.38 M6.7 65.45 C12.42 57.02, 17.96 49.31, 31.63 36.77 M6.7 65.45 C17.17 55.49, 26.32 44.24, 31.63 36.77 M15.63 61.28 C21.84 54.13, 24.32 48.08, 32.03 42.42 M15.63 61.28 C20.82 54.5, 26.72 48.2, 32.03 42.42 M24.55 57.12 C25.17 54.83, 26.95 52.85, 31.77 48.81 M24.55 57.12 C26.17 54.67, 28.76 52.81, 31.77 48.81" stroke="#b2f2bb" stroke-width="0.5" fill="none"></path><path d="M0 0 C-8.38 4.27, -19.57 5.02, -37.87 13.08 M0 0 C-14.14 5.07, -30.05 9.63, -37.87 13.08 M-37.87 13.08 C-38.29 27.56, -39.09 44.07, -38.32 54.13 M-37.87 13.08 C-37.95 27.46, -37.97 43.56, -38.32 54.13 M-38.32 54.13 C-28.41 56.51, -21.96 63.77, -4.62 70.62 M-38.32 54.13 C-24.46 60.55, -10.88 66.38, -4.62 70.62 M-4.62 70.62 C4.14 65.56, 15.93 61.15, 31.52 53.94 M-4.62 70.62 C6.42 64.54, 18.09 60.07, 31.52 53.94 M31.52 53.94 C33.27 40.44, 29.95 31.88, 32.29 14.5 M31.52 53.94 C30.87 45.68, 32.44 36.95, 32.29 14.5 M32.29 14.5 C18.77 11.01, 9.6 4.28, 0 0 M32.29 14.5 C24.41 11.63, 17.27 8.49, 0 0 M0 0 C0 0, 0 0, 0 0 M0 0 C0 0, 0 0, 0 0" stroke="#1e1e1e" stroke-width="1" fill="none"></path></g></g><mask></mask><g transform="translate(628.9975342526277 63.49246512257878) rotate(0 23.298693143033233 7.267965223351894)"><text x="0" y="10.186780057049944" font-family="Virgil, Segoe UI Emoji" font-size="11.62874435736295px" fill="#1e1e1e" text-anchor="start" style="white-space: pre;" direction="ltr" dominant-baseline="alphabetic">Payment</text></g><g stroke-linecap="round"><g transform="translate(665.5063827779636 171.14253751068782) rotate(0 -3.012296776485641 35.31214977495483)" fill-rule="evenodd"><path d="M-38.06 13.29 C-38.06 13.29, -38.06 13.29, -38.06 13.29 M-38.06 13.29 C-38.06 13.29, -38.06 13.29, -38.06 13.29 M-37.66 18.94 C-35.66 16.15, -34.66 14.26, -30.45 10.63 M-37.66 18.94 C-35.49 16.77, -33.06 14.39, -30.45 10.63 M-37.92 25.33 C-34 21.52, -30.11 16.03, -22.83 7.98 M-37.92 25.33 C-33.12 19.77, -29.51 15.44, -22.83 7.98 M-38.18 31.73 C-28.65 21.84, -24.15 15.14, -15.22 5.32 M-38.18 31.73 C-28.8 20.93, -21.76 12.35, -15.22 5.32 M-38.45 38.13 C-32.72 30.53, -23.54 23.09, -7.61 2.66 M-38.45 38.13 C-28.25 26.05, -17.28 13.83, -7.61 2.66 M-38.05 43.77 C-21.66 27.56, -9.81 10.29, 0 0 M-38.05 43.77 C-24.93 28.24, -11.99 12.55, 0 0 M-38.31 50.17 C-28.79 39.17, -20.37 26.39, 3.02 2.62 M-38.31 50.17 C-29.7 39.02, -19.39 28.14, 3.02 2.62 M-37.26 55.06 C-21.97 39.17, -10.51 23.51, 6.69 4.49 M-37.26 55.06 C-22 37.29, -7.78 21.36, 6.69 4.49 M-33.59 56.93 C-20.13 40.07, -6.28 23.32, 10.37 6.36 M-33.59 56.93 C-23.45 45.26, -13.99 34.99, 10.37 6.36 M-29.91 58.8 C-17.33 46.78, -7.78 35.17, 14.7 7.48 M-29.91 58.8 C-20.39 46.39, -10.07 35.22, 14.7 7.48 M-26.24 60.67 C-13.01 46.14, -1.59 31.64, 18.37 9.35 M-26.24 60.67 C-11.6 43.42, 4.25 26.32, 18.37 9.35 M-22.56 62.54 C-9.89 47.17, 6.46 28.12, 22.05 11.22 M-22.56 62.54 C-4.21 42.07, 13.04 21.22, 22.05 11.22 M-18.89 64.41 C-10.43 52.45, -1.02 43.18, 25.72 13.09 M-18.89 64.41 C-3.57 48.08, 10.12 29.34, 25.72 13.09 M-15.21 66.28 C-0.26 49.54, 12.65 33.63, 29.4 14.96 M-15.21 66.28 C-4.26 53.68, 5.56 41.16, 29.4 14.96 M-11.54 68.15 C1.09 54.86, 8.28 42.6, 33.73 16.07 M-11.54 68.15 C3.67 51.63, 17.08 34.56, 33.73 16.07 M-7.21 69.26 C7.37 51.02, 22.17 33.84, 33.47 22.47 M-7.21 69.26 C8.95 49.96, 24.34 31.6, 33.47 22.47 M-3.53 71.13 C7.28 58.21, 17.51 47.91, 33.86 28.11 M-3.53 71.13 C7.48 57.32, 20.12 45.07, 33.86 28.11 M5.39 66.96 C14.89 58.08, 22.3 48.97, 33.6 34.51 M5.39 66.96 C14.14 55.36, 25.26 44.71, 33.6 34.51 M13.66 63.55 C20.19 55.82, 27.17 45.82, 33.34 40.91 M13.66 63.55 C18.68 56.69, 24.9 50.93, 33.34 40.91 M22.58 59.38 C26.12 56.96, 28.79 53.4, 33.08 47.31 M22.58 59.38 C24.61 56.96, 26.4 54.54, 33.08 47.31" stroke="#b2f2bb" stroke-width="0.5" fill="none"></path><path d="M0 0 C-13.64 2.72, -26.09 11.16, -37.87 13.08 M0 0 C-10.3 3.99, -18.65 5.86, -37.87 13.08 M-37.87 13.08 C-36.81 27.05, -38.96 36.64, -38.32 54.13 M-37.87 13.08 C-37.92 27.73, -36.92 41.46, -38.32 54.13 M-38.32 54.13 C-28.43 56.33, -22.45 62.79, -4.62 70.62 M-38.32 54.13 C-29.9 58.13, -21.55 62.87, -4.62 70.62 M-4.62 70.62 C2.79 67.03, 12.19 64.5, 31.52 53.94 M-4.62 70.62 C2.08 68.27, 9.96 64.65, 31.52 53.94 M31.52 53.94 C33.81 42.96, 33.41 31.03, 32.29 14.5 M31.52 53.94 C32.42 44.91, 31.58 35.96, 32.29 14.5 M32.29 14.5 C23.21 12, 13.66 4.68, 0 0 M32.29 14.5 C21.43 9.53, 12.06 4.95, 0 0 M0 0 C0 0, 0 0, 0 0 M0 0 C0 0, 0 0, 0 0" stroke="#1e1e1e" stroke-width="1" fill="none"></path></g></g><mask></mask><g transform="translate(637.9043138427767 199.29431833434865) rotate(0 26.541561560576724 7.267965223351894)"><text x="0" y="10.186780057049944" font-family="Virgil, Segoe UI Emoji" font-size="11.62874435736295px" fill="#1e1e1e" text-anchor="start" style="white-space: pre;" direction="ltr" dominant-baseline="alphabetic">Inventory</text></g><g stroke-linecap="round" transform="translate(491.2848317039365 133.57227450603023) rotate(0 45.5238421443006 8.822444497070592)"><path d="M1.17 1.02 C1.17 1.02, 1.17 1.02, 1.17 1.02 M1.17 1.02 C1.17 1.02, 1.17 1.02, 1.17 1.02 M5.24 8.53 C5.97 7.29, 8.01 6.08, 9.18 4.01 M5.24 8.53 C6.38 7.1, 7.03 6.17, 9.18 4.01 M6.03 19.82 C10.53 14.37, 17.14 8.91, 19.81 3.97 M6.03 19.82 C9.13 14.62, 14.08 11.27, 19.81 3.97 M16.01 20.54 C22.24 14.56, 25.29 11.13, 30.44 3.94 M16.01 20.54 C20.35 16.76, 24.98 10.63, 30.44 3.94 M26.64 20.51 C28.52 16.57, 32.46 11.07, 41.07 3.9 M26.64 20.51 C31.35 16.21, 36.61 11.01, 41.07 3.9 M37.27 20.47 C42.66 15.23, 45.33 7.88, 51.7 3.87 M37.27 20.47 C41.36 14.86, 46.31 9.71, 51.7 3.87 M47.9 20.44 C53.85 14.59, 59.48 7.81, 61.67 4.59 M47.9 20.44 C53.39 15.03, 57.83 8.73, 61.67 4.59 M58.53 20.4 C63.5 13.37, 67.63 8.49, 72.3 4.55 M58.53 20.4 C63.52 15.92, 67.29 10.69, 72.3 4.55 M69.16 20.37 C71.07 18.66, 74.11 12.37, 82.93 4.52 M69.16 20.37 C72.33 15.53, 76.46 10.67, 82.93 4.52 M79.79 20.33 C81.35 17.54, 86.84 13.17, 93.56 4.48 M79.79 20.33 C84.98 14.22, 89.42 9.41, 93.56 4.48" stroke="#b2f2bb" stroke-width="1" fill="none"></path><path d="M4.41 0 C29.75 -1.07, 52.06 -2.01, 86.64 0 M4.41 0 C32.75 -0.93, 60.3 0.47, 86.64 0 M86.64 0 C89.45 1.04, 90.76 1.44, 91.05 4.41 M86.64 0 C87.66 1.68, 92.17 3.75, 91.05 4.41 M91.05 4.41 C91.36 8.54, 91.79 10.21, 91.05 13.23 M91.05 4.41 C90.74 6.38, 91.05 8.56, 91.05 13.23 M91.05 13.23 C90.64 17.21, 90.92 17.09, 86.64 17.64 M91.05 13.23 C91.65 14.75, 90.07 19.75, 86.64 17.64 M86.64 17.64 C66.24 19.37, 43.7 18.78, 4.41 17.64 M86.64 17.64 C67.16 17.69, 47.65 18.15, 4.41 17.64 M4.41 17.64 C0.29 16.96, -0.57 17.34, 0 13.23 M4.41 17.64 C1.07 19.43, 0.23 16.55, 0 13.23 M0 13.23 C-0.95 10.81, 0.41 8.4, 0 4.41 M0 13.23 C-0.17 11.55, -0.12 9.89, 0 4.41 M0 4.41 C-1.45 3.06, 0.81 -0.58, 4.41 0 M0 4.41 C-1.68 3.3, 3.41 -0.48, 4.41 0" stroke="#1e1e1e" stroke-width="2" fill="none"></path></g><g stroke-linecap="round" transform="translate(493.16696133366935 138.3070040512457) rotate(0 5.881632656266788 3.3231233482565585)"><path d="M0.17 1.47 C0.17 1.47, 0.17 1.47, 0.17 1.47 M0.17 1.47 C0.17 1.47, 0.17 1.47, 0.17 1.47 M6.2 6.72 C7.99 5.02, 9.81 2.74, 11.45 0.68 M6.2 6.72 C7.83 4.47, 9.8 2.7, 11.45 0.68" stroke="#b2f2bb" stroke-width="1" fill="none"></path><path d="M1.66 0 C4.53 -0.34, 7.51 0.22, 10.1 0 M1.66 0 C4.33 0.16, 7 0.14, 10.1 0 M10.1 0 C11.06 -0.02, 10.93 1.28, 11.76 1.66 M10.1 0 C11.77 1.14, 12.66 -0.22, 11.76 1.66 M11.76 1.66 C11.92 2.67, 11.63 3.84, 11.76 4.98 M11.76 1.66 C11.77 2.43, 11.74 3.12, 11.76 4.98 M11.76 4.98 C12.43 5.82, 11.47 6.03, 10.1 6.65 M11.76 4.98 C12.01 7.15, 10.73 6.66, 10.1 6.65 M10.1 6.65 C7.47 6.92, 4.78 6.53, 1.66 6.65 M10.1 6.65 C7.48 6.74, 4.82 6.57, 1.66 6.65 M1.66 6.65 C0.27 7.23, -0.17 6.87, 0 4.98 M1.66 6.65 C0.67 6.83, -0.73 7.09, 0 4.98 M0 4.98 C0.11 3.83, -0.14 2.86, 0 1.66 M0 4.98 C-0.02 4.19, -0.05 3.37, 0 1.66 M0 1.66 C-0.33 0.26, -0.18 0.79, 1.66 0 M0 1.66 C0.97 0.31, 1.34 0.65, 1.66 0" stroke="#1e1e1e" stroke-width="2" fill="none"></path></g><g stroke-linecap="round" transform="translate(509.92961440402945 138.33641400945908) rotate(0 5.881632656266788 3.293713390043422)"><path d="M0.16 1.46 C0.16 1.46, 0.16 1.46, 0.16 1.46 M0.16 1.46 C0.16 1.46, 0.16 1.46, 0.16 1.46 M6.2 6.71 C7.59 5.25, 8.63 4, 11.45 0.67 M6.2 6.71 C8.01 4.81, 9.8 2.69, 11.45 0.67" stroke="#b2f2bb" stroke-width="1" fill="none"></path><path d="M1.65 0 C4.03 0.24, 6.15 0.19, 10.12 0 M1.65 0 C3.5 0.08, 5.36 -0.03, 10.12 0 M10.12 0 C10.38 0.73, 12.25 1.54, 11.76 1.65 M10.12 0 C12.11 -0.77, 12.36 1.04, 11.76 1.65 M11.76 1.65 C11.64 2.78, 11.63 4.13, 11.76 4.94 M11.76 1.65 C11.75 2.73, 11.82 3.71, 11.76 4.94 M11.76 4.94 C12.02 5.42, 11.43 7.5, 10.12 6.59 M11.76 4.94 C11.28 6.05, 11.21 7.06, 10.12 6.59 M10.12 6.59 C6.57 6.46, 3.59 6.58, 1.65 6.59 M10.12 6.59 C7.45 6.53, 4.98 6.73, 1.65 6.59 M1.65 6.59 C0.38 7.36, 0.1 6.2, 0 4.94 M1.65 6.59 C-0.19 7.58, 0.11 4.9, 0 4.94 M0 4.94 C-0.17 4.01, -0.09 3.14, 0 1.65 M0 4.94 C-0.05 3.93, -0.02 2.76, 0 1.65 M0 1.65 C-0.73 1.34, 1.39 -0.21, 1.65 0 M0 1.65 C0.78 1.2, 0.32 1.09, 1.65 0" stroke="#1e1e1e" stroke-width="2" fill="none"></path></g><g stroke-linecap="round" transform="translate(524.92777767751 138.33641400945908) rotate(0 5.881632656266788 3.293713390043422)"><path d="M0.16 1.46 C0.16 1.46, 0.16 1.46, 0.16 1.46 M0.16 1.46 C0.16 1.46, 0.16 1.46, 0.16 1.46 M6.2 6.71 C8.18 4.53, 10.01 2.16, 11.45 0.67 M6.2 6.71 C7.32 5.47, 8.3 4.25, 11.45 0.67" stroke="#b2f2bb" stroke-width="1" fill="none"></path><path d="M1.65 0 C3.54 0.14, 4.95 -0.05, 10.12 0 M1.65 0 C4.67 -0.03, 7.58 0.13, 10.12 0 M10.12 0 C11.7 0.99, 12.54 -0.12, 11.76 1.65 M10.12 0 C11.81 0.49, 12.8 1.59, 11.76 1.65 M11.76 1.65 C11.61 2.23, 11.78 3.01, 11.76 4.94 M11.76 1.65 C11.82 2.87, 11.78 4.09, 11.76 4.94 M11.76 4.94 C11.98 6.96, 10.8 6.6, 10.12 6.59 M11.76 4.94 C11.76 6.51, 12.21 6.31, 10.12 6.59 M10.12 6.59 C7.12 6.54, 4.07 6.49, 1.65 6.59 M10.12 6.59 C7.13 6.7, 4.23 6.74, 1.65 6.59 M1.65 6.59 C0.65 6.75, -0.64 6.9, 0 4.94 M1.65 6.59 C0.66 5.45, -0.45 6.67, 0 4.94 M0 4.94 C-0.06 4.12, 0.06 3.4, 0 1.65 M0 4.94 C-0.02 3.72, -0.05 2.62, 0 1.65 M0 1.65 C0.84 0.34, 1.23 0.57, 1.65 0 M0 1.65 C-0.23 1.64, -0.49 0.57, 1.65 0" stroke="#1e1e1e" stroke-width="2" fill="none"></path></g><g stroke-linecap="round" transform="translate(541.1022674822436 138.33641400945908) rotate(0 5.881632656266788 3.293713390043422)"><path d="M0.16 1.46 C0.16 1.46, 0.16 1.46, 0.16 1.46 M0.16 1.46 C0.16 1.46, 0.16 1.46, 0.16 1.46 M6.2 6.71 C7.72 4.79, 8.59 3.56, 11.45 0.67 M6.2 6.71 C7.98 4.63, 9.98 2.54, 11.45 0.67" stroke="#b2f2bb" stroke-width="1" fill="none"></path><path d="M1.65 0 C4.26 -0.04, 7.8 -0.04, 10.12 0 M1.65 0 C4.45 0.16, 7.71 0.21, 10.12 0 M10.12 0 C11.99 -0.67, 12.28 0.97, 11.76 1.65 M10.12 0 C12.25 1.04, 10.64 -0.42, 11.76 1.65 M11.76 1.65 C11.78 2.36, 11.88 2.97, 11.76 4.94 M11.76 1.65 C11.8 2.75, 11.79 4.04, 11.76 4.94 M11.76 4.94 C11.34 6.05, 11.21 7, 10.12 6.59 M11.76 4.94 C12.76 5.76, 11.87 5.85, 10.12 6.59 M10.12 6.59 C7.88 6.5, 5.85 6.33, 1.65 6.59 M10.12 6.59 C7.83 6.78, 5.63 6.65, 1.65 6.59 M1.65 6.59 C-0.09 7.45, 0.09 5.05, 0 4.94 M1.65 6.59 C0.1 7.22, -0.86 4.94, 0 4.94 M0 4.94 C0.05 4.04, 0.11 3.13, 0 1.65 M0 4.94 C-0.05 3.76, 0.07 2.42, 0 1.65 M0 1.65 C0.68 1.12, 0.35 0.95, 1.65 0 M0 1.65 C-1.04 1.12, 1.2 0.41, 1.65 0" stroke="#1e1e1e" stroke-width="2" fill="none"></path></g><g stroke-linecap="round"><g transform="translate(409.2895164622485 104.94599278923351) rotate(0 -3.012296776485641 35.31214977495483)" fill-rule="evenodd"><path d="M-38.06 13.29 C-38.06 13.29, -38.06 13.29, -38.06 13.29 M-38.06 13.29 C-38.06 13.29, -38.06 13.29, -38.06 13.29 M-37.66 18.94 C-35.97 15.44, -32.42 13.09, -30.45 10.63 M-37.66 18.94 C-35.31 16.15, -31.79 12.86, -30.45 10.63 M-37.92 25.33 C-34.31 20.81, -28.51 15.71, -22.83 7.98 M-37.92 25.33 C-34.15 21.65, -30.99 16.82, -22.83 7.98 M-38.18 31.73 C-30.46 23.98, -27.27 15.99, -15.22 5.32 M-38.18 31.73 C-32.74 25.44, -28.04 18.89, -15.22 5.32 M-38.45 38.13 C-26.05 25.33, -15.36 12.73, -7.61 2.66 M-38.45 38.13 C-31.33 30.65, -22.69 21.28, -7.61 2.66 M-38.05 43.77 C-31.57 35.28, -22.94 24.69, 0 0 M-38.05 43.77 C-25.6 29.86, -14.34 16.18, 0 0 M-38.31 50.17 C-29.4 41.67, -19.3 29.51, 3.02 2.62 M-38.31 50.17 C-28.36 39.67, -18.64 27.52, 3.02 2.62 M-37.26 55.06 C-25.49 40.51, -12.81 28.8, 6.69 4.49 M-37.26 55.06 C-27.1 44.28, -17.91 32.91, 6.69 4.49 M-33.59 56.93 C-16.77 41.19, -2.18 22.78, 10.37 6.36 M-33.59 56.93 C-23.64 45.1, -11.6 30.82, 10.37 6.36 M-29.91 58.8 C-14.7 40.71, 1.04 23.84, 14.7 7.48 M-29.91 58.8 C-18.7 47.5, -6.96 33.57, 14.7 7.48 M-26.24 60.67 C-10.2 45.15, 3.18 25.28, 18.37 9.35 M-26.24 60.67 C-8 40.49, 8.95 21.45, 18.37 9.35 M-22.56 62.54 C-5.57 41.24, 11.11 23.06, 22.05 11.22 M-22.56 62.54 C-5.68 43.12, 10.94 24.63, 22.05 11.22 M-18.89 64.41 C-5.1 46.59, 13.13 27.85, 25.72 13.09 M-18.89 64.41 C-5.02 48.78, 7 33.71, 25.72 13.09 M-15.21 66.28 C0.51 47.74, 18.02 28.68, 29.4 14.96 M-15.21 66.28 C-3 49.75, 11.13 35.11, 29.4 14.96 M-11.54 68.15 C-0.98 56.87, 10.68 46.62, 33.73 16.07 M-11.54 68.15 C-0.61 54.38, 12.45 40.99, 33.73 16.07 M-7.21 69.26 C3.36 55.83, 18.09 42.34, 33.47 22.47 M-7.21 69.26 C1.91 58.27, 13.06 46.47, 33.47 22.47 M-3.53 71.13 C5.86 63.81, 12.94 53.3, 33.86 28.11 M-3.53 71.13 C10.57 55.23, 25.41 39.07, 33.86 28.11 M5.39 66.96 C10.7 58.2, 19.87 50.06, 33.6 34.51 M5.39 66.96 C13.53 56.56, 23.6 46.54, 33.6 34.51 M13.66 63.55 C17.7 56.7, 22.69 51.72, 33.34 40.91 M13.66 63.55 C20.47 55.16, 27.48 48.9, 33.34 40.91 M22.58 59.38 C25.88 53.83, 29.38 50.28, 33.08 47.31 M22.58 59.38 C26.41 54.31, 30.48 51.24, 33.08 47.31" stroke="#b2f2bb" stroke-width="0.5" fill="none"></path><path d="M0 0 C-11.72 5.3, -21.34 8.9, -37.87 13.08 M0 0 C-13.82 4.8, -26.79 8.73, -37.87 13.08 M-37.87 13.08 C-39.38 22.13, -37 32.92, -38.32 54.13 M-37.87 13.08 C-38.48 27.55, -37.12 42.96, -38.32 54.13 M-38.32 54.13 C-29.38 58.29, -21.65 64.57, -4.62 70.62 M-38.32 54.13 C-30.33 58.39, -22.01 61.59, -4.62 70.62 M-4.62 70.62 C5.13 67.21, 15.49 63.5, 31.52 53.94 M-4.62 70.62 C8.05 64.94, 20.05 58.08, 31.52 53.94 M31.52 53.94 C29.72 43.55, 31.05 29.8, 32.29 14.5 M31.52 53.94 C31.77 46.93, 31.85 38.01, 32.29 14.5 M32.29 14.5 C20.58 10.86, 12.71 6.4, 0 0 M32.29 14.5 C25.39 11.01, 16.87 7.48, 0 0 M0 0 C0 0, 0 0, 0 0 M0 0 C0 0, 0 0, 0 0" stroke="#1e1e1e" stroke-width="1" fill="none"></path></g></g><mask></mask><g transform="translate(387.84526954271206 132.6579363740825) rotate(0 18.867717061099086 7.267965223351894)"><text x="0" y="10.186780057049944" font-family="Virgil, Segoe UI Emoji" font-size="11.62874435736295px" fill="#1e1e1e" text-anchor="start" style="white-space: pre;" direction="ltr" dominant-baseline="alphabetic">Orders</text></g><g stroke-linecap="round"><g transform="translate(386.68141471126165 192.67712098522816) rotate(0 18.600685161498177 20.201277104054043)" fill-rule="evenodd"><path d="M0 0 C0 0, 0 0, 0 0 M0 0 C0 0, 0 0, 0 0 M-0.26 6.4 C2.53 4.68, 5.61 1.32, 7.61 -2.66 M-0.26 6.4 C2.28 3.88, 3.69 1.93, 7.61 -2.66 M0.13 12.04 C3.54 8.02, 8.84 2.69, 13.25 -3.05 M0.13 12.04 C5.61 5.9, 10.19 2.12, 13.25 -3.05 M-0.13 18.44 C7.29 11.61, 14.15 3.36, 18.9 -3.45 M-0.13 18.44 C5.34 12.93, 9.05 8.07, 18.9 -3.45 M0.27 24.08 C8.89 13.81, 18.48 4.8, 23.88 -3.09 M0.27 24.08 C4.63 17.84, 11.12 13.43, 23.88 -3.09 M0 30.48 C8.94 17.65, 18.94 8.51, 28.22 -1.97 M0 30.48 C8.05 21.03, 16.17 11.15, 28.22 -1.97 M-0.26 36.88 C7.9 28.56, 13.95 19.24, 33.86 -2.37 M-0.26 36.88 C11.38 22.04, 23.76 8.38, 33.86 -2.37 M1.45 41.01 C11.57 29.03, 18.78 19.51, 37.53 -0.5 M1.45 41.01 C15.36 25.35, 28.99 7.69, 37.53 -0.5 M5.12 42.88 C10.93 35.71, 20.33 24.16, 37.27 5.9 M5.12 42.88 C17.22 28.17, 28.57 14.34, 37.27 5.9 M9.46 44 C20.52 32.02, 29.02 22.32, 37.01 12.3 M9.46 44 C17.94 34.05, 25.61 25.4, 37.01 12.3 M14.44 44.36 C20.14 36.19, 27.6 27.41, 36.75 18.7 M14.44 44.36 C20.84 36.8, 25.56 31.13, 36.75 18.7 M20.09 43.96 C28.2 36.36, 32.27 27.62, 37.14 24.34 M20.09 43.96 C23.05 40.57, 26.83 34.82, 37.14 24.34 M25.73 43.57 C29.26 38.37, 34.22 35.18, 36.88 30.74 M25.73 43.57 C28.6 40.55, 32.42 37.3, 36.88 30.74 M32.03 42.42 C33.33 40.98, 35.87 38.83, 36.62 37.13 M32.03 42.42 C33.64 40.7, 34.78 39.32, 36.62 37.13" stroke="#b2f2bb" stroke-width="0.5" fill="none"></path><path d="M-1.14 0.2 C-1.04 6.23, -0.39 28.97, -0.2 35.67 C0 42.38, -0.41 39.49, 0.02 40.44 C0.45 41.38, 1.15 40.6, 2.39 41.33 C3.63 42.06, 4.61 44.36, 7.46 44.82 C10.32 45.28, 15.79 44.37, 19.54 44.11 C23.28 43.85, 27.08 43.68, 29.94 43.24 C32.8 42.8, 35.62 41.96, 36.72 41.46 C37.82 40.96, 36.28 40.86, 36.53 40.24 C36.77 39.62, 37.96 44.07, 38.2 37.75 C38.43 31.44, 38.17 8.66, 37.93 2.33 C37.69 -3.99, 37.46 0.5, 36.78 -0.22 C36.1 -0.93, 35 -1.49, 33.86 -1.96 C32.71 -2.43, 32.67 -2.78, 29.91 -3.03 C27.16 -3.28, 21.03 -3.56, 17.34 -3.46 C13.65 -3.35, 10.54 -2.59, 7.79 -2.4 C5.04 -2.2, 2.28 -2.66, 0.83 -2.3 C-0.62 -1.94, -0.58 -0.73, -0.91 -0.24 C-1.23 0.25, -1.26 0.61, -1.14 0.63 M0.46 -0.74 C0.44 5.48, -1.11 29.79, -1.31 36.87 C-1.51 43.95, -1.43 40.89, -0.73 41.74 C-0.03 42.59, 1.25 41.9, 2.89 41.96 C4.52 42.02, 6.08 41.93, 9.07 42.1 C12.05 42.28, 17.26 43.06, 20.79 43 C24.32 42.95, 27.72 42.1, 30.24 41.77 C32.76 41.43, 34.59 41.48, 35.91 41 C37.24 40.52, 38.22 39.43, 38.21 38.9 C38.19 38.36, 35.74 43.77, 35.82 37.78 C35.89 31.79, 38.76 9.36, 38.67 2.95 C38.58 -3.46, 36.11 0.28, 35.28 -0.68 C34.46 -1.63, 34.7 -2.37, 33.73 -2.8 C32.75 -3.23, 32.16 -3.09, 29.42 -3.26 C26.69 -3.43, 20.83 -3.64, 17.31 -3.82 C13.78 -4, 10.69 -4.64, 8.28 -4.32 C5.87 -4.01, 4.05 -2.67, 2.84 -1.95 C1.62 -1.23, 1.39 -0.52, 1 0.01 C0.62 0.54, 0.67 0.94, 0.53 1.22" stroke="#1e1e1e" stroke-width="1" fill="none"></path></g></g><mask></mask><g stroke-linecap="round"><g transform="translate(386.97159229724167 220.24009807004404) rotate(0 18.64013620393615 1.8780494858042402)"><path d="M-0.15 -0.3 C0.11 -0.04, 0.06 1.15, 0.99 1.64 C1.92 2.12, 3.88 2.16, 5.43 2.61 C6.99 3.06, 7.99 4.14, 10.34 4.35 C12.7 4.57, 16.32 4.06, 19.55 3.89 C22.77 3.71, 26.92 3.72, 29.69 3.3 C32.47 2.88, 34.98 1.94, 36.2 1.37 C37.42 0.79, 36.76 0.03, 37.01 -0.16 M0.78 0.73 C1.01 1.08, -0.17 1.95, 0.56 2.33 C1.3 2.71, 3.59 2.81, 5.2 3 C6.8 3.18, 7.65 3.27, 10.19 3.44 C12.74 3.61, 17.14 4.15, 20.47 4.04 C23.81 3.93, 27.5 3.33, 30.18 2.77 C32.87 2.22, 35.27 1.21, 36.59 0.7 C37.9 0.19, 37.97 -0.15, 38.07 -0.29" stroke="#1e1e1e" stroke-width="1" fill="none"></path></g></g><mask></mask><g stroke-linecap="round"><g transform="translate(386.50985676167267 206.27746402735738) rotate(0 18.64013620393615 1.8780494858042402)"><path d="M0.01 -0.01 C0.23 0.24, 0.42 0.64, 1.2 1.23 C1.98 1.82, 3.12 3.09, 4.71 3.52 C6.29 3.95, 8.27 3.76, 10.72 3.81 C13.16 3.87, 16.14 3.92, 19.39 3.84 C22.63 3.75, 27.45 3.7, 30.18 3.31 C32.91 2.92, 34.48 2.02, 35.74 1.51 C37 0.99, 37.41 0.57, 37.73 0.23 M-0.65 -0.49 C-0.47 -0.16, -0.19 1.18, 0.88 1.71 C1.95 2.24, 4.11 2.27, 5.76 2.7 C7.41 3.13, 8.35 4.08, 10.76 4.29 C13.17 4.5, 17.15 4.21, 20.23 3.96 C23.31 3.71, 26.64 3.29, 29.26 2.78 C31.87 2.28, 34.52 1.33, 35.89 0.91 C37.27 0.5, 37.29 0.38, 37.49 0.29" stroke="#1e1e1e" stroke-width="1" fill="none"></path></g></g><mask></mask><g stroke-linecap="round" transform="translate(386.0366885975629 189.2894033487155) rotate(0 18.50138435413686 3.7417657939945457)"><path d="M0.09 4.05 C0.09 4.05, 0.09 4.05, 0.09 4.05 M0.09 4.05 C0.09 4.05, 0.09 4.05, 0.09 4.05 M3.76 5.92 C5.69 3.77, 7.3 2.45, 8.35 0.64 M3.76 5.92 C5.39 4.18, 6.98 2.32, 8.35 0.64 M8.09 7.03 C9.89 5.36, 10.89 3.94, 14 0.24 M8.09 7.03 C10.26 4.5, 12.54 2.1, 14 0.24 M13.08 7.39 C14.17 5.52, 16.3 4.61, 19.64 -0.15 M13.08 7.39 C15.29 4.53, 17.64 2.13, 19.64 -0.15 M18.07 7.75 C19.8 5.43, 21.68 3, 24.63 0.21 M18.07 7.75 C19.59 6.14, 20.85 4.39, 24.63 0.21 M23.05 8.11 C24.96 5.3, 27.19 2.99, 28.96 1.32 M23.05 8.11 C24.68 6.2, 25.98 4.57, 28.96 1.32 M29.35 6.96 C31.04 5.17, 32.65 2.63, 33.94 1.68 M29.35 6.96 C30.28 5.85, 31.53 4.35, 33.94 1.68 M36.31 5.06 C36.31 5.06, 36.31 5.06, 36.31 5.06 M36.31 5.06 C36.31 5.06, 36.31 5.06, 36.31 5.06" stroke="#b2f2bb" stroke-width="0.5" fill="none"></path><path d="M14.19 -0.17 C17.71 -0.34, 23.18 0.21, 26.71 0.57 C30.25 0.94, 33.81 1.24, 35.4 2.02 C36.99 2.79, 37.31 4.36, 36.25 5.22 C35.19 6.09, 32.41 6.84, 29.04 7.2 C25.67 7.56, 20.05 7.59, 16.05 7.39 C12.04 7.2, 7.68 6.57, 5.01 6.02 C2.34 5.48, 0.25 4.93, 0.02 4.13 C-0.21 3.33, 1.17 1.97, 3.64 1.22 C6.11 0.47, 12.84 -0.12, 14.83 -0.35 C16.82 -0.58, 15.57 -0.25, 15.56 -0.18 M17.52 -0.06 C21.31 -0.27, 26.09 0.01, 29.26 0.42 C32.43 0.82, 35.57 1.47, 36.56 2.38 C37.54 3.29, 37.11 5.14, 35.18 5.89 C33.24 6.63, 28.77 6.58, 24.94 6.84 C21.12 7.11, 15.84 7.68, 12.23 7.47 C8.62 7.25, 5.35 6.31, 3.29 5.54 C1.22 4.77, -0.57 3.57, -0.17 2.84 C0.24 2.11, 2.83 1.69, 5.71 1.17 C8.59 0.66, 15.12 -0.2, 17.14 -0.26 C19.15 -0.31, 17.61 0.64, 17.78 0.83" stroke="#1e1e1e" stroke-width="1" fill="none"></path></g><g stroke-linecap="round" transform="translate(416.22534302649655 199.66436066575397) rotate(0 2.71155522814405 2.942867490463186)"><path d="M0.8 0.7 C0.8 0.7, 0.8 0.7, 0.8 0.7 M0.8 0.7 C0.8 0.7, 0.8 0.7, 0.8 0.7 M1.85 5.58 C3.01 4.54, 3.99 3.3, 5.13 1.81 M1.85 5.58 C3.22 4.07, 4.42 2.57, 5.13 1.81" stroke="#b2f2bb" stroke-width="0.5" fill="none"></path><path d="M2.53 0.12 C3.08 0.06, 3.83 0.04, 4.3 0.45 C4.78 0.86, 5.2 1.9, 5.38 2.58 C5.56 3.26, 5.67 4.02, 5.37 4.53 C5.06 5.04, 4.13 5.45, 3.55 5.62 C2.96 5.79, 2.39 5.72, 1.87 5.56 C1.35 5.39, 0.72 5.16, 0.41 4.63 C0.1 4.1, -0.09 3.05, 0 2.36 C0.1 1.67, 0.51 0.91, 0.99 0.48 C1.47 0.05, 2.65 -0.1, 2.9 -0.21 C3.15 -0.32, 2.53 -0.22, 2.48 -0.19 M2.64 -0.22 C3.2 -0.26, 4.14 -0.03, 4.63 0.5 C5.12 1.03, 5.6 2.32, 5.58 2.97 C5.55 3.62, 4.93 3.91, 4.48 4.4 C4.04 4.88, 3.36 5.71, 2.91 5.89 C2.47 6.07, 2.29 5.79, 1.81 5.46 C1.33 5.13, 0.35 4.43, 0.04 3.9 C-0.28 3.38, -0.21 2.89, -0.08 2.3 C0.05 1.71, 0.29 0.66, 0.81 0.36 C1.33 0.06, 2.62 0.5, 3.02 0.51 C3.43 0.52, 3.28 0.5, 3.23 0.4" stroke="#1e1e1e" stroke-width="1" fill="none"></path></g><g stroke-linecap="round" transform="translate(416.22534302649655 212.5835378813149) rotate(0 2.71155522814405 2.942867490463186)"><path d="M0.92 0.8 C0.92 0.8, 0.92 0.8, 0.92 0.8 M0.92 0.8 C0.92 0.8, 0.92 0.8, 0.92 0.8 M1.97 5.69 C2.77 4.93, 3.62 4.06, 5.25 1.91 M1.97 5.69 C3.03 4.41, 4.23 3.2, 5.25 1.91" stroke="#b2f2bb" stroke-width="0.5" fill="none"></path><path d="M2.4 -0.15 C2.97 -0.22, 3.75 0.37, 4.28 0.8 C4.81 1.22, 5.47 1.84, 5.58 2.39 C5.7 2.95, 5.26 3.63, 4.97 4.14 C4.68 4.64, 4.34 5.12, 3.84 5.42 C3.35 5.71, 2.57 6.06, 2.01 5.9 C1.45 5.74, 0.79 5.03, 0.48 4.45 C0.16 3.86, 0.02 3.04, 0.11 2.41 C0.21 1.77, 0.68 1.1, 1.04 0.66 C1.41 0.22, 2.06 -0.09, 2.31 -0.24 C2.55 -0.39, 2.44 -0.33, 2.5 -0.25 M2.67 -0.36 C3.31 -0.32, 4.21 0.52, 4.59 0.94 C4.96 1.36, 4.93 1.57, 4.92 2.16 C4.92 2.74, 4.75 3.91, 4.58 4.48 C4.41 5.05, 4.42 5.39, 3.92 5.55 C3.42 5.71, 2.23 5.6, 1.61 5.44 C0.99 5.28, 0.53 5.1, 0.21 4.57 C-0.11 4.05, -0.44 2.86, -0.31 2.3 C-0.18 1.74, 0.47 1.54, 1.01 1.21 C1.56 0.89, 2.71 0.59, 2.96 0.33 C3.21 0.07, 2.47 -0.39, 2.5 -0.34" stroke="#1e1e1e" stroke-width="1" fill="none"></path></g><g stroke-linecap="round" transform="translate(416.22534302649655 226.62496693415733) rotate(0 2.71155522814405 2.942867490463186)"><path d="M0.67 0.58 C0.67 0.58, 0.67 0.58, 0.67 0.58 M0.67 0.58 C0.67 0.58, 0.67 0.58, 0.67 0.58 M1.72 5.47 C3.16 4.09, 4.34 2.65, 5 1.7 M1.72 5.47 C2.76 4.42, 3.67 3.22, 5 1.7" stroke="#b2f2bb" stroke-width="0.5" fill="none"></path><path d="M2.89 0.28 C3.5 0.34, 4.44 0.64, 4.83 1.02 C5.21 1.4, 5.18 2, 5.21 2.56 C5.23 3.12, 5.25 3.82, 4.96 4.37 C4.67 4.92, 4.04 5.69, 3.48 5.88 C2.92 6.06, 2.13 5.77, 1.62 5.45 C1.1 5.14, 0.61 4.54, 0.39 3.98 C0.18 3.41, 0.25 2.66, 0.33 2.05 C0.41 1.45, 0.46 0.73, 0.88 0.34 C1.3 -0.06, 2.48 -0.26, 2.85 -0.31 C3.22 -0.36, 3.12 -0.06, 3.12 0.01 M2.67 0.29 C3.14 0.23, 3.48 -0.02, 3.84 0.31 C4.2 0.65, 4.58 1.68, 4.84 2.31 C5.1 2.94, 5.61 3.56, 5.4 4.07 C5.2 4.57, 4.22 5.03, 3.62 5.34 C3.02 5.65, 2.39 6.05, 1.81 5.9 C1.23 5.75, 0.42 4.89, 0.13 4.43 C-0.16 3.98, -0.08 3.7, 0.09 3.16 C0.25 2.61, 0.73 1.76, 1.1 1.17 C1.47 0.58, 2.02 -0.26, 2.32 -0.39 C2.63 -0.52, 2.9 0.31, 2.92 0.39" stroke="#1e1e1e" stroke-width="1" fill="none"></path></g><g stroke-linecap="round"><g transform="translate(445.8496229239216 141.80461982628094) rotate(0 18.319181665748033 -0.22342530381706638)"><path d="M0.22 -0.45 C6.28 -0.59, 30.76 -0.7, 36.83 -0.79 M-0.33 0.5 C5.63 0.43, 30.4 -0.08, 36.5 -0.27" stroke="#1e1e1e" stroke-width="2" fill="none"></path></g><g transform="translate(445.8496229239216 141.80461982628094) rotate(0 18.319181665748033 -0.22342530381706638)"><path d="M19.44 6.43 C25.32 4.11, 32.13 1.17, 36.5 -0.27 M19.44 6.43 C22.57 5.03, 26.81 4.08, 36.5 -0.27" stroke="#1e1e1e" stroke-width="2" fill="none"></path></g><g transform="translate(445.8496229239216 141.80461982628094) rotate(0 18.319181665748033 -0.22342530381706638)"><path d="M19.13 -6.1 C25.13 -3.55, 32.06 -1.62, 36.5 -0.27 M19.13 -6.1 C22.36 -4.92, 26.67 -3.3, 36.5 -0.27" stroke="#1e1e1e" stroke-width="2" fill="none"></path></g></g><mask></mask><g stroke-linecap="round"><g transform="translate(576.1480372358565 124.32607828079472) rotate(0 16.714075144917842 -12.535554261349034)"><path d="M-0.27 -0.13 C5.63 -4.38, 28.59 -21.7, 34.35 -25.8 M1.79 -1.24 C7.7 -5.33, 28.52 -20.98, 33.88 -24.65" stroke="#1e1e1e" stroke-width="2" fill="none"></path></g><g transform="translate(576.1480372358565 124.32607828079472) rotate(0 16.714075144917842 -12.535554261349034)"><path d="M22.14 -7.37 C24.49 -9.53, 26 -13.33, 33.88 -24.65 M22.14 -7.37 C25.45 -13.97, 30.07 -19.33, 33.88 -24.65" stroke="#1e1e1e" stroke-width="2" fill="none"></path></g><g transform="translate(576.1480372358565 124.32607828079472) rotate(0 16.714075144917842 -12.535554261349034)"><path d="M13.78 -18.96 C17.9 -18.61, 21.21 -19.92, 33.88 -24.65 M13.78 -18.96 C19.71 -21.8, 27.06 -23.37, 33.88 -24.65" stroke="#1e1e1e" stroke-width="2" fill="none"></path></g></g><mask></mask><g stroke-linecap="round"><g transform="translate(579.0070296242759 163.25224439191834) rotate(0 14.734774012836283 14.51484700407309)"><path d="M0.94 0.94 C5.85 5.95, 25.65 25.41, 30.39 29.94 M-0.02 0.39 C4.73 5.08, 25.15 23.54, 29.92 28.3" stroke="#1e1e1e" stroke-width="2" fill="none"></path></g><g transform="translate(579.0070296242759 163.25224439191834) rotate(0 14.734774012836283 14.51484700407309)"><path d="M10.93 20.1 C19.64 24.57, 26.75 26.01, 29.92 28.3 M10.93 20.1 C15.99 21.19, 19.88 23.31, 29.92 28.3" stroke="#1e1e1e" stroke-width="2" fill="none"></path></g><g transform="translate(579.0070296242759 163.25224439191834) rotate(0 14.734774012836283 14.51484700407309)"><path d="M20.64 9.81 C25.69 18.23, 29.14 23.55, 29.92 28.3 M20.64 9.81 C23.54 13.29, 25.25 17.71, 29.92 28.3" stroke="#1e1e1e" stroke-width="2" fill="none"></path></g></g><mask></mask><g stroke-linecap="round" transform="translate(432.78564000626335 121.56477467654622) rotate(0 19.530401669697994 11.6833618397593)"><path d="M5.84 0 C15.21 -0.39, 22.17 -1.63, 33.22 0 M5.84 0 C12.69 0.91, 21.11 0.52, 33.22 0 M33.22 0 C36.98 -0.63, 37.13 3.39, 39.06 5.84 M33.22 0 C38.19 -0.54, 39.71 2.73, 39.06 5.84 M39.06 5.84 C39.27 10.07, 39.16 14.31, 39.06 17.53 M39.06 5.84 C39.17 9.55, 38.73 13.3, 39.06 17.53 M39.06 17.53 C38.6 21.78, 35.89 23.86, 33.22 23.37 M39.06 17.53 C38.8 19.5, 34.89 23.3, 33.22 23.37 M33.22 23.37 C22.98 21.93, 17.72 22.98, 5.84 23.37 M33.22 23.37 C25.05 23.83, 15.98 23.01, 5.84 23.37 M5.84 23.37 C0.98 23, -1.09 22.48, 0 17.53 M5.84 23.37 C2.28 23.44, 1.77 21.78, 0 17.53 M0 17.53 C-1.03 16.29, 0.59 12.07, 0 5.84 M0 17.53 C0.46 14.7, -0.25 11.6, 0 5.84 M0 5.84 C0.39 3.1, 1.19 -0.67, 5.84 0 M0 5.84 C-1.02 4.24, 2.58 1.24, 5.84 0" stroke="#1e1e1e" stroke-width="2" fill="none"></path></g><g stroke-linecap="round"><g transform="translate(434.1806601443687 122.26229139761153) rotate(0 17.08909314597014 5.580113812483432)"><path d="M0.49 -0.41 C4.02 1.57, 15.02 11.49, 20.65 11.52 C26.28 11.55, 32.01 1.68, 34.29 -0.23 M0.08 0.56 C3.84 2.43, 16.09 10.79, 21.74 10.74 C27.39 10.69, 31.88 1.94, 33.99 0.25" stroke="#e03131" stroke-width="2" fill="none"></path></g></g><mask></mask><g stroke-linecap="round" transform="translate(585.1242317136089 65.56713148857534) rotate(0 19.530401669697994 11.6833618397593)"><path d="M5.84 0 C14.09 -1.59, 19.74 -0.82, 33.22 0 M5.84 0 C11.38 0.46, 17.38 -0.64, 33.22 0 M33.22 0 C35.37 -0.17, 37.26 1.25, 39.06 5.84 M33.22 0 C36.29 -2.11, 38.34 -0.03, 39.06 5.84 M39.06 5.84 C39.2 10.31, 38.86 14.31, 39.06 17.53 M39.06 5.84 C38.84 8.9, 39.21 11.18, 39.06 17.53 M39.06 17.53 C38.88 19.87, 39.07 21.55, 33.22 23.37 M39.06 17.53 C37.64 20.01, 34.98 23.89, 33.22 23.37 M33.22 23.37 C24.77 22.73, 19.69 23.29, 5.84 23.37 M33.22 23.37 C24.36 22.98, 14.2 22.66, 5.84 23.37 M5.84 23.37 C0.09 23.15, -0.94 19.52, 0 17.53 M5.84 23.37 C1.59 21.12, 1.58 22.37, 0 17.53 M0 17.53 C0.83 14.05, -1.09 12.41, 0 5.84 M0 17.53 C0.47 14.69, 0.48 11.46, 0 5.84 M0 5.84 C-1.88 1.6, 0.69 -0.52, 5.84 0 M0 5.84 C0.88 4.09, 0.03 -0.41, 5.84 0" stroke="#1e1e1e" stroke-width="2" fill="none"></path></g><g stroke-linecap="round"><g transform="translate(586.5192518517142 66.26464820964065) rotate(0 17.08909314597014 5.580113812483432)"><path d="M-0.4 0.16 C3.01 1.86, 15.02 10.67, 20.73 10.68 C26.45 10.68, 31.66 1.93, 33.88 0.2 M0.39 -0.24 C3.7 1.48, 14.71 11.21, 20.2 11.13 C25.7 11.04, 31.07 1.21, 33.38 -0.76" stroke="#e03131" stroke-width="2" fill="none"></path></g></g><mask></mask><g stroke-linecap="round" transform="translate(600.4088358323897 197.85018611756277) rotate(0 19.530401669697937 11.6833618397593)"><path d="M5.84 0 C16.02 0.55, 27.45 -1.34, 33.22 0 M5.84 0 C10.92 -0.52, 17.86 0.04, 33.22 0 M33.22 0 C38.51 -1.86, 37.18 1.6, 39.06 5.84 M33.22 0 C35.67 -0.59, 39.94 4.09, 39.06 5.84 M39.06 5.84 C40.18 7.44, 40.08 12.06, 39.06 17.53 M39.06 5.84 C39.56 8.85, 38.79 12.35, 39.06 17.53 M39.06 17.53 C40.63 21.43, 35.36 23.96, 33.22 23.37 M39.06 17.53 C39.31 20.37, 36 21.17, 33.22 23.37 M33.22 23.37 C21.81 23.88, 15.56 25.17, 5.84 23.37 M33.22 23.37 C23.4 24.08, 12.66 23.66, 5.84 23.37 M5.84 23.37 C0.87 23.72, -1.24 23.13, 0 17.53 M5.84 23.37 C2.87 23.2, -2.24 19.59, 0 17.53 M0 17.53 C0.32 13.13, -0.05 10.54, 0 5.84 M0 17.53 C-0.22 15.4, -0.21 12.72, 0 5.84 M0 5.84 C-0.79 2.08, 3.71 0.56, 5.84 0 M0 5.84 C0.09 2.9, 1.91 0.21, 5.84 0" stroke="#1e1e1e" stroke-width="2" fill="none"></path></g><g stroke-linecap="round"><g transform="translate(601.8038559704951 198.54770283862854) rotate(0 17.08909314597014 5.580113812483432)"><path d="M0.09 0.39 C3.58 2.16, 14.81 10.77, 20.5 10.65 C26.18 10.52, 31.96 1.49, 34.19 -0.35 M-0.53 0.12 C3.17 1.94, 15.78 11.09, 21.51 11.08 C27.24 11.08, 31.79 1.93, 33.84 0.07" stroke="#e03131" stroke-width="2" fill="none"></path></g></g><mask></mask><g stroke-linecap="round"><g transform="translate(404.19576645821354 175.2257399685791) rotate(0 -0.1923781711519723 6.7584924199256875)"><path d="M-0.48 -0.33 C-0.51 1.82, -0.19 10.78, -0.24 13.1 M0.27 0.69 C0.19 2.89, -0.6 11.33, -0.59 13.59" stroke="#1e1e1e" stroke-width="2" fill="none"></path></g><g transform="translate(404.19576645821354 175.2257399685791) rotate(0 -0.1923781711519723 6.7584924199256875)"><path d="M-2.59 7.13 C-2.2 9.1, -1.68 10.63, -0.59 13.59 M-2.59 7.13 C-1.97 9.33, -1.3 11.18, -0.59 13.59" stroke="#1e1e1e" stroke-width="2" fill="none"></path></g><g transform="translate(404.19576645821354 175.2257399685791) rotate(0 -0.1923781711519723 6.7584924199256875)"><path d="M2.03 7.36 C1.08 9.24, 0.27 10.7, -0.59 13.59 M2.03 7.36 C1.19 9.49, 0.41 11.26, -0.59 13.59" stroke="#1e1e1e" stroke-width="2" fill="none"></path></g></g><mask></mask><g transform="translate(371.097502486844 21.940113222686705) rotate(0 87.61727597720306 17.31885554296241)"><text x="0" y="24.274107929015976" font-family="Virgil, Segoe UI Emoji" font-size="27.7101688687397px" fill="#1e1e1e" text-anchor="start" style="white-space: pre;" direction="ltr" dominant-baseline="alphabetic">Thick Events</text></g><g stroke-linecap="round"><g transform="translate(290.418240723467 10) rotate(0 -3.0190935738371536 35.3918263619164)" fill-rule="evenodd"><path d="M-38.09 13.26 C-38.09 13.26, -38.09 13.26, -38.09 13.26 M-38.09 13.26 C-38.09 13.26, -38.09 13.26, -38.09 13.26 M-38.35 19.66 C-34.4 16.49, -31.17 11.96, -30.48 10.61 M-38.35 19.66 C-37.01 17.45, -34.95 15.81, -30.48 10.61 M-37.96 25.3 C-34.14 18.35, -27.74 11.9, -22.87 7.95 M-37.96 25.3 C-32.3 18.88, -26.82 11.55, -22.87 7.95 M-38.22 31.7 C-31.67 23.19, -25.36 16.05, -15.26 5.29 M-38.22 31.7 C-31.87 24.62, -25.21 15.63, -15.26 5.29 M-38.48 38.1 C-30.22 28.55, -24.07 18.33, -7.65 2.63 M-38.48 38.1 C-30.33 29.49, -22.39 18.72, -7.65 2.63 M-38.09 43.74 C-21.11 25.4, -7.49 7.19, -0.03 -0.03 M-38.09 43.74 C-30.43 35.58, -22.27 25.89, -0.03 -0.03 M-38.35 50.14 C-27.54 37.68, -16.18 22.62, 3.64 1.84 M-38.35 50.14 C-24.37 33.36, -8.48 16.07, 3.64 1.84 M-37.3 55.03 C-24.91 42.18, -11.61 27.26, 7.32 3.71 M-37.3 55.03 C-23.3 37.77, -9.09 22.69, 7.32 3.71 M-33.62 56.9 C-17.83 37.88, -1 19.31, 10.99 5.58 M-33.62 56.9 C-16.72 37.87, 1.23 16.88, 10.99 5.58 M-29.95 58.77 C-19.95 45.1, -7.33 32.38, 15.32 6.69 M-29.95 58.77 C-19.76 47.28, -9.93 34.81, 15.32 6.69 M-26.27 60.64 C-14.06 44.09, -0.19 31.28, 19 8.56 M-26.27 60.64 C-15.96 47.21, -4.46 33.88, 19 8.56 M-22.6 62.51 C-6.74 42.87, 12.69 24, 22.67 10.43 M-22.6 62.51 C-6.97 44.97, 8.31 25.1, 22.67 10.43 M-18.92 64.38 C-7.92 52.98, 1.11 40.67, 26.35 12.3 M-18.92 64.38 C-2.85 45.91, 13.79 25.82, 26.35 12.3 M-14.59 65.49 C3.54 46.68, 19.09 27.09, 30.02 14.17 M-14.59 65.49 C-0.19 48.83, 14.44 31.03, 30.02 14.17 M-10.92 67.36 C2.33 51.71, 16.83 39.15, 33.04 16.8 M-10.92 67.36 C1.24 53.28, 14.31 38.61, 33.04 16.8 M-7.24 69.23 C4.48 55.1, 15 39.64, 32.78 23.19 M-7.24 69.23 C4.65 56.06, 16.66 42.36, 32.78 23.19 M-2.25 69.59 C10.04 56.91, 23.1 43.6, 32.52 29.59 M-2.25 69.59 C8.38 57.18, 19.45 45.36, 32.52 29.59 M6.67 65.42 C14.72 55.96, 22.18 47.35, 32.91 35.23 M6.67 65.42 C15.67 54.97, 25.83 43.38, 32.91 35.23 M15.59 61.25 C20.58 55.58, 26.7 49.32, 32.65 41.63 M15.59 61.25 C19.79 55.95, 23.84 51.21, 32.65 41.63 M23.86 57.84 C26.56 54.91, 29.23 52.8, 32.39 48.03 M23.86 57.84 C27.15 54.33, 30.47 50.69, 32.39 48.03" stroke="#b2f2bb" stroke-width="0.5" fill="none"></path><path d="M0 0 C-10.53 1.72, -18.05 7.83, -37.96 13.11 M0 0 C-12.45 4.41, -22.83 8.89, -37.96 13.11 M-37.96 13.11 C-39.31 22.12, -36.54 30.05, -38.4 54.25 M-37.96 13.11 C-37.65 26.11, -38.6 40.41, -38.4 54.25 M-38.4 54.25 C-25.6 58.96, -13.02 65.82, -4.63 70.78 M-38.4 54.25 C-28.23 58.46, -17.19 64.56, -4.63 70.78 M-4.63 70.78 C6.94 65.19, 15.25 61.23, 31.59 54.06 M-4.63 70.78 C4.67 66.02, 14.96 61.82, 31.59 54.06 M31.59 54.06 C32.48 41.14, 31.82 29.01, 32.37 14.54 M31.59 54.06 C32.43 42.5, 31.03 28.73, 32.37 14.54 M32.37 14.54 C20.83 8.49, 12.62 3.75, 0 0 M32.37 14.54 C21.94 10.23, 12.4 5.83, 0 0 M0 0 C0 0, 0 0, 0 0 M0 0 C0 0, 0 0, 0 0" stroke="#1e1e1e" stroke-width="1" fill="none"></path></g></g><mask></mask><g transform="translate(268.92560806657383 37.77447144273992) rotate(0 23.351263161061922 7.284364300350717)"><text x="0" y="10.20976500337144" font-family="Virgil, Segoe UI Emoji" font-size="11.654982880561006px" fill="#1e1e1e" text-anchor="start" style="white-space: pre;" direction="ltr" dominant-baseline="alphabetic">Payment</text></g><g stroke-linecap="round"><g transform="translate(305.51683335070067 145.6674401259961) rotate(0 -3.0190935738371536 35.3918263619164)" fill-rule="evenodd"><path d="M-38.09 13.26 C-38.09 13.26, -38.09 13.26, -38.09 13.26 M-38.09 13.26 C-38.09 13.26, -38.09 13.26, -38.09 13.26 M-38.35 19.66 C-36.59 16.18, -32.71 12.6, -30.48 10.61 M-38.35 19.66 C-35.53 16.78, -33.78 13.74, -30.48 10.61 M-37.96 25.3 C-31.69 19.33, -27.38 14.75, -22.87 7.95 M-37.96 25.3 C-32.2 19.42, -26.67 12.5, -22.87 7.95 M-38.22 31.7 C-31.31 24.44, -23.83 15.35, -15.26 5.29 M-38.22 31.7 C-30.4 23.32, -21.85 13.36, -15.26 5.29 M-38.48 38.1 C-29.62 29.15, -20.84 17.55, -7.65 2.63 M-38.48 38.1 C-26.65 25.98, -16.53 14.23, -7.65 2.63 M-38.09 43.74 C-30.16 31.08, -17 20.38, -0.03 -0.03 M-38.09 43.74 C-23.22 25.97, -8.56 8.44, -0.03 -0.03 M-38.35 50.14 C-24.25 34.44, -10.87 18.84, 3.64 1.84 M-38.35 50.14 C-24.96 33.67, -11.18 18.26, 3.64 1.84 M-37.3 55.03 C-19.43 36.59, -4.12 14.84, 7.32 3.71 M-37.3 55.03 C-27.36 45.15, -18.76 33.67, 7.32 3.71 M-33.62 56.9 C-17.61 39.5, -5.94 23.07, 10.99 5.58 M-33.62 56.9 C-18.67 38.97, -2.63 20.53, 10.99 5.58 M-29.95 58.77 C-18.86 45.63, -3.88 30.38, 15.32 6.69 M-29.95 58.77 C-12.46 39.11, 5.76 18.53, 15.32 6.69 M-26.27 60.64 C-16.24 48.89, -5.57 33.53, 19 8.56 M-26.27 60.64 C-14.62 49.9, -4.88 36.36, 19 8.56 M-22.6 62.51 C-7.9 44.4, 7.24 28.87, 22.67 10.43 M-22.6 62.51 C-5.25 41.97, 13.49 22.54, 22.67 10.43 M-18.92 64.38 C-3.37 49.97, 8.53 31.96, 26.35 12.3 M-18.92 64.38 C-3.56 47.6, 11.45 31.56, 26.35 12.3 M-14.59 65.49 C-0.37 49.97, 12.53 33.05, 30.02 14.17 M-14.59 65.49 C0.26 48.02, 15.05 31.93, 30.02 14.17 M-10.92 67.36 C-0.08 53.7, 12.05 39.87, 33.04 16.8 M-10.92 67.36 C3.26 51.67, 17.83 34.4, 33.04 16.8 M-7.24 69.23 C4.44 57.74, 16.42 44.16, 32.78 23.19 M-7.24 69.23 C6.02 53.36, 18.85 38.81, 32.78 23.19 M-2.25 69.59 C9.28 56.87, 20.11 42.79, 32.52 29.59 M-2.25 69.59 C6.62 58.34, 14.88 48.5, 32.52 29.59 M6.67 65.42 C15.15 57.88, 21.34 48.04, 32.91 35.23 M6.67 65.42 C16.58 54.16, 26.17 42.46, 32.91 35.23 M15.59 61.25 C19.91 55.76, 26.94 48.94, 32.65 41.63 M15.59 61.25 C20.91 55.53, 25.91 49.2, 32.65 41.63 M23.86 57.84 C26.91 55.44, 28.69 52.89, 32.39 48.03 M23.86 57.84 C25.59 55.22, 29.17 52.21, 32.39 48.03" stroke="#b2f2bb" stroke-width="0.5" fill="none"></path><path d="M0 0 C-8.54 2.65, -17.49 5.29, -37.96 13.11 M0 0 C-13.15 4.87, -25.82 8.2, -37.96 13.11 M-37.96 13.11 C-37.1 24.95, -37.26 38.29, -38.4 54.25 M-37.96 13.11 C-37.5 23.06, -37.76 31.83, -38.4 54.25 M-38.4 54.25 C-29.85 57.48, -20.82 61.06, -4.63 70.78 M-38.4 54.25 C-31.59 57.86, -24.84 62.27, -4.63 70.78 M-4.63 70.78 C3.17 65.88, 10.12 61.63, 31.59 54.06 M-4.63 70.78 C4.71 67.06, 13.24 62.75, 31.59 54.06 M31.59 54.06 C32.04 44.88, 32.82 34.97, 32.37 14.54 M31.59 54.06 C32.34 39.36, 33.49 23.6, 32.37 14.54 M32.37 14.54 C25.78 10.52, 16.92 7.4, 0 0 M32.37 14.54 C21.61 10.06, 8.98 3.73, 0 0 M0 0 C0 0, 0 0, 0 0 M0 0 C0 0, 0 0, 0 0" stroke="#1e1e1e" stroke-width="1" fill="none"></path></g></g><mask></mask><g transform="translate(277.852484473345 173.8827412345231) rotate(0 26.601448626395552 7.284364300350717)"><text x="0" y="10.20976500337144" font-family="Virgil, Segoe UI Emoji" font-size="11.654982880561006px" fill="#1e1e1e" text-anchor="start" style="white-space: pre;" direction="ltr" dominant-baseline="alphabetic">Inventory</text></g><g stroke-linecap="round" transform="translate(130.9021773920034 108.01240543945187) rotate(0 45.626559888492096 8.842351024163008)"><path d="M1.18 1.02 C1.18 1.02, 1.18 1.02, 1.18 1.02 M1.18 1.02 C1.18 1.02, 1.18 1.02, 1.18 1.02 M0.65 13.82 C2.82 11.04, 9.05 6.07, 12.46 0.23 M0.65 13.82 C4.89 9.03, 9 3.37, 12.46 0.23 M8 17.56 C10.95 12.95, 13.31 8.54, 23.09 0.2 M8 17.56 C11 14.34, 14.68 9.88, 23.09 0.2 M18.63 17.52 C22.5 14.47, 24.28 10.17, 33.72 0.16 M18.63 17.52 C22.14 14.02, 24.77 10.74, 33.72 0.16 M29.26 17.49 C35.35 12.68, 38.53 7.35, 44.35 0.13 M29.26 17.49 C33.23 13.36, 35.86 10.94, 44.35 0.13 M39.89 17.45 C45.07 12.26, 51.41 5.58, 54.98 0.1 M39.89 17.45 C43.99 12.81, 49.08 7.7, 54.98 0.1 M50.52 17.42 C54.54 10.6, 58.94 7.24, 65.61 0.06 M50.52 17.42 C54.23 13.28, 58.03 8.17, 65.61 0.06 M60.5 18.14 C64.41 11.75, 70.59 7.5, 76.24 0.03 M60.5 18.14 C65.84 12.08, 69.5 6.63, 76.24 0.03 M71.13 18.11 C76.78 13.8, 78.8 8.8, 86.22 0.75 M71.13 18.11 C74.81 12.74, 78.95 8.85, 86.22 0.75 M81.76 18.07 C84.48 14.5, 86.89 10.64, 90.94 7.5 M81.76 18.07 C84.7 15.62, 86.9 12.8, 90.94 7.5" stroke="#b2f2bb" stroke-width="1" fill="none"></path><path d="M4.42 0 C26.88 2.31, 49.54 -1.11, 86.83 0 M4.42 0 C31.55 1.32, 58.14 0.91, 86.83 0 M86.83 0 C89.53 0.65, 92.27 -0.01, 91.25 4.42 M86.83 0 C89.11 -0.4, 92.82 2.98, 91.25 4.42 M91.25 4.42 C91.44 7.34, 91.45 10.28, 91.25 13.26 M91.25 4.42 C91.03 7.64, 91.06 10.95, 91.25 13.26 M91.25 13.26 C89.69 18.11, 88.37 18.22, 86.83 17.68 M91.25 13.26 C90.22 15.67, 88.37 15.57, 86.83 17.68 M86.83 17.68 C68.76 17.4, 51.85 16.11, 4.42 17.68 M86.83 17.68 C58.29 17.78, 31.04 18.07, 4.42 17.68 M4.42 17.68 C3.15 19.22, -1.62 14.85, 0 13.26 M4.42 17.68 C1.79 18.12, 2.28 14.65, 0 13.26 M0 13.26 C0.09 11.12, -0.83 9.24, 0 4.42 M0 13.26 C0.3 10.33, -0.23 6.68, 0 4.42 M0 4.42 C-1.11 3.16, 2.97 -1.81, 4.42 0 M0 4.42 C1.04 1.06, 0.24 1.37, 4.42 0" stroke="#1e1e1e" stroke-width="2" fill="none"></path></g><g stroke-linecap="round" transform="translate(132.78855376587592 112.75781819406575) rotate(0 5.894903681078375 3.3306214793001345)"><path d="M0.17 1.47 C0.17 1.47, 0.17 1.47, 0.17 1.47 M0.17 1.47 C0.17 1.47, 0.17 1.47, 0.17 1.47 M6.21 6.72 C8.12 5.15, 9.56 3.35, 11.45 0.68 M6.21 6.72 C7.6 5.06, 8.81 3.63, 11.45 0.68" stroke="#b2f2bb" stroke-width="1" fill="none"></path><path d="M1.67 0 C4.03 -0.37, 5.95 -0.44, 10.12 0 M1.67 0 C3.48 0.04, 5.55 0.04, 10.12 0 M10.12 0 C11.74 -0.74, 11.5 0.38, 11.79 1.67 M10.12 0 C12.02 0.75, 12.38 0.7, 11.79 1.67 M11.79 1.67 C11.83 2.4, 11.91 3.16, 11.79 5 M11.79 1.67 C11.76 2.38, 11.72 3.17, 11.79 5 M11.79 5 C11.09 6.37, 10.78 6.43, 10.12 6.66 M11.79 5 C11.08 5.05, 10.29 6.12, 10.12 6.66 M10.12 6.66 C8.25 6.43, 6.14 6.51, 1.67 6.66 M10.12 6.66 C7.74 6.75, 5.27 6.83, 1.67 6.66 M1.67 6.66 C-0.25 5.98, 0.14 6.3, 0 5 M1.67 6.66 C1.7 5.88, -1.04 6.45, 0 5 M0 5 C-0.15 4.27, 0.09 3.7, 0 1.67 M0 5 C-0.05 3.71, -0.06 2.61, 0 1.67 M0 1.67 C0.75 -0.35, 1.01 -0.18, 1.67 0 M0 1.67 C-0.62 1.24, 0.3 0.64, 1.67 0" stroke="#1e1e1e" stroke-width="2" fill="none"></path></g><g stroke-linecap="round" transform="translate(149.589029256949 112.78729451145318) rotate(0 5.894903681078375 3.3011451619129275)"><path d="M0.16 1.47 C0.16 1.47, 0.16 1.47, 0.16 1.47 M0.16 1.47 C0.16 1.47, 0.16 1.47, 0.16 1.47 M6.2 6.71 C7.47 5.69, 8.3 3.75, 11.45 0.68 M6.2 6.71 C7.52 5.07, 9.03 3.79, 11.45 0.68" stroke="#b2f2bb" stroke-width="1" fill="none"></path><path d="M1.65 0 C5.11 -0.37, 8.03 0.01, 10.14 0 M1.65 0 C4.8 0.05, 8.12 -0.17, 10.14 0 M10.14 0 C10.95 -0.17, 12.47 1.2, 11.79 1.65 M10.14 0 C11.83 0.15, 11.1 0.78, 11.79 1.65 M11.79 1.65 C11.9 2.47, 11.65 3.43, 11.79 4.95 M11.79 1.65 C11.72 2.7, 11.73 3.61, 11.79 4.95 M11.79 4.95 C11.34 5.82, 10.63 5.68, 10.14 6.6 M11.79 4.95 C10.85 5.51, 10.62 6.55, 10.14 6.6 M10.14 6.6 C7.7 6.42, 4.89 6.43, 1.65 6.6 M10.14 6.6 C7.67 6.78, 4.67 6.48, 1.65 6.6 M1.65 6.6 C0.69 6.79, 0.99 5.38, 0 4.95 M1.65 6.6 C-0.49 6.94, -1.14 6.2, 0 4.95 M0 4.95 C0.1 4.11, 0.13 3.3, 0 1.65 M0 4.95 C-0.04 3.88, 0.07 2.6, 0 1.65 M0 1.65 C0.45 0.37, 0.02 0.59, 1.65 0 M0 1.65 C-0.26 1.19, 0.16 0.25, 1.65 0" stroke="#1e1e1e" stroke-width="2" fill="none"></path></g><g stroke-linecap="round" transform="translate(164.62103364369915 112.78729451145318) rotate(0 5.894903681078347 3.3011451619129275)"><path d="M0.16 1.47 C0.16 1.47, 0.16 1.47, 0.16 1.47 M0.16 1.47 C0.16 1.47, 0.16 1.47, 0.16 1.47 M6.2 6.71 C7.92 4.2, 9.9 2.39, 11.45 0.68 M6.2 6.71 C7.45 5.62, 8.34 4.17, 11.45 0.68" stroke="#b2f2bb" stroke-width="1" fill="none"></path><path d="M1.65 0 C3.24 0.01, 5.74 -0.24, 10.14 0 M1.65 0 C4.59 -0.17, 7.26 -0.05, 10.14 0 M10.14 0 C11.92 0.65, 12.31 0.68, 11.79 1.65 M10.14 0 C10.55 0.23, 11.54 0.79, 11.79 1.65 M11.79 1.65 C11.66 2.44, 11.79 3.31, 11.79 4.95 M11.79 1.65 C11.72 2.68, 11.74 3.66, 11.79 4.95 M11.79 4.95 C11.18 5.13, 10.42 6.13, 10.14 6.6 M11.79 4.95 C11.17 6, 11.33 7.16, 10.14 6.6 M10.14 6.6 C8.06 6.44, 6.05 6.84, 1.65 6.6 M10.14 6.6 C7.07 6.49, 4.38 6.68, 1.65 6.6 M1.65 6.6 C1.54 5.93, -0.9 6.35, 0 4.95 M1.65 6.6 C-0.59 6.75, -0.37 5.01, 0 4.95 M0 4.95 C0.1 4.2, 0.06 3.13, 0 1.65 M0 4.95 C0.07 4.13, 0.05 3.45, 0 1.65 M0 1.65 C-0.53 1.14, 0.33 0.55, 1.65 0 M0 1.65 C-0.39 0.8, 1.53 -0.79, 1.65 0" stroke="#1e1e1e" stroke-width="2" fill="none"></path></g><g stroke-linecap="round" transform="translate(180.83201876666448 112.78729451145318) rotate(0 5.894903681078347 3.3011451619129275)"><path d="M0.16 1.47 C0.16 1.47, 0.16 1.47, 0.16 1.47 M0.16 1.47 C0.16 1.47, 0.16 1.47, 0.16 1.47 M6.2 6.71 C8.06 4.57, 9.89 2.05, 11.45 0.68 M6.2 6.71 C7.4 5.19, 8.56 3.69, 11.45 0.68" stroke="#b2f2bb" stroke-width="1" fill="none"></path><path d="M1.65 0 C3.71 -0.28, 5.28 -0.05, 10.14 0 M1.65 0 C4.41 -0.01, 7.44 0.17, 10.14 0 M10.14 0 C11.76 0.13, 11.19 0.75, 11.79 1.65 M10.14 0 C10.99 0.24, 11.32 1.32, 11.79 1.65 M11.79 1.65 C11.77 2.39, 11.79 3.11, 11.79 4.95 M11.79 1.65 C11.74 2.93, 11.73 4.18, 11.79 4.95 M11.79 4.95 C10.97 5.58, 10.7 6.55, 10.14 6.6 M11.79 4.95 C11.88 6.61, 10.59 7.09, 10.14 6.6 M10.14 6.6 C7.96 6.84, 5.85 6.94, 1.65 6.6 M10.14 6.6 C6.97 6.61, 3.95 6.43, 1.65 6.6 M1.65 6.6 C-0.35 6.9, -0.99 6.18, 0 4.95 M1.65 6.6 C0.18 5.56, -0.41 6.67, 0 4.95 M0 4.95 C0.06 3.81, -0.13 2.73, 0 1.65 M0 4.95 C0.03 3.67, -0.06 2.46, 0 1.65 M0 1.65 C-0.22 1.1, 0.21 0.22, 1.65 0 M0 1.65 C0.98 -0.24, 0.25 0.63, 1.65 0" stroke="#1e1e1e" stroke-width="2" fill="none"></path></g><g stroke-linecap="round"><g transform="translate(48.721851979398934 79.3215327974599) rotate(0 -3.019093573837125 35.3918263619164)" fill-rule="evenodd"><path d="M-38.09 13.26 C-38.09 13.26, -38.09 13.26, -38.09 13.26 M-38.09 13.26 C-38.09 13.26, -38.09 13.26, -38.09 13.26 M-38.35 19.66 C-34.93 16.46, -32.68 14.09, -30.48 10.61 M-38.35 19.66 C-35.33 16.62, -32.44 12.95, -30.48 10.61 M-37.96 25.3 C-33.51 20.83, -28.4 14.47, -22.87 7.95 M-37.96 25.3 C-32.93 20.05, -27.16 13.29, -22.87 7.95 M-38.22 31.7 C-31.81 25.45, -25.39 16.57, -15.26 5.29 M-38.22 31.7 C-29.15 22.71, -21.82 14.17, -15.26 5.29 M-38.48 38.1 C-32.42 27.54, -21.15 19.01, -7.65 2.63 M-38.48 38.1 C-26.49 23.65, -14.71 9.44, -7.65 2.63 M-38.09 43.74 C-25.22 29.41, -13.06 15.21, -0.03 -0.03 M-38.09 43.74 C-25.97 28.74, -13.48 14.81, -0.03 -0.03 M-38.35 50.14 C-21.76 33.19, -7.73 12.9, 2.98 2.59 M-38.35 50.14 C-29.09 41.05, -21.16 30.33, 2.98 2.59 M-37.3 55.03 C-21.49 37.87, -10.03 21.68, 6.66 4.46 M-37.3 55.03 C-22.57 37.36, -6.76 19.18, 6.66 4.46 M-33.62 56.9 C-22.9 44.18, -8.28 29.34, 10.33 6.33 M-33.62 56.9 C-16.65 37.82, 1.07 17.82, 10.33 6.33 M-29.95 58.77 C-20.08 47.2, -9.57 32.03, 14.67 7.45 M-29.95 58.77 C-18.45 48.2, -8.87 34.84, 14.67 7.45 M-26.27 60.64 C-11.77 42.77, 3.16 27.47, 18.34 9.32 M-26.27 60.64 C-9.19 40.39, 9.3 21.25, 18.34 9.32 M-22.6 62.51 C-7.25 48.33, 4.45 30.57, 22.02 11.19 M-22.6 62.51 C-7.44 45.97, 7.35 30.18, 22.02 11.19 M-18.92 64.38 C-4.7 48.85, 8.2 31.93, 25.69 13.06 M-18.92 64.38 C-4.07 46.9, 10.72 30.81, 25.69 13.06 M-15.25 66.25 C-4.24 52.38, 8.06 38.35, 29.36 14.93 M-15.25 66.25 C-0.86 50.31, 13.92 32.8, 29.36 14.93 M-11.57 68.12 C1.66 54.93, 15.15 39.62, 33.7 16.04 M-11.57 68.12 C3.38 50.23, 17.95 33.69, 33.7 16.04 M-7.9 69.99 C5.79 54.68, 18.84 38.05, 33.43 22.44 M-7.9 69.99 C2.65 56.75, 12.64 44.92, 33.43 22.44 M-3.57 71.1 C7.93 60.14, 17.1 46.87, 33.83 28.08 M-3.57 71.1 C10.61 54.93, 24.43 38.36, 33.83 28.08 M4.7 67.69 C12.43 58.21, 22.95 47.37, 33.57 34.48 M4.7 67.69 C13.82 57.66, 22.49 47.1, 33.57 34.48 M13.62 63.52 C20.15 57.65, 24.75 51.58, 33.31 40.88 M13.62 63.52 C18.12 57.33, 25.53 50.5, 33.31 40.88 M22.55 59.35 C27.79 54.1, 32.14 49.81, 33.04 47.28 M22.55 59.35 C27.15 55.48, 31.03 50.76, 33.04 47.28" stroke="#b2f2bb" stroke-width="0.5" fill="none"></path><path d="M0 0 C-10.38 3.36, -21.55 8.47, -37.96 13.11 M0 0 C-7.93 3.55, -16.67 5.99, -37.96 13.11 M-37.96 13.11 C-37.57 22.17, -36.74 31.65, -38.4 54.25 M-37.96 13.11 C-38.54 21.95, -39.09 31.61, -38.4 54.25 M-38.4 54.25 C-31.07 56.97, -24.69 60.36, -4.63 70.78 M-38.4 54.25 C-29.86 58.94, -21.95 63.06, -4.63 70.78 M-4.63 70.78 C5.13 67.72, 15.22 63.8, 31.59 54.06 M-4.63 70.78 C9.29 64.92, 23.79 57.75, 31.59 54.06 M31.59 54.06 C31.89 45.12, 29.98 36.77, 32.37 14.54 M31.59 54.06 C32.49 40.52, 31.58 25.36, 32.37 14.54 M32.37 14.54 C22.52 12.13, 16.06 6.6, 0 0 M32.37 14.54 C20.43 9.71, 9.99 3.58, 0 0 M0 0 C0 0, 0 0, 0 0 M0 0 C0 0, 0 0, 0 0" stroke="#1e1e1e" stroke-width="1" fill="none"></path></g></g><mask></mask><g transform="translate(27.2292193225058 107.09600424019936) rotate(0 18.910289244009675 7.284364300350717)"><text x="0" y="10.20976500337144" font-family="Virgil, Segoe UI Emoji" font-size="11.654982880561006px" fill="#1e1e1e" text-anchor="start" style="white-space: pre;" direction="ltr" dominant-baseline="alphabetic">Orders</text></g><g stroke-linecap="round"><g transform="translate(26.06273842661909 167.25061316882466) rotate(0 18.642654826847348 20.2468582658405)" fill-rule="evenodd"><path d="M0 0 C0 0, 0 0, 0 0 M0 0 C0 0, 0 0, 0 0 M-0.26 6.4 C1.7 5.28, 3.93 3.1, 7.61 -2.66 M-0.26 6.4 C2.31 4.6, 3.25 2.13, 7.61 -2.66 M0.13 12.04 C2.97 9.29, 5.92 5.11, 11.29 -0.79 M0.13 12.04 C4.98 7.58, 8.36 2.59, 11.29 -0.79 M-0.13 18.44 C4.44 11.53, 12.55 6.14, 18.9 -3.45 M-0.13 18.44 C4.26 14.28, 7.64 7.91, 18.9 -3.45 M0.27 24.08 C6.07 16.2, 13.75 11.9, 23.88 -3.09 M0.27 24.08 C6.44 16.37, 12.85 10.7, 23.88 -3.09 M0 30.48 C7.91 20.7, 14.04 14.74, 28.87 -2.73 M0 30.48 C9.57 18.59, 19.9 8.23, 28.87 -2.73 M-0.26 36.88 C12.23 23.59, 20.9 9.88, 33.2 -1.61 M-0.26 36.88 C12.25 21.45, 24.46 7.59, 33.2 -1.61 M0.79 41.77 C16.09 25.87, 27.19 11.48, 37.53 -0.5 M0.79 41.77 C11.83 28.32, 22.97 13.97, 37.53 -0.5 M5.12 42.88 C14.03 34.78, 19.61 25.91, 37.27 5.9 M5.12 42.88 C14.4 32.5, 22.24 23.04, 37.27 5.9 M9.46 44 C16.51 37.37, 22.2 28.5, 37.01 12.3 M9.46 44 C16.52 36.93, 22.54 30.2, 37.01 12.3 M14.44 44.36 C21.44 33.81, 33.28 25.76, 36.75 18.7 M14.44 44.36 C23.03 34.44, 31.85 25.76, 36.75 18.7 M19.43 44.72 C25.11 40.23, 27.18 33.28, 37.14 24.34 M19.43 44.72 C23.92 39.18, 28.9 33.22, 37.14 24.34 M23.1 46.59 C29.5 39.76, 33.48 35.18, 36.88 30.74 M23.1 46.59 C27.06 41.34, 32.83 35.44, 36.88 30.74 M28.75 46.19 C30.84 42.28, 33.35 40.7, 36.62 37.13 M28.75 46.19 C31.93 43.02, 35.34 39.34, 36.62 37.13" stroke="#b2f2bb" stroke-width="0.5" fill="none"></path><path d="M0.61 -0.89 C0.6 5.08, -0.26 29.16, -0.22 36.2 C-0.19 43.24, 0.36 40.29, 0.82 41.34 C1.29 42.39, 1.37 42.04, 2.54 42.5 C3.72 42.96, 5.03 43.76, 7.88 44.1 C10.72 44.45, 15.9 44.54, 19.62 44.58 C23.34 44.63, 27.5 45.03, 30.17 44.39 C32.85 43.75, 34.58 41.44, 35.67 40.74 C36.76 40.04, 36.53 40.81, 36.73 40.18 C36.94 39.56, 36.99 43, 36.91 37 C36.84 31, 36.4 10.33, 36.28 4.19 C36.15 -1.94, 36.54 1.24, 36.17 0.17 C35.81 -0.89, 35.3 -1.51, 34.08 -2.22 C32.86 -2.92, 31.67 -3.71, 28.84 -4.07 C26 -4.44, 20.53 -4.52, 17.09 -4.4 C13.65 -4.29, 10.77 -3.95, 8.2 -3.38 C5.64 -2.81, 3.18 -1.62, 1.7 -0.97 C0.21 -0.33, -0.34 0.33, -0.69 0.48 C-1.05 0.64, -0.49 0.02, -0.45 -0.03 M-0.53 1.26 C-0.72 7.38, -1.53 31.27, -1.36 37.63 C-1.19 43.99, -0.26 38.4, 0.49 39.41 C1.23 40.42, 1.58 42.82, 3.12 43.68 C4.65 44.55, 6.72 44.62, 9.69 44.62 C12.65 44.62, 17.42 43.87, 20.9 43.67 C24.38 43.48, 27.72 43.49, 30.56 43.47 C33.4 43.44, 36.61 44.3, 37.93 43.51 C39.25 42.73, 38.56 39.91, 38.48 38.76 C38.41 37.61, 37.87 42.7, 37.47 36.59 C37.08 30.48, 36.02 8.23, 36.1 2.12 C36.19 -4, 38.32 0.8, 37.98 -0.08 C37.63 -0.97, 35.73 -3, 34.02 -3.19 C32.32 -3.37, 30.6 -0.84, 27.75 -1.19 C24.89 -1.53, 20.04 -5.09, 16.9 -5.25 C13.76 -5.42, 11.63 -3.05, 8.89 -2.16 C6.16 -1.27, 1.76 -0.46, 0.49 0.08 C-0.77 0.63, 1.14 1.1, 1.33 1.12 C1.51 1.14, 1.84 0.65, 1.59 0.2" stroke="#1e1e1e" stroke-width="1" fill="none"></path></g></g><mask></mask><g stroke-linecap="round"><g transform="translate(26.3535707549417 194.87578199089376) rotate(0 18.682194884664852 1.882287023708841)"><path d="M-0.16 -0.1 C0.02 0.31, 0.41 1.48, 1.36 2.01 C2.31 2.55, 3.98 2.78, 5.51 3.11 C7.05 3.44, 8.2 3.83, 10.55 3.99 C12.9 4.15, 16.4 4.1, 19.61 4.07 C22.82 4.04, 27.14 4.3, 29.83 3.79 C32.53 3.28, 34.54 1.67, 35.76 1 C36.98 0.33, 36.92 -0.03, 37.15 -0.23 M0.76 -0.62 C0.88 -0.34, 0.36 0.5, 1.12 1.23 C1.88 1.96, 3.75 3.19, 5.31 3.74 C6.87 4.3, 7.95 4.45, 10.49 4.55 C13.03 4.64, 17.23 4.48, 20.54 4.31 C23.86 4.13, 27.81 3.92, 30.36 3.51 C32.92 3.09, 34.85 2.46, 35.88 1.81 C36.92 1.16, 36.23 0.03, 36.58 -0.4" stroke="#1e1e1e" stroke-width="1" fill="none"></path></g></g><mask></mask><g stroke-linecap="round"><g transform="translate(25.89079338216402 180.88164335183956) rotate(0 18.682194884664852 1.882287023708841)"><path d="M0.38 0.36 C0.61 0.66, 0.52 1.26, 1.27 1.72 C2.02 2.19, 3.32 2.77, 4.9 3.15 C6.48 3.53, 8.33 3.8, 10.76 3.99 C13.19 4.19, 16.34 4.5, 19.51 4.33 C22.67 4.15, 27 3.42, 29.73 2.94 C32.46 2.46, 34.63 1.96, 35.88 1.44 C37.12 0.92, 37.01 0.03, 37.18 -0.15 M-0.1 0.07 C0.11 0.48, -0.04 1.84, 0.98 2.46 C2.01 3.08, 4.41 3.46, 6.05 3.81 C7.68 4.16, 8.42 4.41, 10.81 4.55 C13.2 4.7, 17.16 4.8, 20.39 4.69 C23.62 4.58, 27.59 4.54, 30.2 3.89 C32.81 3.24, 34.99 1.51, 36.06 0.81 C37.13 0.11, 36.37 -0.15, 36.63 -0.29" stroke="#1e1e1e" stroke-width="1" fill="none"></path></g></g><mask></mask><g stroke-linecap="round" transform="translate(25.416557584828467 163.85525165391346) rotate(0 18.543129962059282 3.750208529131669)"><path d="M-0.37 3.65 C-0.37 3.65, -0.37 3.65, -0.37 3.65 M-0.37 3.65 C-0.37 3.65, -0.37 3.65, -0.37 3.65 M3.3 5.52 C5 3.94, 6.19 2.18, 7.24 0.99 M3.3 5.52 C4.46 4.07, 5.88 2.74, 7.24 0.99 M7.63 6.64 C8.91 5.61, 9.74 3.67, 12.88 0.6 M7.63 6.64 C8.96 4.99, 10.47 3.71, 12.88 0.6 M12.62 7 C14.12 4.91, 15.74 3.81, 18.53 0.2 M12.62 7 C14.16 5.15, 15.5 3.73, 18.53 0.2 M17.61 7.36 C19.58 4.7, 21.86 2.76, 23.51 0.56 M17.61 7.36 C19.75 5.02, 21.46 2.63, 23.51 0.56 M22.6 7.72 C25.05 4.41, 27.34 1.86, 29.16 0.17 M22.6 7.72 C25.25 4.87, 27.38 2.21, 29.16 0.17 M28.89 6.57 C30.01 5.17, 31.13 3.42, 32.83 2.04 M28.89 6.57 C29.91 5.57, 30.66 4.51, 32.83 2.04 M35.85 4.66 C36.04 4.44, 36.17 4.27, 36.51 3.91 M35.85 4.66 C36.01 4.49, 36.16 4.29, 36.51 3.91" stroke="#b2f2bb" stroke-width="0.5" fill="none"></path><path d="M15.87 -0.16 C19.61 -0.35, 25.24 -0.17, 28.54 0.25 C31.84 0.67, 34.48 1.58, 35.68 2.36 C36.89 3.15, 37.15 4.24, 35.78 4.95 C34.41 5.67, 30.86 6.3, 27.46 6.65 C24.05 7, 19.23 7.21, 15.36 7.08 C11.48 6.94, 6.76 6.49, 4.19 5.87 C1.61 5.24, -0.11 4.19, -0.11 3.35 C-0.11 2.52, 1.41 1.46, 4.17 0.86 C6.93 0.26, 14.21 -0.13, 16.45 -0.25 C18.68 -0.37, 17.48 0.06, 17.6 0.12 M20.23 0.11 C24.13 0.2, 29.43 0.79, 32.34 1.45 C35.25 2.11, 37.57 3.4, 37.67 4.07 C37.77 4.73, 35.36 4.87, 32.93 5.45 C30.51 6.02, 26.75 7.34, 23.12 7.53 C19.49 7.73, 14.85 6.95, 11.15 6.61 C7.45 6.27, 2.78 6.13, 0.92 5.5 C-0.94 4.86, -1.19 3.73, -0.02 2.81 C1.15 1.89, 4.57 0.36, 7.94 -0.04 C11.32 -0.44, 18.11 0.31, 20.23 0.42 C22.34 0.53, 20.53 0.55, 20.63 0.61" stroke="#1e1e1e" stroke-width="1" fill="none"></path></g><g stroke-linecap="round" transform="translate(55.67332819941464 174.25361851112984) rotate(0 2.717673447151185 2.949507631010192)"><path d="M0.71 0.62 C0.71 0.62, 0.71 0.62, 0.71 0.62 M0.71 0.62 C0.71 0.62, 0.71 0.62, 0.71 0.62 M1.76 5.5 C2.56 4.55, 3.59 3.28, 5.04 1.73 M1.76 5.5 C2.59 4.65, 3.32 3.71, 5.04 1.73" stroke="#b2f2bb" stroke-width="0.5" fill="none"></path><path d="M2.84 -0.2 C3.34 -0.25, 3.68 0.09, 4.1 0.5 C4.52 0.9, 5.18 1.63, 5.35 2.22 C5.53 2.82, 5.36 3.53, 5.14 4.07 C4.92 4.61, 4.58 5.19, 4.05 5.45 C3.53 5.7, 2.59 5.8, 1.97 5.61 C1.35 5.42, 0.71 4.87, 0.34 4.31 C-0.04 3.75, -0.35 2.89, -0.28 2.27 C-0.21 1.65, 0.25 0.95, 0.74 0.58 C1.23 0.21, 2.29 0.15, 2.65 0.03 C3.01 -0.09, 2.85 -0.15, 2.87 -0.13 M3.01 0.2 C3.66 0.22, 4.54 0.75, 4.87 1.07 C5.2 1.38, 4.94 1.51, 4.99 2.08 C5.03 2.66, 5.28 3.96, 5.15 4.51 C5.01 5.06, 4.79 5.15, 4.16 5.38 C3.52 5.61, 2.06 6.02, 1.35 5.87 C0.64 5.73, 0.12 5.15, -0.13 4.5 C-0.37 3.85, -0.27 2.59, -0.12 2 C0.03 1.41, 0.29 1.24, 0.78 0.97 C1.27 0.69, 2.44 0.45, 2.82 0.34 C3.2 0.23, 3.12 0.35, 3.06 0.28" stroke="#1e1e1e" stroke-width="1" fill="none"></path></g><g stroke-linecap="round" transform="translate(55.67332819941464 187.20194591871905) rotate(0 2.717673447151185 2.949507631010192)"><path d="M0.89 0.77 C0.89 0.77, 0.89 0.77, 0.89 0.77 M0.89 0.77 C0.89 0.77, 0.89 0.77, 0.89 0.77 M1.94 5.66 C3.14 4.16, 4.17 2.84, 5.22 1.89 M1.94 5.66 C2.87 4.57, 3.98 3.39, 5.22 1.89" stroke="#b2f2bb" stroke-width="0.5" fill="none"></path><path d="M2.25 -0.12 C2.75 -0.18, 3.78 0.11, 4.3 0.46 C4.82 0.81, 5.18 1.39, 5.38 1.98 C5.57 2.57, 5.72 3.43, 5.47 4.01 C5.23 4.6, 4.5 5.24, 3.91 5.5 C3.31 5.76, 2.51 5.77, 1.88 5.58 C1.26 5.38, 0.49 4.84, 0.15 4.32 C-0.18 3.8, -0.25 3.03, -0.14 2.45 C-0.03 1.88, 0.34 1.29, 0.82 0.85 C1.3 0.41, 2.42 -0.03, 2.75 -0.18 C3.08 -0.34, 2.81 -0.13, 2.78 -0.06 M3.19 0.38 C3.63 0.27, 3.72 0.02, 4.1 0.39 C4.48 0.76, 5.23 1.97, 5.47 2.59 C5.71 3.21, 5.93 3.59, 5.54 4.14 C5.15 4.69, 3.86 5.62, 3.15 5.89 C2.43 6.16, 1.74 6.09, 1.24 5.76 C0.75 5.44, 0.4 4.44, 0.18 3.92 C-0.05 3.4, -0.28 3.14, -0.13 2.65 C0.03 2.16, 0.59 1.4, 1.13 0.99 C1.67 0.59, 2.9 0.44, 3.13 0.22 C3.36 0, 2.64 -0.4, 2.54 -0.31" stroke="#1e1e1e" stroke-width="1" fill="none"></path></g><g stroke-linecap="round" transform="translate(55.67332819941464 201.27505735708974) rotate(0 2.717673447151185 2.949507631010192)"><path d="M0.88 0.77 C0.88 0.77, 0.88 0.77, 0.88 0.77 M0.88 0.77 C0.88 0.77, 0.88 0.77, 0.88 0.77 M1.93 5.65 C2.98 4.2, 4.22 3.05, 5.21 1.88 M1.93 5.65 C3.27 4.21, 4.55 2.68, 5.21 1.88" stroke="#b2f2bb" stroke-width="0.5" fill="none"></path><path d="M2.43 -0.09 C3.03 -0.21, 3.73 -0.08, 4.27 0.25 C4.81 0.59, 5.48 1.29, 5.65 1.92 C5.82 2.54, 5.59 3.43, 5.28 4.01 C4.98 4.59, 4.41 5.15, 3.82 5.4 C3.23 5.66, 2.32 5.69, 1.74 5.53 C1.16 5.38, 0.65 4.95, 0.35 4.49 C0.06 4.03, -0.11 3.39, -0.01 2.76 C0.09 2.12, 0.49 1.18, 0.94 0.7 C1.38 0.22, 2.37 0.01, 2.64 -0.12 C2.91 -0.24, 2.57 -0.16, 2.55 -0.05 M2.5 -0.33 C2.99 -0.38, 4.1 0.48, 4.67 0.92 C5.24 1.36, 5.94 1.66, 5.92 2.3 C5.89 2.93, 5.01 4.15, 4.52 4.74 C4.03 5.33, 3.49 5.77, 2.98 5.85 C2.46 5.92, 1.93 5.41, 1.46 5.19 C0.98 4.97, 0.31 4.95, 0.1 4.51 C-0.11 4.08, -0.03 3.2, 0.2 2.58 C0.42 1.96, 1.06 1.28, 1.48 0.79 C1.89 0.3, 2.48 -0.32, 2.67 -0.37 C2.86 -0.42, 2.52 0.45, 2.62 0.49" stroke="#1e1e1e" stroke-width="1" fill="none"></path></g><g stroke-linecap="round"><g transform="translate(85.36445085573331 116.26332581622) rotate(0 18.360516160542517 -0.22392942961391782)"><path d="M-0.33 -0.48 C5.79 -0.62, 30.37 -0.49, 36.51 -0.48 M0.5 0.47 C6.56 0.38, 30.04 0.24, 35.97 0.2" stroke="#1e1e1e" stroke-width="2" fill="none"></path></g><g transform="translate(85.36445085573331 116.26332581622) rotate(0 18.360516160542517 -0.22392942961391782)"><path d="M18.76 6.59 C22.41 4.63, 27.61 3.03, 35.97 0.2 M18.76 6.59 C23.74 4.67, 29.14 2.48, 35.97 0.2" stroke="#1e1e1e" stroke-width="2" fill="none"></path></g><g transform="translate(85.36445085573331 116.26332581622) rotate(0 18.360516160542517 -0.22392942961391782)"><path d="M18.68 -5.97 C22.39 -4.66, 27.62 -3.01, 35.97 0.2 M18.68 -5.97 C23.63 -4.04, 29.05 -2.37, 35.97 0.2" stroke="#1e1e1e" stroke-width="2" fill="none"></path></g></g><mask></mask><g stroke-linecap="round"><g transform="translate(215.9568640605433 98.7453465546987) rotate(0 26.891021619072035 -15.2088589016887)"><path d="M-0.46 -0.08 C8.56 -4.96, 44.51 -25.47, 53.39 -30.34 M1.5 -1.16 C10.39 -5.74, 43.28 -23.78, 52.24 -28.76" stroke="#1e1e1e" stroke-width="2" fill="none"></path></g><g transform="translate(215.9568640605433 98.7453465546987) rotate(0 26.891021619072035 -15.2088589016887)"><path d="M35.79 -9.93 C39.78 -15.05, 43.99 -20.49, 52.24 -28.76 M35.79 -9.93 C41.97 -17.64, 48.3 -25.77, 52.24 -28.76" stroke="#1e1e1e" stroke-width="2" fill="none"></path></g><g transform="translate(215.9568640605433 98.7453465546987) rotate(0 26.891021619072035 -15.2088589016887)"><path d="M27.53 -24.91 C33.38 -26.39, 39.57 -28.23, 52.24 -28.76 M27.53 -24.91 C36.87 -26.73, 46.46 -28.94, 52.24 -28.76" stroke="#1e1e1e" stroke-width="2" fill="none"></path></g></g><mask></mask><g stroke-linecap="round"><g transform="translate(218.8223073378809 137.7593437403675) rotate(0 22.923504177266636 18.735546677706907)"><path d="M-0.39 0.08 C7.17 6.53, 37.34 32.33, 44.91 38.61 M1.6 -0.92 C9.57 5.23, 39.48 30.39, 47.13 37.09" stroke="#1e1e1e" stroke-width="2" fill="none"></path></g><g transform="translate(218.8223073378809 137.7593437403675) rotate(0 22.923504177266636 18.735546677706907)"><path d="M23.71 28.32 C29.97 29.12, 37.86 31.58, 47.13 37.09 M23.71 28.32 C30.71 30.31, 38.15 33.63, 47.13 37.09" stroke="#1e1e1e" stroke-width="2" fill="none"></path></g><g transform="translate(218.8223073378809 137.7593437403675) rotate(0 22.923504177266636 18.735546677706907)"><path d="M34.83 15.32 C38.17 19.49, 43.15 25.35, 47.13 37.09 M34.83 15.32 C38.13 21.54, 41.94 29.1, 47.13 37.09" stroke="#1e1e1e" stroke-width="2" fill="none"></path></g></g><mask></mask><g stroke-linecap="round" transform="translate(107.0970559245971 78.34435678500449) rotate(0 6.128962495966931 3.666431840661744)"><path d="M1.83 0 C4.54 -0.27, 6.54 -0.16, 10.42 0 M1.83 0 C4.03 -0.06, 6.47 0.03, 10.42 0 M10.42 0 C11.73 0.49, 11.7 1.03, 12.26 1.83 M10.42 0 C11.22 -0.03, 11.86 0.75, 12.26 1.83 M12.26 1.83 C12.41 3.01, 12.14 4.5, 12.26 5.5 M12.26 1.83 C12.19 3.03, 12.19 4.18, 12.26 5.5 M12.26 5.5 C11.93 5.81, 11.29 7.87, 10.42 7.33 M12.26 5.5 C12.53 7.5, 12.47 7.84, 10.42 7.33 M10.42 7.33 C8.61 7.63, 5.69 7.5, 1.83 7.33 M10.42 7.33 C7.95 7.48, 5.5 7.41, 1.83 7.33 M1.83 7.33 C1.47 6.64, -0.26 7.27, 0 5.5 M1.83 7.33 C1.22 6.71, 0.56 6.99, 0 5.5 M0 5.5 C0.02 4.76, 0.17 3.85, 0 1.83 M0 5.5 C0.06 4.06, -0.07 2.68, 0 1.83 M0 1.83 C0.4 -0.29, 0.52 -0.54, 1.83 0 M0 1.83 C0.81 1.54, 0.24 -0.13, 1.83 0" stroke="#1e1e1e" stroke-width="2" fill="none"></path></g><g stroke-linecap="round"><g transform="translate(107.53483627608011 78.56324904825715) rotate(0 5.362839574581898 1.75113184348902)"><path d="M-0.39 0.15 C0.74 0.62, 4.52 3.48, 6.32 3.37 C8.11 3.26, 9.73 0.1, 10.39 -0.51 M0.42 -0.25 C1.48 0.54, 3.91 3.99, 5.76 4.01 C7.61 4.02, 10.8 0.48, 11.53 -0.17" stroke="#e03131" stroke-width="2" fill="none"></path></g></g><mask></mask><g stroke-linecap="round" transform="translate(244.79098327113076 49.993052645505486) rotate(0 6.790206994647633 4.061997629491543)"><path d="M2.03 0 C4.11 -0.27, 5.97 -0.37, 11.55 0 M2.03 0 C4.46 0.12, 6.72 0.1, 11.55 0 M11.55 0 C12.53 -0.03, 13.23 0.8, 13.58 2.03 M11.55 0 C13.59 0.47, 14.54 1.56, 13.58 2.03 M13.58 2.03 C13.61 3.12, 13.43 3.63, 13.58 6.09 M13.58 2.03 C13.53 3.28, 13.52 4.76, 13.58 6.09 M13.58 6.09 C13.81 8.13, 13.62 8.57, 11.55 8.12 M13.58 6.09 C13.04 6.59, 12.27 9.1, 11.55 8.12 M11.55 8.12 C7.9 7.89, 4.69 8.04, 2.03 8.12 M11.55 8.12 C8.37 7.97, 4.72 8.26, 2.03 8.12 M2.03 8.12 C1.21 7.59, 0.48 7.68, 0 6.09 M2.03 8.12 C-0.41 7.51, -1.02 7.48, 0 6.09 M0 6.09 C0.14 4.98, 0.05 3.75, 0 2.03 M0 6.09 C0.05 5, 0 4.03, 0 2.03 M0 2.03 C0.71 1.48, 0.36 -0.11, 2.03 0 M0 2.03 C-1.14 0.47, -0.08 -0.12, 2.03 0" stroke="#1e1e1e" stroke-width="2" fill="none"></path></g><g stroke-linecap="round"><g transform="translate(245.275995082953 50.235560864146464) rotate(0 5.941428229404437 1.9400588109378987)"><path d="M-0.34 -0.51 C0.84 0.12, 4.84 3.54, 6.83 3.62 C8.81 3.7, 10.73 0.53, 11.59 -0.03 M0.49 0.42 C1.86 1.13, 6.06 4.17, 7.83 4.19 C9.59 4.21, 10.38 1.38, 11.08 0.56" stroke="#e03131" stroke-width="2" fill="none"></path></g></g><mask></mask><g stroke-linecap="round" transform="translate(257.5464408549943 179.94782436300193) rotate(0 7.453482750307273 4.458778544905954)"><path d="M2.23 0 C4.48 -0.24, 7.19 0.09, 12.68 0 M2.23 0 C5.78 -0.03, 9.43 0.01, 12.68 0 M12.68 0 C14.76 0.41, 15.74 1.51, 14.91 2.23 M12.68 0 C13.23 -0.78, 15.07 0.96, 14.91 2.23 M14.91 2.23 C14.96 3.79, 14.92 5.72, 14.91 6.69 M14.91 2.23 C14.92 3.24, 14.98 4.14, 14.91 6.69 M14.91 6.69 C14.44 7.43, 13.61 9.76, 12.68 8.92 M14.91 6.69 C15.77 7.14, 14.69 8.71, 12.68 8.92 M12.68 8.92 C10.39 8.73, 7.64 9.35, 2.23 8.92 M12.68 8.92 C10.4 8.81, 7.97 9.01, 2.23 8.92 M2.23 8.92 C-0.2 8.38, -0.89 8.2, 0 6.69 M2.23 8.92 C0.85 9.92, -0.89 9.09, 0 6.69 M0 6.69 C-0.12 4.89, -0.1 3.48, 0 2.23 M0 6.69 C0.08 5.84, -0.03 4.8, 0 2.23 M0 2.23 C-0.99 0.56, 0.08 -0.1, 2.23 0 M0 2.23 C1.1 0.11, 1.87 -0.46, 2.23 0" stroke="#1e1e1e" stroke-width="2" fill="none"></path></g><g stroke-linecap="round"><g transform="translate(271.92101799455264 180.2140210821699) rotate(0 -6.52179423321877 2.129566137424945)"><path d="M-0.3 -0.03 C-1.55 0.77, -5.76 4.49, -7.94 4.53 C-10.12 4.57, -12.47 0.99, -13.35 0.23 M0.55 -0.52 C-0.73 0.14, -5.95 3.73, -8.35 3.7 C-10.75 3.67, -13.04 -0.18, -13.86 -0.71" stroke="#e03131" stroke-width="2" fill="none"></path></g></g><mask></mask><g stroke-linecap="round"><g transform="translate(43.61660868997228 149.7598557198139) rotate(0 -0.19281224373551709 6.773741947707322)"><path d="M0.05 0.27 C-0.02 2.57, -0.59 11.57, -0.69 13.78 M-0.6 -0.07 C-0.46 2.07, 0.45 10.57, 0.38 12.93" stroke="#1e1e1e" stroke-width="2" fill="none"></path></g><g transform="translate(43.61660868997228 149.7598557198139) rotate(0 -0.19281224373551709 6.773741947707322)"><path d="M-2.22 6.67 C-1.41 8.02, -0.8 9.62, 0.38 12.93 M-2.22 6.67 C-1.35 8.6, -0.54 10.52, 0.38 12.93" stroke="#1e1e1e" stroke-width="2" fill="none"></path></g><g transform="translate(43.61660868997228 149.7598557198139) rotate(0 -0.19281224373551709 6.773741947707322)"><path d="M2.42 6.47 C2.08 7.87, 1.56 9.52, 0.38 12.93 M2.42 6.47 C1.9 8.46, 1.34 10.44, 0.38 12.93" stroke="#1e1e1e" stroke-width="2" fill="none"></path></g></g><mask></mask><g transform="translate(23.66875520649006 20.81521093794845) rotate(0 80.56763334773063 17.35793295140502)"><text x="0" y="24.328878824689188" font-family="Virgil, Segoe UI Emoji" font-size="27.772692722247935px" fill="#1e1e1e" text-anchor="start" style="white-space: pre;" direction="ltr" dominant-baseline="alphabetic">Thin Events</text></g><g stroke-linecap="round"><g transform="translate(300.0433732569316 216.4988259654092) rotate(0 -118.36458145381047 20.49889897400294)"><path d="M0.33 0.38 C-3.8 10.71, 15.62 64.85, -23.93 61.11 C-63.48 57.37, -201.35 -8.53, -236.96 -22.07 M-0.95 -0.47 C-5.33 10.05, 14.54 65.56, -24.94 62.09 C-64.42 58.63, -202.37 -7.19, -237.85 -21.23" stroke="#1e1e1e" stroke-width="1" fill="none"></path></g><g transform="translate(300.0433732569316 216.4988259654092) rotate(0 -118.36458145381047 20.49889897400294)"><path d="M-212.9 -19.71 C-221.54 -20.41, -233.21 -21.17, -237.85 -21.23 M-212.9 -19.71 C-218.79 -19.33, -224.09 -21.03, -237.85 -21.23" stroke="#1e1e1e" stroke-width="1" fill="none"></path></g><g transform="translate(300.0433732569316 216.4988259654092) rotate(0 -118.36458145381047 20.49889897400294)"><path d="M-219.71 -4.03 C-225.71 -10.59, -234.84 -17.18, -237.85 -21.23 M-219.71 -4.03 C-223.96 -7.22, -227.74 -12.43, -237.85 -21.23" stroke="#1e1e1e" stroke-width="1" fill="none"></path></g></g><mask></mask><g stroke-linecap="round"><g transform="translate(321.58729182314147 63.08776476773528) rotate(0 -130.89988462492536 65.5410651796767)"><path d="M-0.53 -0.31 C-16.57 21.31, -52.38 108, -95.8 129.99 C-139.21 151.99, -233.22 131.41, -261.04 131.67 M1.4 -1.51 C-14.86 20.18, -53.05 109.05, -96.85 130.96 C-140.65 152.87, -233.73 130.18, -261.41 129.93" stroke="#1e1e1e" stroke-width="1" fill="none"></path></g><g transform="translate(321.58729182314147 63.08776476773528) rotate(0 -130.89988462492536 65.5410651796767)"><path d="M-237.1 124.08 C-245.8 125.61, -255.3 129.19, -261.41 129.93 M-237.1 124.08 C-246.78 127.4, -257.01 128.34, -261.41 129.93" stroke="#1e1e1e" stroke-width="1" fill="none"></path></g><g transform="translate(321.58729182314147 63.08776476773528) rotate(0 -130.89988462492536 65.5410651796767)"><path d="M-239.03 141.07 C-247.12 136.88, -255.97 134.72, -261.41 129.93 M-239.03 141.07 C-247.81 137.64, -257.28 131.85, -261.41 129.93" stroke="#1e1e1e" stroke-width="1" fill="none"></path></g></g><mask></mask></svg>