<svg version="1.1" xmlns="http://www.w3.org/2000/svg" viewBox="0 0 747.9785640517212 406.16151104353867" width="747.9785640517212" height="406.16151104353867">
  <!-- svg-source:excalidraw -->
  
  <defs>
    <style class="style-fonts">
      @font-face {
        font-family: "Virgil";
        src: url("https://excalidraw.com/Virgil.woff2");
      }
      @font-face {
        font-family: "Cascadia";
        src: url("https://excalidraw.com/Cascadia.woff2");
      }
      @font-face {
        font-family: "Assistant";
        src: url("https://excalidraw.com/Assistant-Regular.woff2");
      }
    </style>
    
  </defs>
  <rect x="0" y="0" width="747.9785640517212" height="406.16151104353867" fill="#f8f9fa"></rect><g stroke-linecap="round" transform="translate(26.085199074975606 179.86950121957125) rotate(0 74.708403014586 16.383511452070252)"><path d="M0 0 C0 0, 0 0, 0 0 M0 0 C0 0, 0 0, 0 0 M-0.26 6.4 C1.17 5.29, 2.44 3.02, 4.99 0.36 M-0.26 6.4 C1.33 4.48, 3.7 1.41, 4.99 0.36 M0.13 12.04 C3.82 8.8, 6.93 4.23, 10.63 -0.03 M0.13 12.04 C2.95 9.29, 5.38 5.72, 10.63 -0.03 M-0.13 18.44 C5.06 11.87, 7.91 8.7, 15.62 0.33 M-0.13 18.44 C4.45 13.52, 9.49 8.73, 15.62 0.33 M0.27 24.08 C3.93 17.55, 9.66 12.14, 21.26 -0.07 M0.27 24.08 C9.43 14.3, 15.92 4.86, 21.26 -0.07 M0 30.48 C9.48 20.75, 18.91 8.94, 26.25 0.29 M0 30.48 C6.85 22.94, 13.01 15.53, 26.25 0.29 M3.02 33.1 C10.37 21.38, 21.21 11.53, 31.89 -0.1 M3.02 33.1 C9.34 25.92, 15.28 19.26, 31.89 -0.1 M8.01 33.46 C17.87 21.3, 27.34 9.14, 36.88 0.26 M8.01 33.46 C16.35 24.79, 24.3 14.83, 36.88 0.26 M13.65 33.07 C24.76 24.44, 31.56 11.34, 42.52 -0.14 M13.65 33.07 C25.06 19.68, 35.89 7.74, 42.52 -0.14 M18.64 33.43 C27.94 23.59, 34.6 12.24, 47.51 0.22 M18.64 33.43 C29.09 20.34, 39.7 8.94, 47.51 0.22 M24.28 33.03 C32.53 21.75, 45.59 11.32, 53.15 -0.17 M24.28 33.03 C30.6 24.14, 39.54 16.97, 53.15 -0.17 M29.27 33.39 C38.95 21.54, 50.7 9.3, 58.14 0.19 M29.27 33.39 C38.46 21.89, 50.47 8.56, 58.14 0.19 M34.91 33 C43.73 22.07, 54.32 12.28, 63.78 -0.21 M34.91 33 C42.6 25.35, 48.23 17.48, 63.78 -0.21 M39.9 33.36 C48.3 22.92, 59.24 11.53, 68.77 0.15 M39.9 33.36 C50.99 20.37, 63.37 7.43, 68.77 0.15 M45.54 32.97 C56.89 21.69, 65.41 9.59, 74.41 -0.24 M45.54 32.97 C55.6 22.98, 65.2 11.99, 74.41 -0.24 M50.53 33.33 C57.64 24.62, 68.58 13.34, 79.4 0.12 M50.53 33.33 C62.01 21.17, 72.55 8.1, 79.4 0.12 M56.17 32.93 C64.86 22.75, 74.6 12.12, 85.04 -0.28 M56.17 32.93 C65.38 21.56, 75 10.73, 85.04 -0.28 M61.16 33.29 C70.82 24.13, 75.37 16.38, 90.03 0.08 M61.16 33.29 C70.97 22.35, 81.51 10.09, 90.03 0.08 M66.8 32.9 C75.37 24.3, 82.5 14.04, 95.67 -0.31 M66.8 32.9 C77.38 20.63, 86.29 8.98, 95.67 -0.31 M71.79 33.26 C81.5 23.28, 88.8 15.33, 100.66 0.05 M71.79 33.26 C79.85 24.67, 88.72 13.29, 100.66 0.05 M77.43 32.86 C89.61 17.75, 98.65 6.86, 106.3 -0.34 M77.43 32.86 C83.17 24.68, 90.12 16.24, 106.3 -0.34 M82.42 33.22 C90.19 22.76, 99.01 14.41, 111.29 0.02 M82.42 33.22 C92.12 22.09, 101.29 11.13, 111.29 0.02 M88.06 32.83 C94.37 25.02, 104.95 15.76, 116.27 0.38 M88.06 32.83 C97.55 22.8, 106.82 12.24, 116.27 0.38 M93.05 33.19 C99.91 25.93, 109.36 17.18, 121.92 -0.02 M93.05 33.19 C103.36 21.11, 115.1 7.85, 121.92 -0.02 M98.69 32.79 C107.9 19.27, 119.52 8.49, 126.91 0.34 M98.69 32.79 C108.92 21.59, 119.37 7.48, 126.91 0.34 M103.68 33.15 C113.6 20.37, 123.04 11.42, 132.55 -0.05 M103.68 33.15 C111.48 25.74, 117.82 18.23, 132.55 -0.05 M109.32 32.76 C117.97 24.71, 127.41 14.89, 137.54 0.31 M109.32 32.76 C119.75 20.7, 129.04 8.73, 137.54 0.31 M114.31 33.12 C124.5 22.69, 132.69 11.98, 143.18 -0.09 M114.31 33.12 C122.28 24.52, 130.69 15.25, 143.18 -0.09 M119.95 32.72 C129.79 19.9, 139.14 11.36, 148.17 0.27 M119.95 32.72 C126.31 24.17, 134.83 17.02, 148.17 0.27 M124.94 33.08 C133.24 24.44, 144.3 12.99, 149.87 4.41 M124.94 33.08 C129.71 26.19, 136.39 20.02, 149.87 4.41 M129.93 33.44 C134.96 24.92, 142.53 19.93, 149.61 10.8 M129.93 33.44 C136.76 26.01, 142.93 17.01, 149.61 10.8 M135.57 33.05 C141.17 28.1, 143.13 22.87, 149.35 17.2 M135.57 33.05 C139.47 28.08, 145.53 21.73, 149.35 17.2 M140.56 33.41 C142.5 30.47, 144.26 29.29, 149.74 22.84 M140.56 33.41 C142.28 30.86, 144.75 27.97, 149.74 22.84 M146.2 33.02 C147.37 32.27, 148.71 30.95, 149.48 29.24 M146.2 33.02 C147.58 31.47, 148.56 30.08, 149.48 29.24" stroke="#ffc9c9" stroke-width="0.5" fill="none"></path><path d="M0 0 C34.54 -0.6, 72.3 -1.47, 149.42 0 M0 0 C58.07 0.91, 116.03 -0.18, 149.42 0 M149.42 0 C147.55 10.17, 151.46 23.79, 149.42 32.77 M149.42 0 C149.56 8.48, 150.2 16.68, 149.42 32.77 M149.42 32.77 C104.92 31.16, 61.69 31.93, 0 32.77 M149.42 32.77 C110.4 33.25, 72.18 34.02, 0 32.77 M0 32.77 C1.13 20.82, -0.46 6.76, 0 0 M0 32.77 C0.57 22.9, -0.77 12.15, 0 0" stroke="#e03131" stroke-width="1" fill="none"></path></g><g transform="translate(37.0728989645616 187.55128635642723) rotate(0 63.720703125 8.701726315213818)"><text x="63.720703125" y="14.004340788547596" font-family="Cascadia, Segoe UI Emoji" font-size="14.502877192023401px" fill="#e03131" text-anchor="middle" style="white-space: pre;" direction="ltr" dominant-baseline="alphabetic">order-requested</text></g><g stroke-linecap="round" transform="translate(186.27678160877667 179.869501313402) rotate(0 71.65378775917253 16.383511452070252)"><path d="M0 0 C0 0, 0 0, 0 0 M0 0 C0 0, 0 0, 0 0 M-0.26 6.4 C2.26 4.92, 2.71 1.41, 4.99 0.36 M-0.26 6.4 C1.71 3.71, 3.58 1.9, 4.99 0.36 M0.13 12.04 C2.94 7.22, 6.36 4.33, 10.63 -0.03 M0.13 12.04 C3.73 8.07, 8.75 3.54, 10.63 -0.03 M-0.13 18.44 C2.44 14.44, 5.27 11.73, 15.62 0.33 M-0.13 18.44 C3.93 13.42, 9.58 6.88, 15.62 0.33 M0.27 24.08 C8.46 16.54, 12.05 11.57, 21.26 -0.07 M0.27 24.08 C6.54 18.17, 11.56 11.51, 21.26 -0.07 M0 30.48 C7.55 19.42, 16.73 10.72, 26.25 0.29 M0 30.48 C8.47 21.09, 16.58 10.75, 26.25 0.29 M3.02 33.1 C7.96 25.95, 16.66 18.11, 31.89 -0.1 M3.02 33.1 C12.92 22.28, 21.53 11.44, 31.89 -0.1 M8.01 33.46 C15.46 22.98, 22.69 15.95, 36.88 0.26 M8.01 33.46 C17.42 22.59, 25.62 13.13, 36.88 0.26 M13.65 33.07 C26.3 20.19, 37.12 8.67, 42.52 -0.14 M13.65 33.07 C20.92 25.16, 27.26 16.63, 42.52 -0.14 M18.64 33.43 C28.73 22.26, 36.62 13.25, 47.51 0.22 M18.64 33.43 C25.09 25.73, 30.02 18.78, 47.51 0.22 M24.28 33.03 C31.37 23.31, 39.11 11.92, 53.15 -0.17 M24.28 33.03 C31.22 25.87, 36.57 17.56, 53.15 -0.17 M29.27 33.39 C39.09 25.14, 46.25 11.52, 58.14 0.19 M29.27 33.39 C39.07 23.08, 48.49 10.96, 58.14 0.19 M34.91 33 C41.65 25.21, 50.13 16.07, 63.78 -0.21 M34.91 33 C45.62 21.93, 55.21 8.95, 63.78 -0.21 M39.9 33.36 C50.5 22.33, 57.48 12.22, 68.77 0.15 M39.9 33.36 C48.82 23.22, 56.17 14.13, 68.77 0.15 M45.54 32.97 C56.65 21.06, 64.43 10.27, 74.41 -0.24 M45.54 32.97 C56.72 20.13, 68.01 6.06, 74.41 -0.24 M50.53 33.33 C62.9 21.39, 72.02 9.63, 79.4 0.12 M50.53 33.33 C59.94 23.22, 68.82 11.62, 79.4 0.12 M56.17 32.93 C64.77 23.99, 73.82 13.96, 85.04 -0.28 M56.17 32.93 C62.34 25.17, 69.71 18.72, 85.04 -0.28 M61.16 33.29 C70.5 24.05, 77.03 14.21, 90.03 0.08 M61.16 33.29 C69.7 23.54, 78.76 13.11, 90.03 0.08 M66.8 32.9 C78.49 21.28, 87.02 9.77, 95.67 -0.31 M66.8 32.9 C73.53 24.71, 79.61 18.45, 95.67 -0.31 M71.79 33.26 C79.01 24.15, 86.6 15.24, 100.66 0.05 M71.79 33.26 C83.93 20.64, 93.83 7.97, 100.66 0.05 M77.43 32.86 C82.33 28.05, 89.89 17.8, 106.3 -0.34 M77.43 32.86 C85.23 23.99, 94.33 14.94, 106.3 -0.34 M82.42 33.22 C89.76 25.17, 97.62 17.62, 111.29 0.02 M82.42 33.22 C91.47 21.54, 101.75 11.07, 111.29 0.02 M88.06 32.83 C97.57 21.1, 105.23 11.85, 116.27 0.38 M88.06 32.83 C95.88 23.28, 105.54 13.14, 116.27 0.38 M93.05 33.19 C105.78 20.72, 114.34 5.77, 121.92 -0.02 M93.05 33.19 C104.17 21.8, 114.02 8.85, 121.92 -0.02 M98.69 32.79 C107.96 23.81, 112.56 14.37, 126.91 0.34 M98.69 32.79 C110.28 20.77, 120.55 7.95, 126.91 0.34 M103.68 33.15 C108.87 25.07, 115.37 20.02, 132.55 -0.05 M103.68 33.15 C112.87 21.79, 121.96 11.52, 132.55 -0.05 M109.32 32.76 C120.79 19.71, 130.45 8.75, 137.54 0.31 M109.32 32.76 C117.12 25.1, 124.44 16.44, 137.54 0.31 M114.31 33.12 C121.61 23.52, 128.9 14.51, 143.18 -0.09 M114.31 33.12 C125.65 21.03, 135.15 8.13, 143.18 -0.09 M119.95 32.72 C123.97 24.72, 129.26 19.21, 144.23 4.8 M119.95 32.72 C125.51 27.3, 129.97 20.57, 144.23 4.8 M124.94 33.08 C130.82 24.25, 139.04 14.06, 143.97 11.2 M124.94 33.08 C129.36 28.21, 134.47 22.48, 143.97 11.2 M129.93 33.44 C134 30.71, 135.76 26.35, 143.71 17.6 M129.93 33.44 C134.76 27.29, 138.69 23.49, 143.71 17.6 M135.57 33.05 C138.55 30.32, 140.94 26.44, 144.1 23.24 M135.57 33.05 C137.74 30.47, 140.65 26.68, 144.1 23.24 M140.56 33.41 C141.11 32.97, 141.97 31.23, 143.84 29.64 M140.56 33.41 C141.61 32.1, 142.49 31.18, 143.84 29.64" stroke="#ffc9c9" stroke-width="0.5" fill="none"></path><path d="M0 0 C46.32 2.3, 88.58 -0.06, 143.31 0 M0 0 C51.71 1.06, 102.59 -0.25, 143.31 0 M143.31 0 C142.6 10.44, 141.97 16.65, 143.31 32.77 M143.31 0 C143.41 11.16, 142.96 21.64, 143.31 32.77 M143.31 32.77 C105.61 34.5, 71.13 31.03, 0 32.77 M143.31 32.77 C109.8 33.02, 73.88 33.59, 0 32.77 M0 32.77 C0.23 20.37, -0.04 11.03, 0 0 M0 32.77 C0.44 23, 1.18 12.07, 0 0" stroke="#e03131" stroke-width="1" fill="none"></path></g><g transform="translate(194.2098662429492 187.55128645025798) rotate(0 63.720703125 8.701726315213818)"><text x="63.720703125" y="14.004340788547596" font-family="Cascadia, Segoe UI Emoji" font-size="14.502877192023401px" fill="#e03131" text-anchor="middle" style="white-space: pre;" direction="ltr" dominant-baseline="alphabetic">order-validated</text></g><g stroke-linecap="round" transform="translate(10 174.14808171296318) rotate(0 363.9892820258606 24.21809380913328)"><path d="M0 0 C285.24 0.25, 569.12 1.06, 727.98 0 M0 0 C241.62 3.26, 483.94 2.67, 727.98 0 M727.98 0 C728.24 20.18, 728.33 38.4, 727.98 48.44 M727.98 0 C727.31 16.05, 727.69 31.09, 727.98 48.44 M727.98 48.44 C443.58 45.31, 160.28 46.73, 0 48.44 M727.98 48.44 C510.02 49.99, 291.63 50.11, 0 48.44 M0 48.44 C0.46 34.75, -0.88 25.17, 0 0 M0 48.44 C-0.42 30.98, -0.47 11.89, 0 0" stroke="#1e1e1e" stroke-width="1" fill="none"></path></g><g stroke-linecap="round" transform="translate(32.147847498548856 10) rotate(0 47.5952473395233 47.2351589078271)"><path d="M3.18 9.39 C3.18 9.39, 3.18 9.39, 3.18 9.39 M3.18 9.39 C3.18 9.39, 3.18 9.39, 3.18 9.39 M3.57 15.03 C4.65 12.34, 7.05 10.35, 12.1 5.22 M3.57 15.03 C7.5 10.98, 9.7 7.17, 12.1 5.22 M0.69 24.45 C7.29 18.06, 13.8 9.61, 18.4 4.07 M0.69 24.45 C5.3 19.4, 9.28 14.49, 18.4 4.07 M1.08 30.09 C7.01 20.01, 16.44 11.79, 25.36 2.17 M1.08 30.09 C6.4 24.09, 11.33 18.58, 25.36 2.17 M0.82 36.49 C11.13 23.8, 21.07 11.11, 31 1.77 M0.82 36.49 C9.53 27.41, 17.84 17.04, 31 1.77 M0.56 42.89 C13.76 31.93, 22.64 16.45, 35.99 2.13 M0.56 42.89 C14.49 26.57, 27.83 11.74, 35.99 2.13 M0.95 48.53 C13.76 34.68, 23.99 19.22, 41.63 1.74 M0.95 48.53 C15.8 30.46, 30.71 14.12, 41.63 1.74 M0.69 54.93 C14.87 37.12, 33.7 20.06, 46.62 2.1 M0.69 54.93 C11.32 41.21, 24.57 29.09, 46.62 2.1 M1.09 60.57 C18.74 39.52, 38.59 17.96, 52.26 1.7 M1.09 60.57 C18.09 39.86, 38.14 17.28, 52.26 1.7 M0.83 66.97 C18.15 46.05, 37.48 26.2, 57.25 2.06 M0.83 66.97 C15.13 51.51, 27.62 35.76, 57.25 2.06 M1.88 71.86 C20.14 49.8, 41.28 26.68, 62.23 2.42 M1.88 71.86 C25.39 44.77, 50.04 17.7, 62.23 2.42 M2.93 76.75 C27.92 50.12, 49.91 22.52, 67.88 2.03 M2.93 76.75 C25.06 53.18, 46.73 28.31, 67.88 2.03 M3.98 81.63 C23.25 58.7, 46.51 33.25, 72.86 2.39 M3.98 81.63 C30.35 52.22, 55.93 21.84, 72.86 2.39 M5.03 86.52 C26.99 60.88, 50.39 34.55, 78.51 1.99 M5.03 86.52 C28.24 58.63, 52.03 31.5, 78.51 1.99 M8.05 89.15 C30.15 65.72, 46.96 43.86, 82.84 3.11 M8.05 89.15 C33.19 60.66, 59.21 30.59, 82.84 3.11 M10.41 92.53 C32.99 67.63, 54.24 41.11, 87.17 4.22 M10.41 92.53 C37.71 61.07, 63.48 30.02, 87.17 4.22 M14.74 93.64 C38.05 68.81, 58.57 45.66, 90.19 6.85 M14.74 93.64 C36.24 69.74, 58.46 42.99, 90.19 6.85 M19.07 94.76 C49.06 59.29, 75.93 27.88, 92.55 10.23 M19.07 94.76 C34.85 74.33, 52.36 53.75, 92.55 10.23 M24.06 95.12 C42.78 71.71, 62.54 50.78, 93.6 15.12 M24.06 95.12 C47.43 67.99, 70.2 41.38, 93.6 15.12 M29.7 94.72 C45.89 75.76, 65.98 55.57, 94.65 20 M29.7 94.72 C50.94 71.64, 71.81 47.74, 94.65 20 M34.69 95.08 C50.19 77.57, 68.32 58.83, 96.36 24.14 M34.69 95.08 C57.47 68.66, 81.81 40.91, 96.36 24.14 M40.33 94.69 C60.2 68.61, 82.6 45.43, 96.1 30.54 M40.33 94.69 C61.01 71.67, 81.89 45.56, 96.1 30.54 M45.32 95.05 C62.54 73.83, 79.36 56.4, 95.84 36.93 M45.32 95.05 C58.29 81.88, 69.75 68.49, 95.84 36.93 M50.31 95.41 C64.26 81.4, 78.92 65.58, 96.23 42.58 M50.31 95.41 C67.19 75.97, 82.86 56.67, 96.23 42.58 M55.95 95.01 C69.36 80.77, 80.88 66.22, 95.97 48.97 M55.95 95.01 C67.14 82.8, 78.73 69.88, 95.97 48.97 M60.94 95.37 C73.01 79.97, 84.65 68.81, 95.71 55.37 M60.94 95.37 C68.94 85.03, 79.05 76.06, 95.71 55.37 M66.58 94.98 C76.55 84.38, 89.31 70.98, 96.1 61.02 M66.58 94.98 C72.37 86.93, 80.06 79.6, 96.1 61.02 M72.22 94.58 C78.46 84.63, 87.25 78.24, 95.84 67.41 M72.22 94.58 C80.4 85.59, 87.92 75.03, 95.84 67.41 M78.52 93.43 C85.18 87.32, 88.17 80.91, 95.58 73.81 M78.52 93.43 C83.5 87.21, 90.64 79.61, 95.58 73.81 M85.48 91.53 C87.98 87.75, 90.23 86.23, 97.29 77.94 M85.48 91.53 C87.69 88.25, 90.87 84.53, 97.29 77.94" stroke="#b2f2bb" stroke-width="0.5" fill="none"></path><path d="M23.62 0 C35.7 1.02, 50.49 0.05, 71.57 0 M23.62 0 C34.18 -0.98, 43.9 -1.29, 71.57 0 M71.57 0 C86.97 0.66, 96.12 8.63, 95.19 23.62 M71.57 0 C87.21 0.59, 94.04 7.47, 95.19 23.62 M95.19 23.62 C94.43 37.55, 96.76 46.21, 95.19 70.85 M95.19 23.62 C95.69 34.96, 94.19 46.87, 95.19 70.85 M95.19 70.85 C96.06 86.14, 86.93 94.63, 71.57 94.47 M95.19 70.85 C93.88 86.47, 88.2 94.97, 71.57 94.47 M71.57 94.47 C63.36 96.26, 52.81 94.52, 23.62 94.47 M71.57 94.47 C52.93 94.37, 34.32 93.61, 23.62 94.47 M23.62 94.47 C7.18 95.34, -1.21 85.72, 0 70.85 M23.62 94.47 C8.13 93.53, 0.27 87.8, 0 70.85 M0 70.85 C1.75 54.78, -1.69 44.09, 0 23.62 M0 70.85 C-0.51 56.35, 0.85 43.13, 0 23.62 M0 23.62 C0.95 6.55, 7.43 -1.5, 23.62 0 M0 23.62 C-0.2 7.32, 9.58 -1.95, 23.62 0" stroke="#1e1e1e" stroke-width="1" fill="none"></path></g><g transform="translate(58.50286046307215 48.53343259261328) rotate(0 21.240234375 8.701726315213818)"><text x="21.240234375" y="14.004340788547596" font-family="Cascadia, Segoe UI Emoji" font-size="14.502877192023401px" fill="#1e1e1e" text-anchor="middle" style="white-space: pre;" direction="ltr" dominant-baseline="alphabetic">order</text></g><g stroke-linecap="round"><g transform="translate(59.66823243800212 109.32117074815142) rotate(0 -0.10831086108674981 30.895589879412)"><path d="M0 0 C-1.85 19.91, 1.99 43.26, -0.22 61.79 M0 0 C0.37 15.7, 0.96 31.12, -0.22 61.79" stroke="#1e1e1e" stroke-width="1" fill="none"></path></g><g transform="translate(59.66823243800212 109.32117074815142) rotate(0 -0.10831086108674981 30.895589879412)"><path d="M-8.14 38.08 C-7.38 45.23, -0.81 55.81, -0.22 61.79 M-8.14 38.08 C-6.11 44.37, -3.5 50.32, -0.22 61.79" stroke="#1e1e1e" stroke-width="1" fill="none"></path></g><g transform="translate(59.66823243800212 109.32117074815142) rotate(0 -0.10831086108674981 30.895589879412)"><path d="M8.96 38.53 C3.98 45.51, 4.82 55.93, -0.22 61.79 M8.96 38.53 C6.73 44.57, 5.09 50.41, -0.22 61.79" stroke="#1e1e1e" stroke-width="1" fill="none"></path></g></g><mask></mask><g stroke-linecap="round" transform="translate(154.7986161502979 303.25528063382444) rotate(0 52.163663402622916 46.45311520485711)"><path d="M3.07 9.3 C3.07 9.3, 3.07 9.3, 3.07 9.3 M3.07 9.3 C3.07 9.3, 3.07 9.3, 3.07 9.3 M0.84 17.96 C4.65 14.36, 9.25 5.48, 14.62 2.11 M0.84 17.96 C4.4 13.83, 8.67 9.67, 14.62 2.11 M0.58 24.36 C5.53 18.46, 11.26 11.44, 20.92 0.96 M0.58 24.36 C7.52 15.57, 13.73 8.53, 20.92 0.96 M0.98 30 C8.12 22.64, 14.39 14.46, 26.56 0.56 M0.98 30 C10.54 18.52, 20.26 6.87, 26.56 0.56 M0.71 36.4 C7.22 28.31, 16.39 19.76, 31.55 0.93 M0.71 36.4 C6.91 29.14, 15.88 19.67, 31.55 0.93 M0.45 42.79 C10.75 33, 17.37 22.13, 37.19 0.53 M0.45 42.79 C11.52 29.18, 24.38 14.36, 37.19 0.53 M0.85 48.44 C10.75 37.05, 17.97 26.18, 42.18 0.89 M0.85 48.44 C11.43 34.7, 23.46 23.17, 42.18 0.89 M0.59 54.84 C14.8 35.12, 30.27 20.68, 47.82 0.5 M0.59 54.84 C16.1 35.42, 33.07 17.18, 47.82 0.5 M0.98 60.48 C15.45 40.73, 31.79 26.49, 52.81 0.86 M0.98 60.48 C11.22 47.86, 21.84 36.38, 52.81 0.86 M0.72 66.88 C18.64 47.1, 38.36 23.16, 58.45 0.46 M0.72 66.88 C22.83 39.97, 45.95 14.72, 58.45 0.46 M0.46 73.27 C17.18 52.74, 34.77 34.79, 63.44 0.82 M0.46 73.27 C18.07 52.45, 37.47 30.02, 63.44 0.82 M2.16 77.41 C24.45 50.37, 52.07 22.42, 68.43 1.18 M2.16 77.41 C28.74 45.88, 55.85 16.45, 68.43 1.18 M3.87 81.54 C25.8 56.54, 49.47 29.64, 74.07 0.79 M3.87 81.54 C22.24 59.26, 41.66 37.9, 74.07 0.79 M5.58 85.67 C26.11 63.07, 43.44 41.33, 79.06 1.15 M5.58 85.67 C21.17 69.61, 35.71 50.81, 79.06 1.15 M8.6 88.3 C33.49 58.14, 61.1 29.5, 84.7 0.75 M8.6 88.3 C24.09 70.51, 39.99 52.14, 84.7 0.75 M12.27 90.17 C36.91 61.11, 62.32 28.74, 89.03 1.87 M12.27 90.17 C29.66 70.71, 47.97 49.6, 89.03 1.87 M15.95 92.04 C41.54 62.05, 69.26 33.66, 92.71 3.74 M15.95 92.04 C30.37 74.32, 45.41 55.05, 92.71 3.74 M20.93 92.4 C46.21 62.19, 69.53 34.49, 96.38 5.61 M20.93 92.4 C38.33 73.75, 53.03 55.61, 96.38 5.61 M25.92 92.76 C47.01 70.26, 65.39 46.69, 100.06 7.48 M25.92 92.76 C51.76 64.09, 76.5 37.05, 100.06 7.48 M30.91 93.12 C50.13 70.28, 72.54 46.98, 101.76 11.61 M30.91 93.12 C51 70.92, 69.94 50.07, 101.76 11.61 M36.55 92.72 C61.01 61.15, 89.14 32.45, 103.47 15.74 M36.55 92.72 C56.75 68.23, 76.19 45.13, 103.47 15.74 M41.54 93.08 C62.2 66.21, 87.89 39.79, 103.86 21.39 M41.54 93.08 C53.76 78.26, 66.06 63.35, 103.86 21.39 M47.18 92.69 C66.13 71.94, 87.54 48.32, 104.91 26.27 M47.18 92.69 C67.52 69.29, 89.2 46.1, 104.91 26.27 M52.17 93.05 C71.05 71.83, 88.88 48.4, 104.65 32.67 M52.17 93.05 C64.53 79, 77.11 64.27, 104.65 32.67 M57.81 92.65 C67.89 79.58, 81.05 67.49, 104.39 39.07 M57.81 92.65 C75.04 71.44, 93.26 50.16, 104.39 39.07 M62.8 93.01 C76.75 74.97, 90.75 61.49, 104.79 44.71 M62.8 93.01 C74.16 79, 86.81 66.48, 104.79 44.71 M67.78 93.37 C80.24 76.86, 92.9 64.17, 104.52 51.11 M67.78 93.37 C77.73 82.22, 85.49 72.37, 104.52 51.11 M73.43 92.98 C82.97 81.37, 94.35 68.34, 104.26 57.51 M73.43 92.98 C79.61 86.03, 86.93 77.05, 104.26 57.51 M78.42 93.34 C86.11 83.54, 93.7 78.05, 104.66 63.15 M78.42 93.34 C83.69 86.57, 89.59 79.84, 104.66 63.15 M84.06 92.95 C89.92 83.93, 97.4 76.93, 104.4 69.55 M84.06 92.95 C89.06 87.14, 95.59 81.57, 104.4 69.55 M90.36 91.8 C97.39 86.42, 100.42 77.88, 104.79 75.19 M90.36 91.8 C95.08 86.32, 100.41 81.81, 104.79 75.19" stroke="#b2f2bb" stroke-width="0.5" fill="none"></path><path d="M23.23 0 C41.77 2.05, 55.42 2.18, 81.1 0 M23.23 0 C36.26 0.19, 48.32 0.07, 81.1 0 M81.1 0 C95.59 -0.35, 103.46 8.31, 104.33 23.23 M81.1 0 C96.48 -1.02, 106.4 9.4, 104.33 23.23 M104.33 23.23 C104.41 35.1, 104.04 42.14, 104.33 69.68 M104.33 23.23 C104.34 39.86, 103.96 56.29, 104.33 69.68 M104.33 69.68 C105.09 85.6, 94.66 92, 81.1 92.91 M104.33 69.68 C104.63 86.96, 98.57 93.81, 81.1 92.91 M81.1 92.91 C63.97 92.65, 46.13 92.49, 23.23 92.91 M81.1 92.91 C68.4 92.72, 57.03 92.75, 23.23 92.91 M23.23 92.91 C7.98 93.95, 0.04 84.38, 0 69.68 M23.23 92.91 C9.68 94.71, -2.08 83, 0 69.68 M0 69.68 C-0.33 49.66, -1.18 34.3, 0 23.23 M0 69.68 C-0.44 54.71, -0.31 40.99, 0 23.23 M0 23.23 C1.48 6.05, 8.68 -1.09, 23.23 0 M0 23.23 C1.71 9.66, 9.42 -2.29, 23.23 0" stroke="#1e1e1e" stroke-width="1" fill="none"></path></g><g transform="translate(187.5302116818271 341.74624101753034) rotate(0 19.43206787109375 7.962154821151671)"><text x="19.43206787109375" y="12.814092915290736" font-family="Cascadia, Segoe UI Emoji" font-size="13.270258035252542px" fill="#1e1e1e" text-anchor="middle" style="white-space: pre;" direction="ltr" dominant-baseline="alphabetic">order</text></g><g stroke-linecap="round"><g transform="translate(158.1962394615161 223.58426933122973) rotate(0 13.957916273836531 38.613254008190324)"><path d="M1.17 -0.99 C5.6 12.05, 23.16 64.51, 27.71 77.62 M0.32 1.1 C4.49 13.82, 22.04 63.29, 26.65 75.71" stroke="#1e1e1e" stroke-width="1" fill="none"></path></g><g transform="translate(158.1962394615161 223.58426933122973) rotate(0 13.957916273836531 38.613254008190324)"><path d="M10.62 56.52 C15.13 63.51, 23.7 72.29, 26.65 75.71 M10.62 56.52 C15.53 62.78, 21.01 69.72, 26.65 75.71" stroke="#1e1e1e" stroke-width="1" fill="none"></path></g><g transform="translate(158.1962394615161 223.58426933122973) rotate(0 13.957916273836531 38.613254008190324)"><path d="M26.71 50.71 C24.9 60.13, 27.19 71.17, 26.65 75.71 M26.71 50.71 C26.18 58.98, 26.23 67.88, 26.65 75.71" stroke="#1e1e1e" stroke-width="1" fill="none"></path></g></g><mask></mask><g stroke-linecap="round"><g transform="translate(231.99431286191242 296.8594736391715) rotate(0 2.221014038382151 -36.637602153970874)"><path d="M-0.21 0.39 C0.43 -11.58, 4.24 -60.6, 5 -72.82 M-1.78 -0.44 C-1.35 -12.69, 3.45 -62.87, 4.35 -74.71" stroke="#1e1e1e" stroke-width="1" fill="none"></path></g><g transform="translate(231.99431286191242 296.8594736391715) rotate(0 2.221014038382151 -36.637602153970874)"><path d="M10.85 -50.57 C9.12 -59.23, 6.64 -69.85, 4.35 -74.71 M10.85 -50.57 C8.42 -58.15, 6.69 -66.74, 4.35 -74.71" stroke="#1e1e1e" stroke-width="1" fill="none"></path></g><g transform="translate(231.99431286191242 296.8594736391715) rotate(0 2.221014038382151 -36.637602153970874)"><path d="M-6.19 -52.04 C-1.16 -60.09, 3.13 -70.12, 4.35 -74.71 M-6.19 -52.04 C-3.08 -59.12, 0.74 -67.22, 4.35 -74.71" stroke="#1e1e1e" stroke-width="1" fill="none"></path></g></g><mask></mask><g stroke-linecap="round" transform="translate(259.12594312225525 14.805209998256032) rotate(0 47.5952473395233 47.2351589078271)"><path d="M3.18 9.39 C3.18 9.39, 3.18 9.39, 3.18 9.39 M3.18 9.39 C3.18 9.39, 3.18 9.39, 3.18 9.39 M1.61 17.3 C6.66 12.71, 11.6 6.06, 14.73 2.2 M1.61 17.3 C5.01 13.59, 7.82 10.03, 14.73 2.2 M0.03 25.2 C4.95 16.29, 13.36 9.24, 21.03 1.05 M0.03 25.2 C4.63 20.04, 8.84 15.37, 21.03 1.05 M-0.23 31.6 C8.94 20.23, 17.73 8.86, 26.67 0.66 M-0.23 31.6 C7.55 23.53, 14.97 14.19, 26.67 0.66 M0.17 37.24 C12.32 27.45, 20.16 13.16, 32.31 0.26 M0.17 37.24 C12.83 22.39, 24.92 9.01, 32.31 0.26 M-0.1 43.64 C11.73 30.9, 20.97 16.59, 37.3 0.62 M-0.1 43.64 C13.53 26.95, 27.25 11.99, 37.3 0.62 M0.3 49.28 C13.11 32.99, 30.61 17.45, 42.29 0.98 M0.3 49.28 C9.93 36.68, 22.19 25.71, 42.29 0.98 M0.04 55.68 C16.52 35.98, 35.17 15.8, 47.93 0.59 M0.04 55.68 C15.89 36.33, 34.76 15.11, 47.93 0.59 M-0.22 62.08 C16.09 42.35, 34.38 23.7, 52.92 0.95 M-0.22 62.08 C13.29 47.55, 24.96 32.74, 52.92 0.95 M0.17 67.72 C17.81 46.39, 38.31 24, 58.56 0.55 M0.17 67.72 C22.91 41.51, 46.79 15.33, 58.56 0.55 M0.56 73.37 C24.81 47.57, 46.06 20.82, 63.55 0.91 M0.56 73.37 C22.04 50.54, 43.05 26.43, 63.55 0.91 M1.62 78.26 C20.48 55.79, 43.34 30.8, 69.19 0.52 M1.62 78.26 C27.5 49.41, 52.58 19.59, 69.19 0.52 M2.67 83.14 C24.05 58.19, 46.84 32.55, 74.18 0.88 M2.67 83.14 C25.26 55.98, 48.42 29.57, 74.18 0.88 M5.03 86.52 C26.95 63.3, 43.59 41.64, 79.16 1.24 M5.03 86.52 C29.95 58.28, 55.75 28.47, 79.16 1.24 M7.39 89.9 C29.78 65.23, 50.84 38.93, 83.49 2.35 M7.39 89.9 C34.46 58.71, 60 27.93, 83.49 2.35 M11.07 91.77 C34.57 66.73, 55.27 43.37, 87.17 4.22 M11.07 91.77 C32.76 67.65, 55.17 40.69, 87.17 4.22 M14.74 93.64 C45.51 57.27, 73.17 24.96, 90.19 6.85 M14.74 93.64 C30.97 72.67, 48.94 51.56, 90.19 6.85 M19.73 94 C39.34 69.55, 59.98 47.6, 92.55 10.23 M19.73 94 C44.2 65.59, 68.07 37.72, 92.55 10.23 M24.72 94.36 C41.96 74.21, 63.07 52.84, 93.6 15.12 M24.72 94.36 C47.22 69.88, 69.32 44.56, 93.6 15.12 M30.36 93.97 C46.55 75.63, 65.37 56.1, 94.65 20 M30.36 93.97 C54.13 66.4, 79.49 37.49, 94.65 20 M35.35 94.33 C56.74 66.45, 80.68 41.5, 95.05 25.65 M35.35 94.33 C57.52 69.62, 79.88 41.8, 95.05 25.65 M40.33 94.69 C59.1 71.68, 77.49 52.45, 95.44 31.29 M40.33 94.69 C54.41 80.3, 66.94 65.67, 95.44 31.29 M45.98 94.29 C60.92 79.19, 76.54 62.25, 95.18 37.69 M45.98 94.29 C64.06 73.49, 80.91 52.83, 95.18 37.69 M50.96 94.65 C65.51 79.06, 78.21 63.16, 94.92 44.09 M50.96 94.65 C63.29 81.17, 76.01 66.95, 94.92 44.09 M56.61 94.26 C70.02 77.31, 83.03 64.57, 95.31 49.73 M56.61 94.26 C65.6 82.85, 76.66 72.78, 95.31 49.73 M61.59 94.62 C73 82.35, 87.22 67.27, 95.05 56.13 M61.59 94.62 C68.25 85.59, 76.82 77.26, 95.05 56.13 M67.24 94.22 C74.68 82.85, 84.69 75.06, 94.79 62.52 M67.24 94.22 C76.75 83.67, 85.64 71.54, 94.79 62.52 M72.22 94.58 C80.78 86.38, 85.62 77.85, 95.18 68.17 M72.22 94.58 C79.15 86.1, 88.24 76.26, 95.18 68.17 M78.52 93.43 C81.96 88.45, 85.18 85.96, 94.92 74.57 M78.52 93.43 C81.76 88.88, 86.09 83.81, 94.92 74.57 M85.48 91.53 C88.52 89.58, 91.99 86.15, 94.01 81.72 M85.48 91.53 C89.07 87.5, 91.61 83.89, 94.01 81.72" stroke="#b2f2bb" stroke-width="0.5" fill="none"></path><path d="M23.62 0 C37.93 -0.32, 51.24 -1.22, 71.57 0 M23.62 0 C37.12 -0.58, 51.62 0.59, 71.57 0 M71.57 0 C85.65 -1.2, 93.46 8.23, 95.19 23.62 M71.57 0 C89.41 -0.01, 93.82 9.17, 95.19 23.62 M95.19 23.62 C95.24 38.7, 94.97 56.83, 95.19 70.85 M95.19 23.62 C94.87 39.6, 95.6 54.42, 95.19 70.85 M95.19 70.85 C95.18 88.33, 87.22 94.68, 71.57 94.47 M95.19 70.85 C94.93 86.26, 86.88 92.37, 71.57 94.47 M71.57 94.47 C57.96 94.4, 45.3 94.41, 23.62 94.47 M71.57 94.47 C55.52 95.07, 36.88 93.34, 23.62 94.47 M23.62 94.47 C9.65 94.35, -1.98 86.24, 0 70.85 M23.62 94.47 C5.63 93.08, 0.87 86.74, 0 70.85 M0 70.85 C-1.18 54.27, -0.16 39.52, 0 23.62 M0 70.85 C0.52 61.51, 0.51 49.51, 0 23.62 M0 23.62 C0.45 7.16, 7.33 -0.42, 23.62 0 M0 23.62 C-1 8.43, 7.77 2.28, 23.62 0" stroke="#1e1e1e" stroke-width="1" fill="none"></path></g><g transform="translate(276.9848623367786 53.33864259086931) rotate(0 29.736328125 8.701726315213818)"><text x="29.736328125" y="14.004340788547596" font-family="Cascadia, Segoe UI Emoji" font-size="14.502877192023401px" fill="#1e1e1e" text-anchor="middle" style="white-space: pre;" direction="ltr" dominant-baseline="alphabetic">payment</text></g><g stroke-linecap="round"><g transform="translate(304.8043538675075 171.8375109638) rotate(0 1.4341282729580485 -28.570878923692817)"><path d="M-0.6 -0.21 C-0.2 -9.73, 1.78 -47.23, 2.35 -56.8 M1.29 -1.36 C1.49 -11.29, 1.01 -49.54, 1.13 -58.75" stroke="#1e1e1e" stroke-width="1" fill="none"></path></g><g transform="translate(304.8043538675075 171.8375109638) rotate(0 1.4341282729580485 -28.570878923692817)"><path d="M9.71 -35.27 C6.77 -43.11, 5.15 -49.27, 1.13 -58.75 M9.71 -35.27 C6.47 -41.8, 4.25 -47.03, 1.13 -58.75" stroke="#1e1e1e" stroke-width="1" fill="none"></path></g><g transform="translate(304.8043538675075 171.8375109638) rotate(0 1.4341282729580485 -28.570878923692817)"><path d="M-7.39 -35.25 C-5.28 -43.01, -1.85 -49.18, 1.13 -58.75 M-7.39 -35.25 C-6.26 -41.91, -4.11 -47.14, 1.13 -58.75" stroke="#1e1e1e" stroke-width="1" fill="none"></path></g></g><mask></mask><g transform="translate(608.5146890289593 193.4365246888956) rotate(0 56.25 9.599999999999909)"><text x="0" y="15.45" font-family="Cascadia, Segoe UI Emoji" font-size="16px" fill="#2f9e44" text-anchor="start" style="white-space: pre;" direction="ltr" dominant-baseline="alphabetic">Orders-Topic</text></g><g stroke-linecap="round" transform="translate(343.39573506275536 179.8695013312299) rotate(0 67.65378775917253 16.383511500000168)"><path d="M0 0 C0 0, 0 0, 0 0 M0 0 C0 0, 0 0, 0 0 M-0.26 6.4 C1.18 5.06, 2.93 1.61, 4.99 0.36 M-0.26 6.4 C1.09 4.83, 2.73 3.25, 4.99 0.36 M0.13 12.04 C2.6 8.97, 5.71 5.05, 10.63 -0.03 M0.13 12.04 C3.72 7.29, 6.71 3.93, 10.63 -0.03 M-0.13 18.44 C4.47 13.92, 8.29 8.57, 15.62 0.33 M-0.13 18.44 C5.71 11.33, 11.63 4.04, 15.62 0.33 M0.27 24.08 C4.33 18.69, 11.09 12.91, 21.26 -0.07 M0.27 24.08 C4.18 19.44, 10.84 12.63, 21.26 -0.07 M0 30.48 C7.8 23.66, 11.81 15.78, 26.25 0.29 M0 30.48 C7.65 20.86, 17.09 9.98, 26.25 0.29 M3.02 33.1 C10.11 24.97, 14.43 17.44, 31.89 -0.1 M3.02 33.1 C10.2 23.24, 18.78 15.68, 31.89 -0.1 M8.01 33.46 C16.11 20.65, 25.57 13.12, 36.88 0.26 M8.01 33.46 C17.28 21.47, 27.87 10.58, 36.88 0.26 M13.65 33.07 C21.56 21.26, 31.18 14.75, 42.52 -0.14 M13.65 33.07 C19.25 26.02, 25.17 19.95, 42.52 -0.14 M18.64 33.43 C27.33 24.28, 37.99 10.76, 47.51 0.22 M18.64 33.43 C29.51 19.82, 41.31 7.59, 47.51 0.22 M24.28 33.03 C31.85 23.31, 39.94 16.29, 53.15 -0.17 M24.28 33.03 C32.15 23.61, 41.52 12.71, 53.15 -0.17 M29.27 33.39 C38.05 22.05, 52.01 9.82, 58.14 0.19 M29.27 33.39 C40.94 19.19, 53.1 6.95, 58.14 0.19 M34.91 33 C43.77 23.6, 54 12.16, 63.78 -0.21 M34.91 33 C42.14 23.87, 50.4 15.35, 63.78 -0.21 M39.9 33.36 C48.57 24.65, 53.95 16.66, 68.77 0.15 M39.9 33.36 C46.23 27.61, 51.68 19.26, 68.77 0.15 M45.54 32.97 C54.3 21.73, 65.57 11.89, 74.41 -0.24 M45.54 32.97 C51.47 26.26, 57.83 18.86, 74.41 -0.24 M50.53 33.33 C59.26 23.01, 68.48 9.28, 79.4 0.12 M50.53 33.33 C56.62 26.4, 63.72 18.19, 79.4 0.12 M56.17 32.93 C65.66 21.32, 77.34 11.37, 85.04 -0.28 M56.17 32.93 C61.38 26.47, 66.65 18.45, 85.04 -0.28 M61.16 33.29 C71.11 20.79, 79.43 10.34, 90.03 0.08 M61.16 33.29 C68.37 26.16, 73.05 19.54, 90.03 0.08 M66.8 32.9 C76.07 24.13, 82.44 14.37, 95.67 -0.31 M66.8 32.9 C77.21 21.34, 86.73 11.81, 95.67 -0.31 M71.79 33.26 C78.71 24.49, 88.74 15.43, 100.66 0.05 M71.79 33.26 C80.49 23.99, 88.22 16.04, 100.66 0.05 M77.43 32.86 C87.42 18.48, 100.73 6.85, 106.3 -0.34 M77.43 32.86 C86.47 21.81, 94.34 12.01, 106.3 -0.34 M82.42 33.22 C91.27 20.26, 104.84 7.78, 111.29 0.02 M82.42 33.22 C87.93 26.41, 93.36 19.39, 111.29 0.02 M88.06 32.83 C96.71 23.6, 108.04 11.57, 116.27 0.38 M88.06 32.83 C97.83 21.44, 108.96 10.4, 116.27 0.38 M93.05 33.19 C103.61 21.63, 112.96 7.96, 121.92 -0.02 M93.05 33.19 C99.73 25.87, 106.64 17.67, 121.92 -0.02 M98.69 32.79 C104.47 24.57, 113.35 17.39, 126.91 0.34 M98.69 32.79 C108.81 19.98, 119.82 7, 126.91 0.34 M103.68 33.15 C112.95 20.27, 122.34 12.08, 132.55 -0.05 M103.68 33.15 C111.5 23.39, 120.5 15.08, 132.55 -0.05 M109.32 32.76 C118.19 20.27, 127.35 11.6, 136.22 1.82 M109.32 32.76 C116.81 24.46, 122.1 17.45, 136.22 1.82 M114.31 33.12 C120.86 25.04, 129.22 15.5, 135.96 8.21 M114.31 33.12 C118.49 28.41, 123.78 21.75, 135.96 8.21 M119.95 32.72 C124.73 26.34, 129.36 24.25, 135.7 14.61 M119.95 32.72 C122.83 28.68, 126.45 24.59, 135.7 14.61 M124.94 33.08 C127.91 27.76, 132.28 24.09, 136.09 20.25 M124.94 33.08 C127.59 29.96, 131.53 27.09, 136.09 20.25 M129.93 33.44 C132.89 31.27, 134.04 27.67, 135.83 26.65 M129.93 33.44 C131.86 31.21, 134.07 29.4, 135.83 26.65" stroke="#ffc9c9" stroke-width="0.5" fill="none"></path><path d="M0 0 C37.89 1.54, 76.43 -1.15, 135.31 0 M0 0 C35.32 -0.67, 68.91 -0.2, 135.31 0 M135.31 0 C135.05 9.28, 133.52 18.64, 135.31 32.77 M135.31 0 C135.22 10.85, 135.23 23.03, 135.31 32.77 M135.31 32.77 C95.99 32.1, 51.67 35.69, 0 32.77 M135.31 32.77 C94.53 31.92, 56.09 32.59, 0 32.77 M0 32.77 C-1.28 21.21, -0.26 11.48, 0 0 M0 32.77 C0.59 26.54, 0.58 17.65, 0 0" stroke="#e03131" stroke-width="1" fill="none"></path></g><g transform="translate(373.5586780953654 188.57139236418607) rotate(0 37.49084472656247 7.681620467044013)"><text x="37.4908447265625" y="12.362607939148743" font-family="Cascadia, Segoe UI Emoji" font-size="12.802700778406466px" fill="#e03131" text-anchor="middle" style="white-space: pre;" direction="ltr" dominant-baseline="alphabetic">order-paid</text></g><g stroke-linecap="round"><g transform="translate(347.58931864695427 118.11775339441556) rotate(0 4.399993896484375 27.599990844726562)"><path d="M0.91 -0.54 C2.22 8.81, 6.8 46.6, 8.19 55.7 M-0.07 1.8 C1.6 10.81, 9.11 45.01, 10.58 53.84" stroke="#1e1e1e" stroke-width="1" fill="none"></path></g><g transform="translate(347.58931864695427 118.11775339441556) rotate(0 4.399993896484375 27.599990844726562)"><path d="M-2.33 32.44 C0.96 38.36, 6.94 47.19, 10.58 53.84 M-2.33 32.44 C0.54 37.51, 3.84 40.83, 10.58 53.84" stroke="#1e1e1e" stroke-width="1" fill="none"></path></g><g transform="translate(347.58931864695427 118.11775339441556) rotate(0 4.399993896484375 27.599990844726562)"><path d="M14.45 29.15 C12.21 36.28, 12.67 46.19, 10.58 53.84 M14.45 29.15 C13.88 35.06, 13.73 39.06, 10.58 53.84" stroke="#1e1e1e" stroke-width="1" fill="none"></path></g></g><mask></mask></svg>