<svg version="1.1" xmlns="http://www.w3.org/2000/svg" viewBox="0 0 747.978564051721 508.0875157123073" width="747.978564051721" height="508.0875157123073">
  <!-- svg-source:excalidraw -->
  
  <defs>
    <style class="style-fonts">
      @font-face {
        font-family: "Virgil";
        src: url("https://excalidraw.com/Virgil.woff2");
      }
      @font-face {
        font-family: "Cascadia";
        src: url("https://excalidraw.com/Cascadia.woff2");
      }
      @font-face {
        font-family: "Assistant";
        src: url("https://excalidraw.com/Assistant-Regular.woff2");
      }
    </style>
    
  </defs>
  <rect x="0" y="0" width="747.978564051721" height="508.0875157123073" fill="#f8f9fa"></rect><g stroke-linecap="round" transform="translate(26.085199074975577 281.7955058883417) rotate(0 74.70840301458601 16.383511452070252)"><path d="M0 0 C0 0, 0 0, 0 0 M0 0 C0 0, 0 0, 0 0 M-0.26 6.4 C1.46 3.92, 3.52 2.74, 4.99 0.36 M-0.26 6.4 C1.86 4.35, 3.94 2.03, 4.99 0.36 M0.13 12.04 C3.15 9.84, 4.25 8.54, 10.63 -0.03 M0.13 12.04 C3.56 8.77, 5.93 4.92, 10.63 -0.03 M-0.13 18.44 C7.77 10.48, 10.24 6.02, 15.62 0.33 M-0.13 18.44 C3.48 15.25, 6.86 11.23, 15.62 0.33 M0.27 24.08 C5.57 17.17, 12.6 12.54, 21.26 -0.07 M0.27 24.08 C6.06 18.54, 11.55 12.32, 21.26 -0.07 M0 30.48 C7.18 23.04, 14.43 13.85, 26.25 0.29 M0 30.48 C8.42 21.88, 17.24 12.65, 26.25 0.29 M1.71 34.61 C11.1 26.11, 16.52 14.68, 31.89 -0.1 M1.71 34.61 C10.71 25.19, 18.81 14.18, 31.89 -0.1 M7.35 34.22 C14.04 26.26, 23.83 16.54, 36.88 0.26 M7.35 34.22 C19.87 21.5, 31.21 6.61, 36.88 0.26 M12.34 34.58 C19.82 24.26, 28.9 15.58, 42.52 -0.14 M12.34 34.58 C23.17 21.11, 34.17 9.17, 42.52 -0.14 M17.98 34.18 C26.68 23.11, 37.58 9.3, 47.51 0.22 M17.98 34.18 C24.49 25.91, 33.18 17.42, 47.51 0.22 M22.97 34.54 C32.95 26.98, 40.83 18.08, 53.15 -0.17 M22.97 34.54 C31.68 24.74, 40.34 15.18, 53.15 -0.17 M28.61 34.15 C36.81 21.94, 47.36 14.61, 58.14 0.19 M28.61 34.15 C37.34 24.87, 44.94 15.35, 58.14 0.19 M33.6 34.51 C39.05 26.56, 49.66 18.86, 63.78 -0.21 M33.6 34.51 C43.99 23.77, 54.38 10.44, 63.78 -0.21 M39.24 34.12 C46.97 28.07, 50.87 19.91, 68.77 0.15 M39.24 34.12 C50.94 21.35, 61.15 9.07, 68.77 0.15 M44.23 34.48 C52.68 27.97, 58.01 16.47, 74.41 -0.24 M44.23 34.48 C49.75 27.48, 56.35 20.61, 74.41 -0.24 M49.87 34.08 C62.23 20.17, 72.51 8.93, 79.4 0.12 M49.87 34.08 C56.16 26.88, 63.21 20.21, 79.4 0.12 M54.86 34.44 C65.7 25.34, 75.1 12.79, 85.04 -0.28 M54.86 34.44 C62.66 23.94, 71.72 15.46, 85.04 -0.28 M60.51 34.05 C69.88 20.81, 83.46 7.34, 90.03 0.08 M60.51 34.05 C69.76 23.05, 80.14 10.92, 90.03 0.08 M65.49 34.41 C71.15 26.26, 80.57 19.27, 95.67 -0.31 M65.49 34.41 C73.55 24.77, 82.18 14.17, 95.67 -0.31 M70.48 34.77 C78.54 24.23, 90.54 12.33, 100.66 0.05 M70.48 34.77 C80.81 22.52, 90.21 11.73, 100.66 0.05 M76.12 34.37 C84.83 22.79, 98.16 8.13, 106.3 -0.34 M76.12 34.37 C85.33 23.66, 94.78 11.21, 106.3 -0.34 M81.11 34.73 C92.11 22.71, 101.47 13.57, 111.29 0.02 M81.11 34.73 C88.34 26.73, 94.93 18.85, 111.29 0.02 M86.75 34.34 C93.58 25.91, 99.68 16.69, 116.27 0.38 M86.75 34.34 C97.19 21.92, 107.84 9.98, 116.27 0.38 M91.74 34.7 C99.17 29.02, 105.63 20.97, 121.92 -0.02 M91.74 34.7 C100.48 25.57, 107.9 16.7, 121.92 -0.02 M97.38 34.3 C103.42 25.2, 112 17.67, 126.91 0.34 M97.38 34.3 C104.44 27.61, 109.77 19.68, 126.91 0.34 M102.37 34.66 C113.39 23.89, 123.61 12.49, 132.55 -0.05 M102.37 34.66 C112.7 21.48, 124 8.02, 132.55 -0.05 M108.01 34.27 C117.72 22.11, 131.98 8.41, 137.54 0.31 M108.01 34.27 C118.01 23.41, 128.85 10.71, 137.54 0.31 M113 34.63 C125.02 22.83, 136.74 7.37, 143.18 -0.09 M113 34.63 C121.39 26.23, 129.24 15.37, 143.18 -0.09 M118.64 34.23 C131.52 20.06, 141.83 7.85, 148.17 0.27 M118.64 34.23 C124.8 26.69, 131.25 20.91, 148.17 0.27 M123.63 34.59 C130.35 25.99, 140.17 16.86, 151.84 2.14 M123.63 34.59 C133.89 22.35, 144.15 11.69, 151.84 2.14 M129.27 34.2 C136.65 26.01, 145.34 16.62, 151.58 8.54 M129.27 34.2 C137.84 25.33, 145.26 15.98, 151.58 8.54 M134.26 34.56 C139.39 25.75, 146.82 18.83, 151.97 14.18 M134.26 34.56 C138.69 29.19, 144.03 22.65, 151.97 14.18 M139.9 34.16 C142.48 28.11, 148.15 23.08, 151.71 20.58 M139.9 34.16 C144.62 29.32, 147.74 23.87, 151.71 20.58 M144.89 34.52 C148.26 31.79, 150.64 28.08, 152.11 26.22 M144.89 34.52 C146.43 32.39, 148.12 30.74, 152.11 26.22" stroke="#ffc9c9" stroke-width="0.5" fill="none"></path><path d="M0 0 C47.87 -2.14, 95.25 -1.76, 149.42 0 M0 0 C46.88 -0.55, 94.83 -0.1, 149.42 0 M149.42 0 C148.21 11.7, 150.77 22.65, 149.42 32.77 M149.42 0 C150 13.59, 149.12 25.72, 149.42 32.77 M149.42 32.77 C113.67 34.1, 73.78 32.08, 0 32.77 M149.42 32.77 C111.78 33.04, 75.82 33.94, 0 32.77 M0 32.77 C-0.99 27.29, 1.16 20.04, 0 0 M0 32.77 C-0.87 24.86, -0.72 19, 0 0" stroke="#e03131" stroke-width="1" fill="none"></path></g><g transform="translate(37.0728989645616 289.4772910251977) rotate(0 63.720703125 8.701726315213818)"><text x="63.720703125" y="14.004340788547596" font-family="Cascadia, Segoe UI Emoji" font-size="14.502877192023401px" fill="#e03131" text-anchor="middle" style="white-space: pre;" direction="ltr" dominant-baseline="alphabetic">order-requested</text></g><g stroke-linecap="round" transform="translate(186.27678160877667 281.7955059821725) rotate(0 71.65378775917253 16.383511452070252)"><path d="M0 0 C0 0, 0 0, 0 0 M0 0 C0 0, 0 0, 0 0 M-0.26 6.4 C1.4 4.42, 2.14 4.04, 4.99 0.36 M-0.26 6.4 C1.23 4.12, 3.85 2.2, 4.99 0.36 M0.13 12.04 C3.16 7.73, 6.37 5.18, 10.63 -0.03 M0.13 12.04 C4.01 8.11, 7.23 5.4, 10.63 -0.03 M-0.13 18.44 C2.34 13.54, 7.32 9.52, 15.62 0.33 M-0.13 18.44 C5.28 11.05, 11.02 4.78, 15.62 0.33 M0.27 24.08 C4.94 19.54, 9.33 12.17, 21.26 -0.07 M0.27 24.08 C8 15.01, 16.41 5.61, 21.26 -0.07 M0 30.48 C10.89 18.19, 21.27 6.75, 26.25 0.29 M0 30.48 C9.38 18.2, 20.38 7.86, 26.25 0.29 M1.71 34.61 C12.57 22.72, 24.56 10.81, 31.89 -0.1 M1.71 34.61 C12.1 23.07, 22.6 9.67, 31.89 -0.1 M7.35 34.22 C20.42 20.85, 29.3 9.96, 36.88 0.26 M7.35 34.22 C17.65 22.09, 27.88 9.46, 36.88 0.26 M12.34 34.58 C22.03 25.86, 29.7 15.49, 42.52 -0.14 M12.34 34.58 C19.3 26.87, 26.49 18.73, 42.52 -0.14 M17.98 34.18 C26.89 23.14, 38.95 10.14, 47.51 0.22 M17.98 34.18 C26.96 22.23, 37.46 12.95, 47.51 0.22 M22.97 34.54 C33.56 20.16, 45.42 8.42, 53.15 -0.17 M22.97 34.54 C31.4 25.48, 40.41 14.67, 53.15 -0.17 M28.61 34.15 C34.66 25.02, 40.26 19.08, 58.14 0.19 M28.61 34.15 C38.21 23.03, 49.17 10.46, 58.14 0.19 M33.6 34.51 C44.75 22.61, 52.53 10.34, 63.78 -0.21 M33.6 34.51 C44.59 22, 56.81 8.27, 63.78 -0.21 M39.24 34.12 C52.52 21.13, 60.49 8.86, 68.77 0.15 M39.24 34.12 C46.68 25.42, 54.48 16.42, 68.77 0.15 M44.23 34.48 C53.87 23.25, 65.84 7.38, 74.41 -0.24 M44.23 34.48 C54.99 22.3, 63.26 12.12, 74.41 -0.24 M49.87 34.08 C54.3 26.43, 60.69 19.51, 79.4 0.12 M49.87 34.08 C57.85 24.15, 65.19 15.94, 79.4 0.12 M54.86 34.44 C65.06 22.59, 75.3 8.2, 85.04 -0.28 M54.86 34.44 C62.68 25.48, 68.62 17.25, 85.04 -0.28 M60.51 34.05 C69.25 26.68, 75.05 14.8, 90.03 0.08 M60.51 34.05 C69.55 22.54, 79.72 11.1, 90.03 0.08 M65.49 34.41 C74.55 25.29, 84.22 11.84, 95.67 -0.31 M65.49 34.41 C77.12 21.86, 88.32 8.02, 95.67 -0.31 M70.48 34.77 C81.85 23.42, 91.86 10.86, 100.66 0.05 M70.48 34.77 C78.15 27.31, 85.47 17.62, 100.66 0.05 M76.12 34.37 C86.43 22.99, 97.1 10.5, 106.3 -0.34 M76.12 34.37 C86.86 22.55, 98.03 11.43, 106.3 -0.34 M81.11 34.73 C87.08 25.55, 95.43 17.74, 111.29 0.02 M81.11 34.73 C88.22 26.24, 95.64 16.82, 111.29 0.02 M86.75 34.34 C96.6 25.37, 103.28 14.71, 116.27 0.38 M86.75 34.34 C95.69 22.19, 105.7 12.53, 116.27 0.38 M91.74 34.7 C102.6 21.68, 113.73 9.36, 121.92 -0.02 M91.74 34.7 C100.01 23.85, 109.9 13.47, 121.92 -0.02 M97.38 34.3 C103.45 26.7, 114.49 18.26, 126.91 0.34 M97.38 34.3 C109.2 21.09, 120.96 8.41, 126.91 0.34 M102.37 34.66 C114.34 23.78, 124.94 8.68, 132.55 -0.05 M102.37 34.66 C111.76 25.14, 119.96 14.65, 132.55 -0.05 M108.01 34.27 C118.76 23.26, 126.48 10.78, 137.54 0.31 M108.01 34.27 C119.76 22.05, 130.82 9.21, 137.54 0.31 M113 34.63 C124.33 19.11, 135.74 6.78, 143.18 -0.09 M113 34.63 C126.06 20.92, 138.11 7.92, 143.18 -0.09 M118.64 34.23 C124.08 27.14, 133.89 17.91, 146.2 2.54 M118.64 34.23 C125.33 25.28, 132.8 17.04, 146.2 2.54 M123.63 34.59 C132.48 26.85, 138.24 17.32, 145.94 8.93 M123.63 34.59 C129.64 27.64, 134.86 21.19, 145.94 8.93 M129.27 34.2 C135.75 29.71, 137.52 23.25, 146.33 14.58 M129.27 34.2 C135.92 26.61, 141.19 19.73, 146.33 14.58 M134.26 34.56 C136.47 32.79, 140.9 28, 146.07 20.97 M134.26 34.56 C138.47 30.83, 142.47 25.04, 146.07 20.97 M139.9 34.16 C142.04 32.68, 141.96 31.27, 146.46 26.62 M139.9 34.16 C142.24 32.03, 144.04 29.98, 146.46 26.62" stroke="#ffc9c9" stroke-width="0.5" fill="none"></path><path d="M0 0 C38.26 -0.33, 75.5 -1.1, 143.31 0 M0 0 C32.29 1.45, 63.57 -0.32, 143.31 0 M143.31 0 C145.17 12.01, 143.34 24.72, 143.31 32.77 M143.31 0 C142.66 13.18, 142.87 26.6, 143.31 32.77 M143.31 32.77 C86.21 33.89, 31.71 31.72, 0 32.77 M143.31 32.77 C101.44 33.15, 61.01 33.25, 0 32.77 M0 32.77 C-1.83 20, -1.76 5.68, 0 0 M0 32.77 C0.67 26.27, -0.73 18.54, 0 0" stroke="#e03131" stroke-width="1" fill="none"></path></g><g transform="translate(194.2098662429492 289.47729111902845) rotate(0 63.720703125 8.701726315213818)"><text x="63.720703125" y="14.004340788547596" font-family="Cascadia, Segoe UI Emoji" font-size="14.502877192023401px" fill="#e03131" text-anchor="middle" style="white-space: pre;" direction="ltr" dominant-baseline="alphabetic">order-validated</text></g><g stroke-linecap="round" transform="translate(10 276.07408638173274) rotate(0 363.9892820258605 24.21809380913328)"><path d="M0 0 C175.44 -1.09, 350.73 -1.68, 727.98 0 M0 0 C213.46 -2.64, 426.97 -2.78, 727.98 0 M727.98 0 C726.26 12.75, 727.22 27.14, 727.98 48.44 M727.98 0 C728.51 16.62, 726.96 31.01, 727.98 48.44 M727.98 48.44 C521.47 51.62, 313.55 50.9, 0 48.44 M727.98 48.44 C567.77 46.18, 408.33 46.28, 0 48.44 M0 48.44 C1.6 40.37, -1.65 27.4, 0 0 M0 48.44 C0.47 39.28, 0.42 28.12, 0 0" stroke="#1e1e1e" stroke-width="1" fill="none"></path></g><g stroke-linecap="round" transform="translate(32.14784749854883 111.92600466876956) rotate(0 47.59524733952331 47.2351589078271)"><path d="M3.18 9.39 C3.18 9.39, 3.18 9.39, 3.18 9.39 M3.18 9.39 C3.18 9.39, 3.18 9.39, 3.18 9.39 M1.61 17.3 C8.32 11.97, 13.9 5.43, 14.73 2.2 M1.61 17.3 C6.49 11.95, 10.5 8.23, 14.73 2.2 M0.03 25.2 C7.85 19.82, 14.4 10.17, 21.03 1.05 M0.03 25.2 C5.45 18.41, 9.48 13.41, 21.03 1.05 M-0.23 31.6 C9.42 21.62, 15.78 10.99, 26.67 0.66 M-0.23 31.6 C9.91 21.1, 19.13 11.41, 26.67 0.66 M0.17 37.24 C10.6 27.53, 16.74 15.62, 32.31 0.26 M0.17 37.24 C9.11 26.65, 18.78 17.33, 32.31 0.26 M-0.1 43.64 C11.15 28.96, 25.39 14.5, 37.3 0.62 M-0.1 43.64 C10.52 31.39, 20.04 18.79, 37.3 0.62 M0.3 49.28 C13.38 36.18, 25.96 19.26, 42.29 0.98 M0.3 49.28 C9.88 39.48, 18.95 27.88, 42.29 0.98 M0.04 55.68 C11.54 42.87, 23.54 28.45, 47.93 0.59 M0.04 55.68 C16.66 35.85, 35.95 14.87, 47.93 0.59 M-0.22 62.08 C12.73 46.51, 25.18 33.53, 52.92 0.95 M-0.22 62.08 C17.4 42.93, 35.47 22.62, 52.92 0.95 M0.17 67.72 C21.35 46.36, 37.3 23.06, 58.56 0.55 M0.17 67.72 C23.54 40.78, 45.75 16.71, 58.56 0.55 M0.56 73.37 C20.89 49.28, 42.06 25.23, 63.55 0.91 M0.56 73.37 C24.26 47, 44.99 20.59, 63.55 0.91 M1.62 78.26 C27.93 48.49, 54.39 21.75, 69.19 0.52 M1.62 78.26 C18.13 59.06, 35.37 38.66, 69.19 0.52 M2.67 83.14 C22.64 61.87, 43.5 37.81, 74.18 0.88 M2.67 83.14 C22.33 62.31, 39.73 40.07, 74.18 0.88 M5.03 86.52 C27.86 58.97, 54.61 33.69, 79.16 1.24 M5.03 86.52 C21.62 68.34, 37.93 49.32, 79.16 1.24 M7.39 89.9 C37.97 56.34, 66.07 21.4, 83.49 2.35 M7.39 89.9 C26.39 69.11, 45.89 47.14, 83.49 2.35 M11.07 91.77 C41.65 56.71, 70.35 25.12, 87.17 4.22 M11.07 91.77 C35.8 64.24, 60.21 36.2, 87.17 4.22 M14.74 93.64 C40.18 62.06, 68.54 32.79, 90.19 6.85 M14.74 93.64 C42.84 62.24, 69.91 29.18, 90.19 6.85 M19.73 94 C42.28 67.93, 61.46 43.92, 92.55 10.23 M19.73 94 C39.52 70.04, 61.35 44.46, 92.55 10.23 M24.72 94.36 C44.49 71.47, 64.43 46.34, 93.6 15.12 M24.72 94.36 C48.16 67.44, 70.58 42.46, 93.6 15.12 M30.36 93.97 C50.84 69.56, 72.26 46.52, 94.65 20 M30.36 93.97 C44.58 78.95, 57.42 63.23, 94.65 20 M35.35 94.33 C55.15 71.76, 75.43 47.84, 95.05 25.65 M35.35 94.33 C49.59 77.63, 64.85 59.59, 95.05 25.65 M40.33 94.69 C61.77 70.69, 80.76 48.42, 95.44 31.29 M40.33 94.69 C56.94 75.94, 73.58 57.19, 95.44 31.29 M45.98 94.29 C64.2 72.06, 81.85 52.52, 95.18 37.69 M45.98 94.29 C60.82 78.54, 75.11 61.27, 95.18 37.69 M50.96 94.65 C67.25 78.92, 79.92 63.17, 94.92 44.09 M50.96 94.65 C66.43 77.59, 80.39 59.84, 94.92 44.09 M56.61 94.26 C66.89 83.74, 72.33 77.41, 95.31 49.73 M56.61 94.26 C67.2 81.02, 79.06 66.91, 95.31 49.73 M61.59 94.62 C72.96 81.59, 87.8 65.77, 95.05 56.13 M61.59 94.62 C69.76 85.88, 77.74 77.37, 95.05 56.13 M67.24 94.22 C76.18 83.06, 88.34 72.36, 94.79 62.52 M67.24 94.22 C75.26 85.91, 82.62 76.77, 94.79 62.52 M72.22 94.58 C81.9 83.8, 90.81 76.24, 95.18 68.17 M72.22 94.58 C76.9 88.34, 82.52 82.07, 95.18 68.17 M78.52 93.43 C85.05 87.08, 89.11 80.31, 94.92 74.57 M78.52 93.43 C83.78 86.69, 89.66 80.19, 94.92 74.57 M85.48 91.53 C88.31 87.23, 90.34 86, 94.01 81.72 M85.48 91.53 C88.36 88.66, 90.68 84.79, 94.01 81.72" stroke="#b2f2bb" stroke-width="0.5" fill="none"></path><path d="M23.62 0 C42.6 -0.2, 58.05 0.7, 71.57 0 M23.62 0 C42.15 -0.09, 61.42 0.3, 71.57 0 M71.57 0 C89.14 -1.98, 94.99 6.85, 95.19 23.62 M71.57 0 C88.77 0.63, 94.15 7.56, 95.19 23.62 M95.19 23.62 C94.13 41.04, 94.33 60.83, 95.19 70.85 M95.19 23.62 C95.53 39.17, 94.7 55.51, 95.19 70.85 M95.19 70.85 C93.71 87.37, 88.18 95.72, 71.57 94.47 M95.19 70.85 C92.94 86.63, 89.52 96.32, 71.57 94.47 M71.57 94.47 C51.2 93.77, 34.57 94.9, 23.62 94.47 M71.57 94.47 C52.28 94.39, 33.9 93.51, 23.62 94.47 M23.62 94.47 C9.69 94.07, 1.56 84.77, 0 70.85 M23.62 94.47 C8.63 94.92, 1.46 87.62, 0 70.85 M0 70.85 C2.07 55.24, 0.86 37.26, 0 23.62 M0 70.85 C-0.2 52.98, 0.18 33.81, 0 23.62 M0 23.62 C-1.06 9.46, 7.2 1.54, 23.62 0 M0 23.62 C2.14 6.76, 6 1.66, 23.62 0" stroke="#1e1e1e" stroke-width="1" fill="none"></path></g><g transform="translate(58.502860463072125 150.45943726138285) rotate(0 21.240234375 8.701726315213818)"><text x="21.240234375" y="14.004340788547596" font-family="Cascadia, Segoe UI Emoji" font-size="14.502877192023401px" fill="#1e1e1e" text-anchor="middle" style="white-space: pre;" direction="ltr" dominant-baseline="alphabetic">order</text></g><g stroke-linecap="round"><g transform="translate(59.66823243800212 211.24717541692098) rotate(0 -0.10831086108674981 30.895589879412)"><path d="M0 0 C1.84 18.5, 0.82 37.27, -0.22 61.79 M0 0 C0.64 18.49, -0.44 38.45, -0.22 61.79" stroke="#1e1e1e" stroke-width="1" fill="none"></path></g><g transform="translate(59.66823243800212 211.24717541692098) rotate(0 -0.10831086108674981 30.895589879412)"><path d="M-8.68 38.27 C-4.12 44.85, -2.45 51.75, -0.22 61.79 M-8.68 38.27 C-5.18 44.65, -3.52 52.54, -0.22 61.79" stroke="#1e1e1e" stroke-width="1" fill="none"></path></g><g transform="translate(59.66823243800212 211.24717541692098) rotate(0 -0.10831086108674981 30.895589879412)"><path d="M8.42 38.33 C7.67 44.99, 4.04 51.86, -0.22 61.79 M8.42 38.33 C6.53 44.78, 2.8 52.66, -0.22 61.79" stroke="#1e1e1e" stroke-width="1" fill="none"></path></g></g><mask></mask><g stroke-linecap="round" transform="translate(154.7986161502979 405.1812853025931) rotate(0 52.163663402622916 46.45311520485711)"><path d="M3.07 9.3 C3.07 9.3, 3.07 9.3, 3.07 9.3 M3.07 9.3 C3.07 9.3, 3.07 9.3, 3.07 9.3 M0.84 17.96 C3.38 15.77, 5.99 12.09, 11.34 5.88 M0.84 17.96 C4.32 14.83, 8.11 11.19, 11.34 5.88 M0.58 24.36 C6.48 19.86, 8.5 12.35, 18.29 3.98 M0.58 24.36 C6.09 19.04, 10.66 12.08, 18.29 3.98 M0.98 30 C6.21 23.74, 14.51 15.72, 25.25 2.07 M0.98 30 C11.41 19.65, 20.68 7.13, 25.25 2.07 M0.71 36.4 C8.19 26.07, 17.27 17.4, 30.89 1.68 M0.71 36.4 C11.54 22.93, 22.54 10.99, 30.89 1.68 M0.45 42.79 C11.16 29.37, 24.05 13.26, 35.88 2.04 M0.45 42.79 C8.41 32.82, 18.56 22.65, 35.88 2.04 M0.85 48.44 C13.64 37.71, 24.23 25.69, 41.52 1.65 M0.85 48.44 C12.52 35.28, 24.1 22.38, 41.52 1.65 M0.59 54.84 C13.68 36.75, 29.25 23.63, 46.51 2.01 M0.59 54.84 C14.17 40.23, 26.47 25.29, 46.51 2.01 M0.98 60.48 C11.45 46.54, 27.14 32.99, 51.5 2.37 M0.98 60.48 C18.29 41.9, 35.66 20.55, 51.5 2.37 M0.72 66.88 C14.42 53.72, 24.54 38.4, 57.14 1.97 M0.72 66.88 C22.46 42.74, 42.79 18.83, 57.14 1.97 M0.46 73.27 C16.18 58.43, 28.98 38.33, 62.13 2.33 M0.46 73.27 C12.44 58.7, 25.78 44.07, 62.13 2.33 M2.82 76.65 C28.4 48.12, 51.68 21.92, 67.77 1.94 M2.82 76.65 C16.74 61.08, 31.31 45.75, 67.77 1.94 M4.53 80.79 C27.07 58.75, 47.98 32.96, 72.76 2.3 M4.53 80.79 C23.11 57.93, 43.05 36.93, 72.76 2.3 M6.23 84.92 C32.02 53.34, 61.63 21.42, 78.4 1.9 M6.23 84.92 C29.49 57.65, 54.29 28.93, 78.4 1.9 M7.94 89.05 C24.69 68.5, 44.93 49.06, 83.39 2.26 M7.94 89.05 C28.9 63.99, 50.88 38.03, 83.39 2.26 M11.62 90.92 C35.18 62.17, 62.82 32.28, 89.03 1.87 M11.62 90.92 C37.44 60.52, 62.63 31.57, 89.03 1.87 M15.29 92.79 C40.05 61.93, 69.85 28.33, 92.71 3.74 M15.29 92.79 C39.5 64.61, 63.97 34.88, 92.71 3.74 M19.62 93.91 C45.3 64.66, 69.28 38.7, 96.38 5.61 M19.62 93.91 C37.27 74.19, 54.23 54.37, 96.38 5.61 M24.61 94.27 C42.42 73.45, 59.67 51.4, 100.06 7.48 M24.61 94.27 C52.08 62.21, 79.81 30.61, 100.06 7.48 M30.25 93.87 C47.19 77.93, 62.7 59.47, 102.42 10.85 M30.25 93.87 C50.06 72.11, 68.67 50.37, 102.42 10.85 M35.24 94.23 C51.22 73.79, 69.51 55.09, 104.78 14.23 M35.24 94.23 C50.63 77.29, 64.59 59.43, 104.78 14.23 M40.88 93.84 C63.39 69.62, 85.09 45.01, 105.18 19.88 M40.88 93.84 C63.46 65.97, 87.36 38.02, 105.18 19.88 M45.87 94.2 C67.24 68.47, 93.16 41.36, 106.23 24.77 M45.87 94.2 C66.48 71.24, 88.02 46.22, 106.23 24.77 M50.86 94.56 C72.4 71.44, 93.77 44.87, 105.96 31.16 M50.86 94.56 C66.34 78.43, 81.02 59.71, 105.96 31.16 M56.5 94.16 C77.3 70.69, 95.53 49.38, 106.36 36.81 M56.5 94.16 C66.7 81.73, 77.34 71.12, 106.36 36.81 M61.49 94.52 C73.02 80.48, 87.53 65.94, 106.1 43.2 M61.49 94.52 C77.66 75.41, 93.93 57.83, 106.1 43.2 M67.13 94.13 C79.85 79.88, 93.85 64.36, 105.84 49.6 M67.13 94.13 C81.68 78.38, 95.21 62.01, 105.84 49.6 M72.12 94.49 C83.32 78.84, 96.69 65.09, 106.23 55.24 M72.12 94.49 C80.86 83.89, 90.65 72.23, 106.23 55.24 M77.76 94.1 C85.65 81.35, 97.12 69.82, 105.97 61.64 M77.76 94.1 C88.5 82.48, 97.52 70.06, 105.97 61.64 M82.75 94.46 C92.32 85.45, 100.14 74.69, 105.71 68.04 M82.75 94.46 C88.12 87.61, 93.7 81.74, 105.71 68.04 M89.05 93.31 C92.98 88.1, 98.62 82.07, 104.79 75.19 M89.05 93.31 C93.63 88.9, 97.43 83.81, 104.79 75.19" stroke="#b2f2bb" stroke-width="0.5" fill="none"></path><path d="M23.23 0 C44.76 -0.88, 64.62 -0.46, 81.1 0 M23.23 0 C43.61 0.06, 64.82 0.85, 81.1 0 M81.1 0 C95.68 -0.27, 105.84 9.27, 104.33 23.23 M81.1 0 C94.74 -1.64, 103.96 6.34, 104.33 23.23 M104.33 23.23 C102.86 41.06, 102.94 57.34, 104.33 69.68 M104.33 23.23 C104.41 33.95, 103.01 43.44, 104.33 69.68 M104.33 69.68 C106.24 86.77, 98.32 91.26, 81.1 92.91 M104.33 69.68 C102.68 83.06, 96.18 93.01, 81.1 92.91 M81.1 92.91 C61.29 92.42, 41.84 93.56, 23.23 92.91 M81.1 92.91 C69.8 91.88, 57.26 92.99, 23.23 92.91 M23.23 92.91 C9.01 93.79, 1.08 83.2, 0 69.68 M23.23 92.91 C7.41 94.75, 1.26 85.62, 0 69.68 M0 69.68 C-0.86 55.51, 0.77 42.73, 0 23.23 M0 69.68 C-0.09 56.99, 1.18 42.27, 0 23.23 M0 23.23 C-1.63 9.19, 6.09 -0.22, 23.23 0 M0 23.23 C-0.72 8.11, 9.36 0.27, 23.23 0" stroke="#1e1e1e" stroke-width="1" fill="none"></path></g><g transform="translate(187.53021168182704 443.672245686299) rotate(0 19.43206787109375 7.962154821151671)"><text x="19.43206787109375" y="12.814092915290736" font-family="Cascadia, Segoe UI Emoji" font-size="13.270258035252542px" fill="#1e1e1e" text-anchor="middle" style="white-space: pre;" direction="ltr" dominant-baseline="alphabetic">order</text></g><g stroke-linecap="round"><g transform="translate(158.1962394615161 325.5102739999993) rotate(0 13.957916273836531 38.613254008190324)"><path d="M-0.39 0.65 C4.55 13.29, 24.31 63.38, 29.01 76.04 M1.6 -0.06 C6.54 12.67, 24.41 64.01, 28.64 76.95" stroke="#1e1e1e" stroke-width="1" fill="none"></path></g><g transform="translate(158.1962394615161 325.5102739999993) rotate(0 13.957916273836531 38.613254008190324)"><path d="M12.99 57.46 C17.95 64.14, 18.75 66.93, 28.64 76.95 M12.99 57.46 C16.55 62.13, 21.65 67.88, 28.64 76.95" stroke="#1e1e1e" stroke-width="1" fill="none"></path></g><g transform="translate(158.1962394615161 325.5102739999993) rotate(0 13.957916273836531 38.613254008190324)"><path d="M29.18 51.96 C30.16 59.94, 26.97 64.08, 28.64 76.95 M29.18 51.96 C28.75 58.05, 29.82 65.16, 28.64 76.95" stroke="#1e1e1e" stroke-width="1" fill="none"></path></g></g><mask></mask><g stroke-linecap="round"><g transform="translate(231.99431286191242 398.78547830794196) rotate(0 2.221014038382151 -36.637602153970874)"><path d="M1.1 -1.19 C1.88 -13.61, 3.64 -61.93, 4.32 -73.89 M0.21 0.8 C0.86 -11.52, 2.55 -60.63, 3.31 -72.67" stroke="#1e1e1e" stroke-width="1" fill="none"></path></g><g transform="translate(231.99431286191242 398.78547830794196) rotate(0 2.221014038382151 -36.637602153970874)"><path d="M10.75 -48.81 C6.66 -55.31, 5.63 -60.23, 3.31 -72.67 M10.75 -48.81 C9.18 -55.87, 5.19 -65.16, 3.31 -72.67" stroke="#1e1e1e" stroke-width="1" fill="none"></path></g><g transform="translate(231.99431286191242 398.78547830794196) rotate(0 2.221014038382151 -36.637602153970874)"><path d="M-6.33 -49.61 C-5.86 -56.06, -2.32 -60.76, 3.31 -72.67 M-6.33 -49.61 C-2.31 -56.39, -0.71 -65.41, 3.31 -72.67" stroke="#1e1e1e" stroke-width="1" fill="none"></path></g></g><mask></mask><g stroke-linecap="round" transform="translate(259.12594312225525 116.7312146670256) rotate(0 47.5952473395233 47.2351589078271)"><path d="M3.18 9.39 C3.18 9.39, 3.18 9.39, 3.18 9.39 M3.18 9.39 C3.18 9.39, 3.18 9.39, 3.18 9.39 M3.57 15.03 C6.88 11.64, 7.97 9.96, 12.1 5.22 M3.57 15.03 C5.93 11.91, 9.1 9.53, 12.1 5.22 M0.69 24.45 C6.77 16.23, 12.19 9.5, 18.4 4.07 M0.69 24.45 C5.64 19.4, 9.78 13.05, 18.4 4.07 M1.08 30.09 C8.48 23.13, 15.06 13.14, 25.36 2.17 M1.08 30.09 C8.11 23.01, 14.04 14.96, 25.36 2.17 M0.82 36.49 C10.14 24.81, 24.79 12.7, 31 1.77 M0.82 36.49 C12.05 22.73, 24.76 8.7, 31 1.77 M0.56 42.89 C14.25 29.89, 24.46 13.07, 35.99 2.13 M0.56 42.89 C11.7 28.36, 24.62 15.22, 35.99 2.13 M0.95 48.53 C9.87 40.22, 15.83 29.97, 41.63 1.74 M0.95 48.53 C15.08 30.92, 29.32 16.22, 41.63 1.74 M0.69 54.93 C17.14 38.15, 31.15 23.64, 46.62 2.1 M0.69 54.93 C10.22 42.42, 20.39 31.94, 46.62 2.1 M1.09 60.57 C16.31 42.9, 30.92 29.63, 52.26 1.7 M1.09 60.57 C16.83 43.84, 29.87 28, 52.26 1.7 M0.83 66.97 C13.1 48.69, 29.42 32.88, 57.25 2.06 M0.83 66.97 C19.87 44.64, 39.15 23.25, 57.25 2.06 M1.88 71.86 C23.12 44.53, 47.85 21.65, 62.23 2.42 M1.88 71.86 C26.04 44.33, 48.7 16.86, 62.23 2.42 M2.93 76.75 C18.23 55.8, 35.11 35.78, 67.88 2.03 M2.93 76.75 C25.32 51.5, 45.1 28.27, 67.88 2.03 M3.98 81.63 C23.59 58.45, 43.26 35.34, 72.86 2.39 M3.98 81.63 C26.55 56.21, 47.42 31.07, 72.86 2.39 M5.03 86.52 C21.28 68.82, 35 50.5, 78.51 1.99 M5.03 86.52 C27.9 60.24, 50.41 33.58, 78.51 1.99 M8.05 89.15 C29.96 66.58, 47.43 42.27, 82.84 3.11 M8.05 89.15 C35.98 58.24, 62.7 27.06, 82.84 3.11 M10.41 92.53 C30.06 72.27, 50.84 47.73, 87.17 4.22 M10.41 92.53 C38.27 60.07, 67.13 27.57, 87.17 4.22 M14.74 93.64 C41.2 63.02, 65.64 35.35, 90.19 6.85 M14.74 93.64 C33.2 72.68, 50.29 52.55, 90.19 6.85 M19.07 94.76 C32.22 76.52, 50.56 60.66, 92.55 10.23 M19.07 94.76 C42.96 66.69, 67.59 39.5, 92.55 10.23 M24.06 95.12 C44.81 71.02, 66.54 44.1, 93.6 15.12 M24.06 95.12 C45.99 72.04, 67.5 47.66, 93.6 15.12 M29.7 94.72 C48.19 74.4, 67.76 52.6, 94.65 20 M29.7 94.72 C52.53 68.99, 73.67 42.31, 94.65 20 M34.69 95.08 C51.62 76.77, 66.54 57.79, 96.36 24.14 M34.69 95.08 C58.53 67.01, 81.62 41.37, 96.36 24.14 M40.33 94.69 C60.34 74.06, 79.1 52.19, 96.1 30.54 M40.33 94.69 C57.66 73.38, 76.55 53.95, 96.1 30.54 M45.32 95.05 C57.44 82.72, 70.96 66.26, 95.84 36.93 M45.32 95.05 C61.58 77.81, 76.85 59.05, 95.84 36.93 M50.31 95.41 C65.4 76.74, 81.91 57.62, 96.23 42.58 M50.31 95.41 C64.79 78.53, 78.58 62, 96.23 42.58 M55.95 95.01 C67.36 80.44, 79.79 67.25, 95.97 48.97 M55.95 95.01 C72.01 76.33, 86.89 60.36, 95.97 48.97 M60.94 95.37 C68.15 84.97, 76.84 73.47, 95.71 55.37 M60.94 95.37 C71.55 84.98, 80.32 73.41, 95.71 55.37 M66.58 94.98 C78.02 84.74, 84.81 70.93, 96.1 61.02 M66.58 94.98 C76.37 83.19, 85.95 73.42, 96.1 61.02 M72.22 94.58 C77.83 89.06, 83.81 83.4, 95.84 67.41 M72.22 94.58 C80.21 85.7, 88.7 75.21, 95.84 67.41 M78.52 93.43 C81.62 88.4, 84.54 85.5, 95.58 73.81 M78.52 93.43 C83.56 88.41, 89.06 82.38, 95.58 73.81 M85.48 91.53 C88.57 87.15, 94.46 81.61, 97.29 77.94 M85.48 91.53 C88.27 88.76, 90.99 86.07, 97.29 77.94" stroke="#b2f2bb" stroke-width="0.5" fill="none"></path><path d="M23.62 0 C36.08 -1.06, 52.62 1.28, 71.57 0 M23.62 0 C41.96 0.8, 59.26 -0.83, 71.57 0 M71.57 0 C85.88 -1.83, 94.84 7.96, 95.19 23.62 M71.57 0 C88.21 2.19, 95.95 7.63, 95.19 23.62 M95.19 23.62 C93.35 38.01, 94.77 50.33, 95.19 70.85 M95.19 23.62 C95.98 33.91, 95.89 42.34, 95.19 70.85 M95.19 70.85 C94.9 88.21, 88.42 94.87, 71.57 94.47 M95.19 70.85 C95 88.69, 86.83 93.97, 71.57 94.47 M71.57 94.47 C58.45 93.45, 47.31 93.84, 23.62 94.47 M71.57 94.47 C52.67 94.96, 34.58 94.13, 23.62 94.47 M23.62 94.47 C7.24 94.79, 1.41 86.83, 0 70.85 M23.62 94.47 C9.31 93.54, -1.32 85.45, 0 70.85 M0 70.85 C1.06 56.67, 2.07 42.04, 0 23.62 M0 70.85 C0.57 54.69, -0.27 39.13, 0 23.62 M0 23.62 C-0.82 9.83, 6.31 1.97, 23.62 0 M0 23.62 C0.24 7.84, 8.04 0.63, 23.62 0" stroke="#1e1e1e" stroke-width="1" fill="none"></path></g><g transform="translate(276.9848623367786 155.26464725963888) rotate(0 29.736328125 8.701726315213818)"><text x="29.736328125" y="14.004340788547596" font-family="Cascadia, Segoe UI Emoji" font-size="14.502877192023401px" fill="#1e1e1e" text-anchor="middle" style="white-space: pre;" direction="ltr" dominant-baseline="alphabetic">payment</text></g><g stroke-linecap="round"><g transform="translate(304.8043538675074 273.7635156325696) rotate(0 1.4341282729580485 -28.570878923692817)"><path d="M0.51 0.75 C0.95 -8.85, 1.11 -47.63, 1.7 -57.12 M-0.67 0.1 C0.18 -9.33, 3.04 -45.89, 3.79 -55.58" stroke="#1e1e1e" stroke-width="1" fill="none"></path></g><g transform="translate(304.8043538675074 273.7635156325696) rotate(0 1.4341282729580485 -28.570878923692817)"><path d="M10.48 -31.49 C10.13 -38.85, 7.4 -40.42, 3.79 -55.58 M10.48 -31.49 C7.01 -41.62, 5.01 -49.82, 3.79 -55.58" stroke="#1e1e1e" stroke-width="1" fill="none"></path></g><g transform="translate(304.8043538675074 273.7635156325696) rotate(0 1.4341282729580485 -28.570878923692817)"><path d="M-6.56 -32.82 C-3.06 -39.96, -1.94 -41.22, 3.79 -55.58 M-6.56 -32.82 C-3.54 -42.3, 0.94 -50, 3.79 -55.58" stroke="#1e1e1e" stroke-width="1" fill="none"></path></g></g><mask></mask><g transform="translate(608.5146890289594 295.36252935766424) rotate(0 56.25 9.599999999999909)"><text x="0" y="15.45" font-family="Cascadia, Segoe UI Emoji" font-size="16px" fill="#2f9e44" text-anchor="start" style="white-space: pre;" direction="ltr" dominant-baseline="alphabetic">Orders-Topic</text></g><g stroke-linecap="round" transform="translate(10.000000000000114 10) rotate(0 363.9892820082824 22.18239199999971)"><path d="M0 0 C145.73 2.86, 293.35 2.54, 727.98 0 M0 0 C228.82 -0.23, 457.64 0.26, 727.98 0 M727.98 0 C728.86 9.84, 729.53 22.88, 727.98 44.36 M727.98 0 C728.24 12.24, 726.84 24.63, 727.98 44.36 M727.98 44.36 C562.52 46.43, 396.26 46.42, 0 44.36 M727.98 44.36 C525.74 42.42, 324.08 41.93, 0 44.36 M0 44.36 C0.56 35.39, -0.65 25.98, 0 0 M0 44.36 C0.76 29.45, -0.2 14.61, 0 0" stroke="#1e1e1e" stroke-width="1" fill="none"></path></g><g stroke-linecap="round" transform="translate(308.596912051721 18.926542405596592) rotate(0 81.61409178888073 14.206086797201351)"><path d="M0 0 C0 0, 0 0, 0 0 M0 0 C0 0, 0 0, 0 0 M-0.26 6.4 C1.4 4, 2.09 2.14, 4.99 0.36 M-0.26 6.4 C1 4.85, 2.83 3.44, 4.99 0.36 M0.13 12.04 C3.65 6.89, 5.19 3.15, 10.63 -0.03 M0.13 12.04 C3.72 6.84, 8.85 3.14, 10.63 -0.03 M-0.13 18.44 C5.65 13.73, 7.91 5.9, 15.62 0.33 M-0.13 18.44 C4.36 14.37, 8.01 9.92, 15.62 0.33 M0.27 24.08 C7.94 13.46, 16.51 3.19, 21.26 -0.07 M0.27 24.08 C6.62 18.33, 10.95 12.25, 21.26 -0.07 M1.32 28.97 C10.77 19.52, 19.24 7.6, 26.25 0.29 M1.32 28.97 C7.66 22.69, 13.12 16.13, 26.25 0.29 M6.96 28.58 C14.49 20.53, 20.57 15.49, 31.89 -0.1 M6.96 28.58 C13.3 20.68, 20.25 13.32, 31.89 -0.1 M11.95 28.94 C19.82 20.12, 29.17 10.33, 36.88 0.26 M11.95 28.94 C20.26 19.81, 27.78 8.9, 36.88 0.26 M17.59 28.54 C26.16 18.63, 37.61 6.17, 42.52 -0.14 M17.59 28.54 C23.49 22.61, 27.76 16.92, 42.52 -0.14 M22.58 28.9 C28.11 21.29, 38.93 12.94, 47.51 0.22 M22.58 28.9 C32.4 18.03, 41.24 6.22, 47.51 0.22 M28.22 28.51 C35.67 16.51, 45.06 8, 53.15 -0.17 M28.22 28.51 C32.15 22.14, 37.26 16.2, 53.15 -0.17 M33.21 28.87 C37.7 23.65, 44.96 16.71, 58.14 0.19 M33.21 28.87 C42.38 18.76, 52.54 7.19, 58.14 0.19 M38.85 28.47 C43.74 21.19, 49.44 17.15, 63.78 -0.21 M38.85 28.47 C43.33 23.34, 50.35 16.08, 63.78 -0.21 M43.84 28.83 C49.15 21.98, 55.09 16.2, 68.77 0.15 M43.84 28.83 C54.24 18.61, 63.89 6.3, 68.77 0.15 M49.48 28.44 C57.33 19.1, 66.58 9.14, 74.41 -0.24 M49.48 28.44 C56.55 21, 62.29 13.88, 74.41 -0.24 M54.47 28.8 C63.49 19.63, 73.04 6.81, 79.4 0.12 M54.47 28.8 C61.57 20.73, 69.12 13.41, 79.4 0.12 M60.11 28.4 C69.98 17.57, 75.59 10.22, 85.04 -0.28 M60.11 28.4 C68.95 19.8, 75.73 9.29, 85.04 -0.28 M65.1 28.76 C70.48 23.82, 77.12 16.18, 90.03 0.08 M65.1 28.76 C73.09 18.48, 82.61 7.35, 90.03 0.08 M70.74 28.37 C74.03 22.84, 81.49 17.46, 95.67 -0.31 M70.74 28.37 C81.08 16.65, 90.99 5.9, 95.67 -0.31 M75.73 28.73 C83.7 22.89, 88.82 14.36, 100.66 0.05 M75.73 28.73 C83.97 18.74, 93.23 8.73, 100.66 0.05 M81.37 28.33 C90.33 18.18, 100.4 4.35, 106.3 -0.34 M81.37 28.33 C89.73 17.83, 100.34 7.17, 106.3 -0.34 M86.36 28.69 C92.31 21.09, 99.12 15.66, 111.29 0.02 M86.36 28.69 C92.65 20.84, 99.6 13.1, 111.29 0.02 M92 28.3 C102.62 18.94, 112.3 7.13, 116.27 0.38 M92 28.3 C100.66 17.43, 112.03 6.61, 116.27 0.38 M96.99 28.66 C104.62 19.45, 114.53 9.72, 121.92 -0.02 M96.99 28.66 C103.98 21.18, 110.71 12.43, 121.92 -0.02 M101.97 29.02 C109.79 19.59, 115.91 11.35, 126.91 0.34 M101.97 29.02 C110.42 18.7, 120.85 7.9, 126.91 0.34 M107.62 28.63 C115.79 21.68, 123.31 11.43, 132.55 -0.05 M107.62 28.63 C113.11 23.3, 117.41 17.52, 132.55 -0.05 M112.6 28.99 C123.14 18.97, 131.95 8.63, 137.54 0.31 M112.6 28.99 C121.2 18.42, 130.94 8.01, 137.54 0.31 M118.25 28.59 C124.57 20.07, 130.63 13.1, 143.18 -0.09 M118.25 28.59 C126.85 20.61, 133.13 10.64, 143.18 -0.09 M123.23 28.95 C129.31 20.45, 138.17 11.76, 148.17 0.27 M123.23 28.95 C130.09 22.05, 135.12 15.61, 148.17 0.27 M128.88 28.56 C135.8 20.33, 143.71 9.28, 153.81 -0.12 M128.88 28.56 C135.67 19.39, 143.51 10.36, 153.81 -0.12 M133.87 28.92 C142.95 18.88, 149.18 9.76, 158.8 0.24 M133.87 28.92 C139.66 22.36, 145.64 15.17, 158.8 0.24 M139.51 28.52 C145.05 21.18, 154.63 9.8, 163.78 0.6 M139.51 28.52 C145.47 21.95, 152.4 13.1, 163.78 0.6 M144.5 28.88 C152.64 18.43, 160.92 11.67, 163.52 7 M144.5 28.88 C152.86 20.42, 159.53 12.42, 163.52 7 M150.14 28.49 C153.95 23.99, 160.28 16.16, 163.92 12.64 M150.14 28.49 C154.85 22.35, 160.25 17.37, 163.92 12.64 M155.13 28.85 C156.38 27.19, 160.35 23.55, 163.65 19.04 M155.13 28.85 C157.47 25.62, 160.95 23.11, 163.65 19.04 M160.77 28.45 C161.65 27.88, 162.22 26.44, 164.05 24.68 M160.77 28.45 C161.83 26.74, 163.22 25.34, 164.05 24.68" stroke="#ffc9c9" stroke-width="0.5" fill="none"></path><path d="M0 0 C51.38 0.37, 99.1 -0.24, 163.23 0 M0 0 C59.68 -0.95, 119.97 -0.21, 163.23 0 M163.23 0 C163.97 7.73, 164.44 17.28, 163.23 28.41 M163.23 0 C163.59 10.51, 162.69 22.18, 163.23 28.41 M163.23 28.41 C114.29 27.73, 67.2 26.21, 0 28.41 M163.23 28.41 C102.07 29.21, 39.01 29.35, 0 28.41 M0 28.41 C-1.53 19.36, 0.82 8.04, 0 0 M0 28.41 C-0.8 21.43, 0.35 13.37, 0 0" stroke="#e03131" stroke-width="1" fill="none"></path></g><g transform="translate(322.24225384060173 24.430902887584125) rotate(0 67.96875 8.701726315213818)"><text x="67.96875" y="14.004340788547596" font-family="Cascadia, Segoe UI Emoji" font-size="14.502877192023401px" fill="#e03131" text-anchor="middle" style="white-space: pre;" direction="ltr" dominant-baseline="alphabetic">payment-received</text></g><g stroke-linecap="round"><g transform="translate(303.8006134727235 115.33195204063577) rotate(0 34.30134400245544 -32.688634646384344)"><path d="M-1.05 -1.11 C10.19 -11.85, 55.79 -53.56, 67.55 -64.31 M0.6 0.93 C12.19 -10.15, 58.27 -54.98, 69.7 -65.87" stroke="#1e1e1e" stroke-width="1" fill="none"></path></g><g transform="translate(303.8006134727235 115.33195204063577) rotate(0 34.30134400245544 -32.688634646384344)"><path d="M58.72 -43.41 C60.23 -52.01, 67.25 -55.7, 69.7 -65.87 M58.72 -43.41 C62.73 -49.08, 65.18 -56.29, 69.7 -65.87" stroke="#1e1e1e" stroke-width="1" fill="none"></path></g><g transform="translate(303.8006134727235 115.33195204063577) rotate(0 34.30134400245544 -32.688634646384344)"><path d="M46.85 -55.72 C52.05 -60.41, 62.73 -60.31, 69.7 -65.87 M46.85 -55.72 C54.15 -57.84, 59.95 -61.57, 69.7 -65.87" stroke="#1e1e1e" stroke-width="1" fill="none"></path></g></g><mask></mask><g transform="translate(599.1396886148966 22.582391857667062) rotate(0 60.9375 9.599999999999909)"><text x="0" y="15.45" font-family="Cascadia, Segoe UI Emoji" font-size="16px" fill="#2f9e44" text-anchor="start" style="white-space: pre;" direction="ltr" dominant-baseline="alphabetic">Payment-Topic</text></g><g stroke-linecap="round" transform="translate(397.9271252753733 115.33195194983728) rotate(0 47.595247339523326 47.2351589078271)"><path d="M3.18 9.39 C3.18 9.39, 3.18 9.39, 3.18 9.39 M3.18 9.39 C3.18 9.39, 3.18 9.39, 3.18 9.39 M1.61 17.3 C8.47 10.29, 10.47 4.72, 14.73 2.2 M1.61 17.3 C7.11 11.73, 11.37 5.88, 14.73 2.2 M0.03 25.2 C4.84 19.94, 10.62 11.39, 21.03 1.05 M0.03 25.2 C6.7 17.94, 12.8 9.22, 21.03 1.05 M-0.23 31.6 C5.98 24.14, 12.28 16.77, 26.67 0.66 M-0.23 31.6 C8.77 22.6, 16.79 12.87, 26.67 0.66 M0.17 37.24 C12.15 23.65, 21.64 10.97, 32.31 0.26 M0.17 37.24 C11.26 25.52, 20.92 11.66, 32.31 0.26 M-0.1 43.64 C10.81 29.96, 24.34 17.47, 37.3 0.62 M-0.1 43.64 C12.56 29.53, 23.57 14.91, 37.3 0.62 M0.3 49.28 C10.75 35.37, 21.38 21.86, 42.29 0.98 M0.3 49.28 C14.38 33.12, 29.72 17.43, 42.29 0.98 M0.04 55.68 C10.04 44.54, 21.33 33.17, 47.93 0.59 M0.04 55.68 C11.48 43.94, 20.86 30.36, 47.93 0.59 M-0.22 62.08 C20.53 40.04, 41.42 14.61, 52.92 0.95 M-0.22 62.08 C12.1 49.63, 24 35.86, 52.92 0.95 M0.17 67.72 C20.15 44.78, 39.57 21.34, 58.56 0.55 M0.17 67.72 C13.32 52.48, 24.48 38.84, 58.56 0.55 M0.56 73.37 C23.43 48.69, 42.59 27.14, 63.55 0.91 M0.56 73.37 C26.31 44.23, 49.35 17.48, 63.55 0.91 M1.62 78.26 C21.92 54.52, 46.87 28.92, 69.19 0.52 M1.62 78.26 C17.27 60.19, 32.03 43.96, 69.19 0.52 M2.67 83.14 C18.39 63.15, 35.55 44.3, 74.18 0.88 M2.67 83.14 C25.66 56.51, 48.49 30.85, 74.18 0.88 M5.03 86.52 C25.1 60.93, 44.65 37.95, 79.16 1.24 M5.03 86.52 C27.72 60.81, 49.43 35.46, 79.16 1.24 M7.39 89.9 C31.34 61.31, 53.99 32.74, 83.49 2.35 M7.39 89.9 C35.69 56.22, 64.54 23.05, 83.49 2.35 M11.07 91.77 C34.04 61.75, 61.43 36.06, 87.17 4.22 M11.07 91.77 C28.36 71.76, 45.43 52.81, 87.17 4.22 M14.74 93.64 C38.49 66.24, 58.86 41.33, 90.19 6.85 M14.74 93.64 C43.46 60.48, 72.78 27.44, 90.19 6.85 M19.73 94 C40.07 72.53, 59.29 49.42, 92.55 10.23 M19.73 94 C45.6 66.62, 70.04 38.63, 92.55 10.23 M24.72 94.36 C40.68 76.47, 57.85 56.53, 93.6 15.12 M24.72 94.36 C44.89 72.51, 64.45 48.94, 93.6 15.12 M30.36 93.97 C51.47 72.98, 71.7 49.55, 94.65 20 M30.36 93.97 C46.15 76.43, 62.33 58.2, 94.65 20 M35.35 94.33 C46.32 81.99, 59.96 65.76, 95.05 25.65 M35.35 94.33 C50.53 77.61, 63.7 61.44, 95.05 25.65 M40.33 94.69 C61.28 72.12, 80.1 49.33, 95.44 31.29 M40.33 94.69 C60.22 72.63, 78.64 50.93, 95.44 31.29 M45.98 94.29 C58.56 80.76, 71.27 67.09, 95.18 37.69 M45.98 94.29 C61.82 74.02, 78.62 54.31, 95.18 37.69 M50.96 94.65 C63.68 78.2, 77.5 66.19, 94.92 44.09 M50.96 94.65 C65.93 77.65, 79.78 62.07, 94.92 44.09 M56.61 94.26 C66.12 86.22, 72.64 74.05, 95.31 49.73 M56.61 94.26 C70.78 79.89, 84.26 63.27, 95.31 49.73 M61.59 94.62 C71.68 82.21, 84.58 69.16, 95.05 56.13 M61.59 94.62 C69.52 85.48, 77.5 75.45, 95.05 56.13 M67.24 94.22 C78.58 82.91, 89.01 69.92, 94.79 62.52 M67.24 94.22 C75.29 85.24, 83.11 75.39, 94.79 62.52 M72.22 94.58 C76.79 90.75, 83.03 83.04, 95.18 68.17 M72.22 94.58 C76.54 89.05, 82.68 82.3, 95.18 68.17 M78.52 93.43 C83.69 85.45, 89.65 80.67, 94.92 74.57 M78.52 93.43 C82.63 88.31, 86.93 82.28, 94.92 74.57 M85.48 91.53 C88.22 88.21, 88.66 87.75, 94.01 81.72 M85.48 91.53 C86.65 89.23, 88.62 88.18, 94.01 81.72" stroke="#b2f2bb" stroke-width="0.5" fill="none"></path><path d="M23.62 0 C43.53 -1.73, 60.76 0.05, 71.57 0 M23.62 0 C38.39 0.73, 55.4 1.35, 71.57 0 M71.57 0 C89.16 1.74, 93.68 8.09, 95.19 23.62 M71.57 0 C87.72 1.5, 95.28 7.22, 95.19 23.62 M95.19 23.62 C94.54 35.55, 96.82 47.44, 95.19 70.85 M95.19 23.62 C95 37.95, 94.9 52.38, 95.19 70.85 M95.19 70.85 C94.84 85.51, 87.23 93.63, 71.57 94.47 M95.19 70.85 C95.18 84.57, 89.49 95.62, 71.57 94.47 M71.57 94.47 C54.27 93.95, 36.77 93.87, 23.62 94.47 M71.57 94.47 C52.8 94.41, 35.28 94.55, 23.62 94.47 M23.62 94.47 C7.67 96.43, 1 87.23, 0 70.85 M23.62 94.47 C9.02 95.13, -0.65 88.64, 0 70.85 M0 70.85 C1.26 54.03, -2.12 38.62, 0 23.62 M0 70.85 C0.12 59.97, 0.19 48.34, 0 23.62 M0 23.62 C0.55 5.96, 7.11 0.15, 23.62 0 M0 23.62 C1.7 9.87, 6.62 0.71, 23.62 0" stroke="#1e1e1e" stroke-width="1" fill="none"></path></g><g transform="translate(424.28213823989665 153.86538454245056) rotate(0 21.240234375 8.701726315213818)"><text x="21.240234375" y="14.004340788547596" font-family="Cascadia, Segoe UI Emoji" font-size="14.502877192023401px" fill="#1e1e1e" text-anchor="middle" style="white-space: pre;" direction="ltr" dominant-baseline="alphabetic">order</text></g><g stroke-linecap="round"><g transform="translate(404.07993251184564 55.92009590942416) rotate(0 18.031493277321488 26.931357060604114)"><path d="M-0.66 -0.52 C5.26 8.42, 29.16 44.84, 35.11 53.83 M1.19 1.82 C7.51 10.95, 31.29 46.57, 37.31 55.35" stroke="#1e1e1e" stroke-width="1" fill="none"></path></g><g transform="translate(404.07993251184564 55.92009590942416) rotate(0 18.031493277321488 26.931357060604114)"><path d="M17.08 40.67 C21.6 43.08, 27.77 46.77, 37.31 55.35 M17.08 40.67 C23.33 45.26, 26.93 48.51, 37.31 55.35" stroke="#1e1e1e" stroke-width="1" fill="none"></path></g><g transform="translate(404.07993251184564 55.92009590942416) rotate(0 18.031493277321488 26.931357060604114)"><path d="M31.25 31.1 C32.03 35.96, 34.44 42.19, 37.31 55.35 M31.25 31.1 C33.82 38.27, 33.68 44.03, 37.31 55.35" stroke="#1e1e1e" stroke-width="1" fill="none"></path></g></g><mask></mask><g stroke-linecap="round" transform="translate(343.39573506275536 281.7955059999995) rotate(0 67.65378775917256 16.383511500000168)"><path d="M0 0 C0 0, 0 0, 0 0 M0 0 C0 0, 0 0, 0 0 M-0.26 6.4 C2.46 3.68, 3.26 1.32, 4.99 0.36 M-0.26 6.4 C1.27 4.04, 3.35 2.53, 4.99 0.36 M0.13 12.04 C4.17 8.57, 8.38 3.6, 10.63 -0.03 M0.13 12.04 C3.01 8.05, 5.87 4.33, 10.63 -0.03 M-0.13 18.44 C3.64 12.36, 9.46 6.19, 15.62 0.33 M-0.13 18.44 C6.72 10.95, 11.99 3.77, 15.62 0.33 M0.27 24.08 C6.9 17.28, 12.62 11.24, 21.26 -0.07 M0.27 24.08 C7.91 15.69, 14.92 5.85, 21.26 -0.07 M0 30.48 C7.59 22.98, 15.5 12.96, 26.25 0.29 M0 30.48 C8.08 22, 15.71 11.89, 26.25 0.29 M3.02 33.1 C8.22 24.54, 15.76 16.02, 31.89 -0.1 M3.02 33.1 C8.84 25.62, 15.88 18.65, 31.89 -0.1 M8.01 33.46 C16.42 25.94, 20.06 17.49, 36.88 0.26 M8.01 33.46 C15.43 24.77, 24.2 14.33, 36.88 0.26 M13.65 33.07 C21.23 24.83, 29.57 16.84, 42.52 -0.14 M13.65 33.07 C19.99 26.09, 26.2 18.99, 42.52 -0.14 M18.64 33.43 C29.38 23.98, 40.06 10.7, 47.51 0.22 M18.64 33.43 C26.03 25.14, 32.03 18.02, 47.51 0.22 M24.28 33.03 C31.33 23.27, 39.98 17.81, 53.15 -0.17 M24.28 33.03 C33.5 22.75, 43.6 11.05, 53.15 -0.17 M29.27 33.39 C35.68 25.71, 42.06 16.85, 58.14 0.19 M29.27 33.39 C37.69 25.31, 45.04 17.04, 58.14 0.19 M34.91 33 C45.51 21.24, 55.36 9.34, 63.78 -0.21 M34.91 33 C41.18 26.2, 48.4 16.69, 63.78 -0.21 M39.9 33.36 C46.51 26.46, 53.73 16.46, 68.77 0.15 M39.9 33.36 C47.4 24.53, 55.45 13.92, 68.77 0.15 M45.54 32.97 C54.43 21.47, 60.71 12.57, 74.41 -0.24 M45.54 32.97 C52.16 25.19, 57.88 17.49, 74.41 -0.24 M50.53 33.33 C57.27 23.2, 65.4 15.46, 79.4 0.12 M50.53 33.33 C59.65 24.25, 67.93 14.58, 79.4 0.12 M56.17 32.93 C68.25 19.13, 79.08 7.38, 85.04 -0.28 M56.17 32.93 C66.87 20.39, 78.37 8.43, 85.04 -0.28 M61.16 33.29 C67.54 23.35, 78.21 14.76, 90.03 0.08 M61.16 33.29 C68.07 24.44, 76.07 15.32, 90.03 0.08 M66.8 32.9 C75.69 24.25, 83.25 12.53, 95.67 -0.31 M66.8 32.9 C76.24 21.24, 85.45 10.08, 95.67 -0.31 M71.79 33.26 C80.68 24.47, 87.04 15.82, 100.66 0.05 M71.79 33.26 C79.16 23.88, 87.25 16.39, 100.66 0.05 M77.43 32.86 C87.62 19.85, 98.71 6.04, 106.3 -0.34 M77.43 32.86 C86.91 23.11, 95.25 11.82, 106.3 -0.34 M82.42 33.22 C90.42 25.15, 94.03 16.36, 111.29 0.02 M82.42 33.22 C89.86 24.13, 99.07 12.7, 111.29 0.02 M88.06 32.83 C98.59 24.63, 105.61 13.89, 116.27 0.38 M88.06 32.83 C98.87 20.64, 107.55 8.74, 116.27 0.38 M93.05 33.19 C102.49 23.68, 110.84 10.97, 121.92 -0.02 M93.05 33.19 C100.21 23.92, 107.41 16.15, 121.92 -0.02 M98.69 32.79 C104.25 23.63, 110.61 16.54, 126.91 0.34 M98.69 32.79 C106.19 25.18, 110.77 17.2, 126.91 0.34 M103.68 33.15 C109.68 24.51, 115.74 19.46, 132.55 -0.05 M103.68 33.15 C111.8 22.97, 121.25 12.83, 132.55 -0.05 M109.32 32.76 C120.49 21.36, 129.59 8.95, 136.22 1.82 M109.32 32.76 C118.24 24.16, 124.81 14.86, 136.22 1.82 M114.31 33.12 C120.08 28.87, 125.71 20.23, 135.96 8.21 M114.31 33.12 C121.58 24.9, 127.7 17.26, 135.96 8.21 M119.95 32.72 C125.65 29.08, 130.21 22.47, 135.7 14.61 M119.95 32.72 C125.68 26.69, 129.35 21.79, 135.7 14.61 M124.94 33.08 C129.02 29.12, 131.92 25.46, 136.09 20.25 M124.94 33.08 C129.59 28.76, 132.3 23.55, 136.09 20.25 M129.93 33.44 C132.17 31.21, 133.96 27.65, 135.83 26.65 M129.93 33.44 C131.12 31.99, 132.47 30.9, 135.83 26.65" stroke="#ffc9c9" stroke-width="0.5" fill="none"></path><path d="M0 0 C39.46 2.23, 77.15 0.32, 135.31 0 M0 0 C29.27 -0.28, 58.25 0.26, 135.31 0 M135.31 0 C136.25 7.86, 134.49 15.74, 135.31 32.77 M135.31 0 C134.57 12.04, 135.8 26.5, 135.31 32.77 M135.31 32.77 C92.06 32.19, 53.49 34.41, 0 32.77 M135.31 32.77 C92.02 32.15, 49.24 31.93, 0 32.77 M0 32.77 C0.16 22.72, 1.63 8.91, 0 0 M0 32.77 C0.08 21.54, -0.93 10.78, 0 0" stroke="#e03131" stroke-width="1" fill="none"></path></g><g transform="translate(373.5586780953654 290.49739703295563) rotate(0 37.4908447265625 7.681620467044013)"><text x="37.4908447265625" y="12.362607939148743" font-family="Cascadia, Segoe UI Emoji" font-size="12.802700778406466px" fill="#e03131" text-anchor="middle" style="white-space: pre;" direction="ltr" dominant-baseline="alphabetic">order-paid</text></g><g stroke-linecap="round"><g transform="translate(458.1678747757808 221.728593961182) rotate(0 -12.634525935220552 25.199996948242188)"><path d="M-1.03 -1 C-5.26 7.52, -20.29 42.45, -24.42 50.95 M0.63 1.09 C-3.76 9.27, -20.34 40.78, -24.93 49.12" stroke="#1e1e1e" stroke-width="1" fill="none"></path></g><g transform="translate(458.1678747757808 221.728593961182) rotate(0 -12.634525935220552 25.199996948242188)"><path d="M-21.35 24.38 C-24.4 35.08, -23.16 42.04, -24.93 49.12 M-21.35 24.38 C-23.34 31.67, -23.36 37.2, -24.93 49.12" stroke="#1e1e1e" stroke-width="1" fill="none"></path></g><g transform="translate(458.1678747757808 221.728593961182) rotate(0 -12.634525935220552 25.199996948242188)"><path d="M-6.28 32.47 C-15 39.99, -19.43 43.9, -24.93 49.12 M-6.28 32.47 C-12.3 37.55, -16.36 40.91, -24.93 49.12" stroke="#1e1e1e" stroke-width="1" fill="none"></path></g></g><mask></mask></svg>