<svg version="1.1" xmlns="http://www.w3.org/2000/svg" viewBox="0 0 813.888888888888 525.2777777777792" width="813.888888888888" height="525.2777777777792">
  <!-- svg-source:excalidraw -->
  
  <defs>
    <style class="style-fonts">
      @font-face {
        font-family: "Virgil";
        src: url("https://excalidraw.com/Virgil.woff2");
      }
      @font-face {
        font-family: "Cascadia";
        src: url("https://excalidraw.com/Cascadia.woff2");
      }
      @font-face {
        font-family: "Assistant";
        src: url("https://excalidraw.com/Assistant-Regular.woff2");
      }
    </style>
    
  </defs>
  <rect x="0" y="0" width="813.888888888888" height="525.2777777777792" fill="#f8f9fa"></rect><g stroke-linecap="round" transform="translate(253.88888888888823 91.66666666666606) rotate(0 150 173.33333333333212)"><path d="M32 0 C105.9 0.85, 181.05 1.36, 268 0 M32 0 C108.15 1.84, 182.75 1.24, 268 0 M268 0 C288.19 1.88, 298.8 9.22, 300 32 M268 0 C289.56 1.75, 301.76 11.88, 300 32 M300 32 C299.84 102.04, 298.6 173.3, 300 314.67 M300 32 C300.07 119.12, 299.16 206.48, 300 314.67 M300 314.67 C299.56 336.22, 290.3 347, 268 346.67 M300 314.67 C298.75 334.98, 290.91 347.58, 268 346.67 M268 346.67 C213.22 346.59, 160.95 343.78, 32 346.67 M268 346.67 C183.58 345.34, 101.38 346.38, 32 346.67 M32 346.67 C11.21 347.19, -0.26 337.52, 0 314.67 M32 346.67 C10.47 348.33, -1.81 337.56, 0 314.67 M0 314.67 C-1.63 200.22, -2.78 89.31, 0 32 M0 314.67 C1.17 221.26, 1.04 127.75, 0 32 M0 32 C0.9 12.49, 10.91 0.85, 32 0 M0 32 C-2.18 10.6, 10.65 2.01, 32 0" stroke="#e03131" stroke-width="4" fill="none"></path></g><g transform="translate(361.70706897311675 243.39999999999782) rotate(0 42.181819915771484 21.600000000000364)"><text x="42.181819915771484" y="34.762499999999996" font-family="Cascadia, Segoe UI Emoji" font-size="36px" fill="#e03131" text-anchor="middle" style="white-space: pre;" direction="ltr" dominant-baseline="alphabetic">Core</text></g><g stroke-linecap="round" transform="translate(656.1111111111106 39.444444444443434) rotate(0 73.88888888888869 60.55555555555475)"><path d="M30.28 0 C50.15 0.38, 68.93 -0.52, 117.5 0 M30.28 0 C53.12 0.64, 75.39 0.01, 117.5 0 M117.5 0 C135.89 -0.22, 146.9 11.74, 147.78 30.28 M117.5 0 C138.2 -2.11, 149.47 7.92, 147.78 30.28 M147.78 30.28 C145.62 52.81, 147.2 71.51, 147.78 90.83 M147.78 30.28 C147.63 52.15, 147.19 73.12, 147.78 90.83 M147.78 90.83 C145.89 112.74, 138.24 121.6, 117.5 121.11 M147.78 90.83 C146 112.96, 136.91 123.26, 117.5 121.11 M117.5 121.11 C96.48 120.13, 79.26 119.86, 30.28 121.11 M117.5 121.11 C87.73 121.96, 55.98 120.94, 30.28 121.11 M30.28 121.11 C11.67 121.77, 0.21 112.34, 0 90.83 M30.28 121.11 C7.8 122.09, 1.77 113.09, 0 90.83 M0 90.83 C1.07 74.75, -0.44 56.09, 0 30.28 M0 90.83 C-0.58 68.69, 0.09 44.81, 0 30.28 M0 30.28 C-1.61 11.91, 9.94 -0.84, 30.28 0 M0 30.28 C2.03 8.45, 8.47 0.88, 30.28 0" stroke="#1e1e1e" stroke-width="4" fill="none"></path></g><g transform="translate(694.9818191528313 87.99999999999818) rotate(0 35.01818084716797 12)"><text x="35.01818084716797" y="19.3125" font-family="Cascadia, Segoe UI Emoji" font-size="20px" fill="#1e1e1e" text-anchor="middle" style="white-space: pre;" direction="ltr" dominant-baseline="alphabetic">Plugin</text></g><g stroke-linecap="round" transform="translate(654.9999999999993 210) rotate(0 73.88888888888869 60.55555555555475)"><path d="M30.28 0 C55.07 0.6, 75.12 -0.04, 117.5 0 M30.28 0 C54.36 -0.87, 77.47 -0.49, 117.5 0 M117.5 0 C138.27 -0.55, 147.04 8.4, 147.78 30.28 M117.5 0 C135.48 0.41, 149.15 8.9, 147.78 30.28 M147.78 30.28 C146.38 50.81, 148.1 71.26, 147.78 90.83 M147.78 30.28 C147.55 52.69, 147.86 75.37, 147.78 90.83 M147.78 90.83 C148.16 109.79, 139.33 119.3, 117.5 121.11 M147.78 90.83 C148.31 112.58, 139.3 121.39, 117.5 121.11 M117.5 121.11 C94.43 123.36, 69.12 123.45, 30.28 121.11 M117.5 121.11 C84.87 121.43, 52.55 120.66, 30.28 121.11 M30.28 121.11 C10.69 119.79, 1.47 112.01, 0 90.83 M30.28 121.11 C7.85 122.52, 0.14 108.89, 0 90.83 M0 90.83 C0.26 70.24, 0.35 52.65, 0 30.28 M0 90.83 C-0.24 70.16, -0.23 50.18, 0 30.28 M0 30.28 C-1.47 10.88, 8.82 -1.55, 30.28 0 M0 30.28 C0.47 12.25, 11.76 -1.33, 30.28 0" stroke="#1e1e1e" stroke-width="4" fill="none"></path></g><g transform="translate(693.87070804172 258.55555555555475) rotate(0 35.01818084716797 12)"><text x="35.01818084716797" y="19.3125" font-family="Cascadia, Segoe UI Emoji" font-size="20px" fill="#1e1e1e" text-anchor="middle" style="white-space: pre;" direction="ltr" dominant-baseline="alphabetic">Plugin</text></g><g stroke-linecap="round" transform="translate(654.9999999999993 385.55555555555657) rotate(0 73.88888888888869 60.55555555555475)"><path d="M30.28 0 C61.74 0.05, 95.17 -0.16, 117.5 0 M30.28 0 C57.2 -0.49, 86.62 -0.01, 117.5 0 M117.5 0 C137.93 -0.48, 148.26 11.69, 147.78 30.28 M117.5 0 C138.84 1.78, 147.5 11.98, 147.78 30.28 M147.78 30.28 C147.01 54.22, 146.92 75.09, 147.78 90.83 M147.78 30.28 C147.87 49.27, 147.99 70.27, 147.78 90.83 M147.78 90.83 C145.93 111.43, 136.44 122.94, 117.5 121.11 M147.78 90.83 C147.64 109.66, 137.66 121.86, 117.5 121.11 M117.5 121.11 C88.12 119.99, 58.79 120.79, 30.28 121.11 M117.5 121.11 C96.97 120.76, 78.93 121.28, 30.28 121.11 M30.28 121.11 C8.94 122.14, 1.86 112.02, 0 90.83 M30.28 121.11 C9.98 122.45, 0.08 111.69, 0 90.83 M0 90.83 C-0.55 74.63, 1.48 60.07, 0 30.28 M0 90.83 C1.03 72.02, 0.85 52.27, 0 30.28 M0 30.28 C-0.67 11.08, 9.92 -0.54, 30.28 0 M0 30.28 C0.17 8.46, 8.07 0.05, 30.28 0" stroke="#1e1e1e" stroke-width="4" fill="none"></path></g><g transform="translate(693.87070804172 434.1111111111113) rotate(0 35.01818084716797 12)"><text x="35.01818084716797" y="19.3125" font-family="Cascadia, Segoe UI Emoji" font-size="20px" fill="#1e1e1e" text-anchor="middle" style="white-space: pre;" direction="ltr" dominant-baseline="alphabetic">Plugin</text></g><g stroke-linecap="round" transform="translate(10 48.055555555556566) rotate(0 73.88888888888869 60.55555555555475)"><path d="M30.28 0 C58.26 1.11, 84.34 0.52, 117.5 0 M30.28 0 C57.02 -1.23, 83.01 -0.57, 117.5 0 M117.5 0 C136.07 -1.94, 149.66 9.47, 147.78 30.28 M117.5 0 C137.79 1.01, 146.32 8.04, 147.78 30.28 M147.78 30.28 C147.55 52.46, 149.34 76.73, 147.78 90.83 M147.78 30.28 C148.21 47.16, 148.85 64.17, 147.78 90.83 M147.78 90.83 C149.33 109.54, 138.93 119.55, 117.5 121.11 M147.78 90.83 C147.79 112.67, 139.89 119.77, 117.5 121.11 M117.5 121.11 C87.46 119.61, 54.68 122.05, 30.28 121.11 M117.5 121.11 C95.13 120.25, 72.15 120.71, 30.28 121.11 M30.28 121.11 C10.35 119.16, -1.92 112.11, 0 90.83 M30.28 121.11 C9.36 122.73, 1.56 111.24, 0 90.83 M0 90.83 C-0.92 79.31, -1.39 66.38, 0 30.28 M0 90.83 C0.3 69.17, -0.17 45.63, 0 30.28 M0 30.28 C1.86 11.31, 10.94 -1.41, 30.28 0 M0 30.28 C0.75 11.04, 10.68 -1, 30.28 0" stroke="#1e1e1e" stroke-width="4" fill="none"></path></g><g transform="translate(48.87070804172072 96.61111111111131) rotate(0 35.01818084716797 12)"><text x="35.01818084716797" y="19.3125" font-family="Cascadia, Segoe UI Emoji" font-size="20px" fill="#1e1e1e" text-anchor="middle" style="white-space: pre;" direction="ltr" dominant-baseline="alphabetic">Plugin</text></g><g stroke-linecap="round" transform="translate(10 218.61111111111495) rotate(0 73.88888888888869 60.55555555555475)"><path d="M30.28 0 C49.51 -0.35, 69.07 -1.26, 117.5 0 M30.28 0 C60.53 0.56, 91.57 -0.33, 117.5 0 M117.5 0 C139.56 -0.62, 147.87 10.97, 147.78 30.28 M117.5 0 C136.23 -2.05, 149.35 9.29, 147.78 30.28 M147.78 30.28 C149.55 46.31, 147.25 59.27, 147.78 90.83 M147.78 30.28 C148.84 45.9, 148.71 59.3, 147.78 90.83 M147.78 90.83 C149.03 109.46, 137.69 122.55, 117.5 121.11 M147.78 90.83 C149.98 109.68, 139.21 122, 117.5 121.11 M117.5 121.11 C100.39 122.54, 80.15 118.85, 30.28 121.11 M117.5 121.11 C98.38 121.47, 81.35 120.09, 30.28 121.11 M30.28 121.11 C8.18 122.2, -0.63 112.43, 0 90.83 M30.28 121.11 C11.65 121.33, -2.27 108.72, 0 90.83 M0 90.83 C-1.53 68.49, 1.9 47.35, 0 30.28 M0 90.83 C-0.23 73.27, 0.55 56.59, 0 30.28 M0 30.28 C0.85 8.68, 10.74 0.82, 30.28 0 M0 30.28 C0.59 9.09, 11.04 -1.51, 30.28 0" stroke="#1e1e1e" stroke-width="4" fill="none"></path></g><g transform="translate(48.87070804172072 267.1666666666697) rotate(0 35.01818084716797 12)"><text x="35.01818084716797" y="19.3125" font-family="Cascadia, Segoe UI Emoji" font-size="20px" fill="#1e1e1e" text-anchor="middle" style="white-space: pre;" direction="ltr" dominant-baseline="alphabetic">Plugin</text></g><g stroke-linecap="round" transform="translate(10 394.1666666666697) rotate(0 73.88888888888869 60.55555555555475)"><path d="M30.28 0 C58.46 -1, 87.48 0.02, 117.5 0 M30.28 0 C49.2 -0.9, 70.67 -0.24, 117.5 0 M117.5 0 C137.77 0.88, 146.51 8.31, 147.78 30.28 M117.5 0 C139.26 -0.8, 146.28 10.08, 147.78 30.28 M147.78 30.28 C147.79 48.61, 147.23 66.33, 147.78 90.83 M147.78 30.28 C149.1 49.58, 148.95 69.58, 147.78 90.83 M147.78 90.83 C147.79 112.45, 139.6 119.94, 117.5 121.11 M147.78 90.83 C149.31 111.91, 135.59 123.32, 117.5 121.11 M117.5 121.11 C93.49 119.91, 69.46 121.49, 30.28 121.11 M117.5 121.11 C91.93 120.49, 65.14 122.01, 30.28 121.11 M30.28 121.11 C9.46 122.52, 1.36 111.21, 0 90.83 M30.28 121.11 C7.82 118.82, 1.56 109.27, 0 90.83 M0 90.83 C2.04 71.71, 0.36 51.73, 0 30.28 M0 90.83 C0.84 67.98, 0.33 43.2, 0 30.28 M0 30.28 C0.65 10.91, 10.61 -0.87, 30.28 0 M0 30.28 C0.95 8.58, 8.3 0.35, 30.28 0" stroke="#1e1e1e" stroke-width="4" fill="none"></path></g><g transform="translate(48.87070804172072 442.72222222222445) rotate(0 35.01818084716797 12)"><text x="35.01818084716797" y="19.3125" font-family="Cascadia, Segoe UI Emoji" font-size="20px" fill="#1e1e1e" text-anchor="middle" style="white-space: pre;" direction="ltr" dominant-baseline="alphabetic">Plugin</text></g><g stroke-linecap="round"><g transform="translate(566.1111111111106 143.8888888888887) rotate(0 45.55555555555543 -16.111111111111313)"><path d="M0 0 C15.19 -5.37, 75.93 -26.85, 91.11 -32.22 M0 0 C15.19 -5.37, 75.93 -26.85, 91.11 -32.22" stroke="#1e1e1e" stroke-width="4" fill="none"></path></g><g transform="translate(566.1111111111106 143.8888888888887) rotate(0 45.55555555555543 -16.111111111111313)"><path d="M71.81 -16.33 C76.85 -20.47, 81.88 -24.62, 91.11 -32.22 M71.81 -16.33 C77.35 -20.88, 82.88 -25.44, 91.11 -32.22" stroke="#1e1e1e" stroke-width="4" fill="none"></path></g><g transform="translate(566.1111111111106 143.8888888888887) rotate(0 45.55555555555543 -16.111111111111313)"><path d="M66.11 -32.45 C72.63 -32.39, 79.15 -32.33, 91.11 -32.22 M66.11 -32.45 C73.28 -32.39, 80.44 -32.32, 91.11 -32.22" stroke="#1e1e1e" stroke-width="4" fill="none"></path></g></g><mask></mask><g stroke-linecap="round"><g transform="translate(560.555555555555 264.9999999999982) rotate(0 42.22222222222217 -1.1111111111104037)"><path d="M0 0 C14.07 -0.37, 70.37 -1.85, 84.44 -2.22 M0 0 C14.07 -0.37, 70.37 -1.85, 84.44 -2.22" stroke="#1e1e1e" stroke-width="4" fill="none"></path></g><g transform="translate(560.555555555555 264.9999999999982) rotate(0 42.22222222222217 -1.1111111111104037)"><path d="M61.19 6.94 C68.27 4.15, 75.35 1.36, 84.44 -2.22 M61.19 6.94 C69.94 3.5, 78.69 0.05, 84.44 -2.22" stroke="#1e1e1e" stroke-width="4" fill="none"></path></g><g transform="translate(560.555555555555 264.9999999999982) rotate(0 42.22222222222217 -1.1111111111104037)"><path d="M60.74 -10.15 C67.95 -7.74, 75.17 -5.32, 84.44 -2.22 M60.74 -10.15 C69.65 -7.17, 78.57 -4.19, 84.44 -2.22" stroke="#1e1e1e" stroke-width="4" fill="none"></path></g></g><mask></mask><g stroke-linecap="round"><g transform="translate(567.2222222222215 381.66666666666606) rotate(0 42.2222222222224 25.555555555555657)"><path d="M0 0 C14.07 8.52, 70.37 42.59, 84.44 51.11 M0 0 C14.07 8.52, 70.37 42.59, 84.44 51.11" stroke="#1e1e1e" stroke-width="4" fill="none"></path></g><g transform="translate(567.2222222222215 381.66666666666606) rotate(0 42.2222222222224 25.555555555555657)"><path d="M59.92 46.26 C67.01 47.66, 74.11 49.07, 84.44 51.11 M59.92 46.26 C67.26 47.71, 74.6 49.16, 84.44 51.11" stroke="#1e1e1e" stroke-width="4" fill="none"></path></g><g transform="translate(567.2222222222215 381.66666666666606) rotate(0 42.2222222222224 25.555555555555657)"><path d="M68.77 31.63 C73.31 37.27, 77.84 42.9, 84.44 51.11 M68.77 31.63 C73.46 37.46, 78.15 43.29, 84.44 51.11" stroke="#1e1e1e" stroke-width="4" fill="none"></path></g></g><mask></mask><g stroke-linecap="round"><g transform="translate(233.88888888888846 416.1111111111095) rotate(0 -33.888888888888914 20.555555555555657)"><path d="M0 0 C-11.3 6.85, -56.48 34.26, -67.78 41.11 M0 0 C-11.3 6.85, -56.48 34.26, -67.78 41.11" stroke="#1e1e1e" stroke-width="4" fill="none"></path></g><g transform="translate(233.88888888888846 416.1111111111095) rotate(0 -33.888888888888914 20.555555555555657)"><path d="M-52.13 21.62 C-57.93 28.84, -63.73 36.06, -67.78 41.11 M-52.13 21.62 C-55.91 26.33, -59.69 31.04, -67.78 41.11" stroke="#1e1e1e" stroke-width="4" fill="none"></path></g><g transform="translate(233.88888888888846 416.1111111111095) rotate(0 -33.888888888888914 20.555555555555657)"><path d="M-43.26 36.24 C-52.34 38.04, -61.43 39.85, -67.78 41.11 M-43.26 36.24 C-49.18 37.42, -55.11 38.59, -67.78 41.11" stroke="#1e1e1e" stroke-width="4" fill="none"></path></g></g><mask></mask><g stroke-linecap="round" transform="translate(32.22222222222217 26.66666666666606) rotate(0 73.88888888888869 60.55555555555475)"><path d="M30.28 0 C56.86 0.87, 85.96 -0.19, 117.5 0 M30.28 0 C61.5 -0.59, 92.07 -1.21, 117.5 0 M117.5 0 C136.79 -0.75, 146.75 8.59, 147.78 30.28 M117.5 0 C138.14 2.06, 148.72 11.94, 147.78 30.28 M147.78 30.28 C148.26 50.26, 149.79 67.36, 147.78 90.83 M147.78 30.28 C148.67 54.2, 147.73 77.97, 147.78 90.83 M147.78 90.83 C149.68 111.14, 136.92 119.44, 117.5 121.11 M147.78 90.83 C148.21 112.01, 136.67 122.58, 117.5 121.11 M117.5 121.11 C88.54 119.25, 64.88 119.66, 30.28 121.11 M117.5 121.11 C86.06 120.82, 54.84 122.27, 30.28 121.11 M30.28 121.11 C11.28 121.11, 1.22 112.43, 0 90.83 M30.28 121.11 C10.28 123.07, 0.44 109.13, 0 90.83 M0 90.83 C0.31 65.74, 1.2 45.68, 0 30.28 M0 90.83 C0.22 67.48, 1.01 43.64, 0 30.28 M0 30.28 C1.19 9.44, 9.11 -1.95, 30.28 0 M0 30.28 C-0.23 11.71, 10.84 -0.42, 30.28 0" stroke="#1e1e1e" stroke-width="4" fill="none"></path></g><g stroke-linecap="round" transform="translate(47.777777777777374 10) rotate(0 73.88888888888869 60.55555555555475)"><path d="M30.28 0 C55.65 1.83, 76.49 -1.21, 117.5 0 M30.28 0 C54.13 -0.18, 76.74 1.62, 117.5 0 M117.5 0 C139.32 1.5, 149.23 9.75, 147.78 30.28 M117.5 0 C139.21 0.81, 148.89 10.04, 147.78 30.28 M147.78 30.28 C146.91 41.81, 148.68 57.11, 147.78 90.83 M147.78 30.28 C148.26 51.25, 148.72 72.99, 147.78 90.83 M147.78 90.83 C147.54 112.8, 137.24 122.12, 117.5 121.11 M147.78 90.83 C148.62 111.79, 138.41 121.07, 117.5 121.11 M117.5 121.11 C94.16 122.1, 71.05 122.15, 30.28 121.11 M117.5 121.11 C83.41 120.87, 48.33 120.98, 30.28 121.11 M30.28 121.11 C12.08 121.94, 1.68 109.81, 0 90.83 M30.28 121.11 C8.62 120.28, 0.26 111.21, 0 90.83 M0 90.83 C1.78 78.01, -0.31 64.2, 0 30.28 M0 90.83 C1.19 70.1, -0.11 48.81, 0 30.28 M0 30.28 C-1.54 8.67, 9.19 -0.47, 30.28 0 M0 30.28 C-0.33 8.47, 9.43 1.25, 30.28 0" stroke="#1e1e1e" stroke-width="4" fill="none"></path></g><g stroke-linecap="round"><g transform="translate(239.4444444444439 269.44444444444343) rotate(0 -36.111111111111086 -0.5555555555556566)"><path d="M0 0 C-12.04 -0.19, -60.19 -0.93, -72.22 -1.11 M0 0 C-12.04 -0.19, -60.19 -0.93, -72.22 -1.11" stroke="#1e1e1e" stroke-width="4" fill="none"></path></g><g transform="translate(239.4444444444439 269.44444444444343) rotate(0 -36.111111111111086 -0.5555555555556566)"><path d="M-48.6 -9.3 C-56.44 -6.58, -64.29 -3.86, -72.22 -1.11 M-48.6 -9.3 C-57.85 -6.09, -67.1 -2.89, -72.22 -1.11" stroke="#1e1e1e" stroke-width="4" fill="none"></path></g><g transform="translate(239.4444444444439 269.44444444444343) rotate(0 -36.111111111111086 -0.5555555555556566)"><path d="M-48.86 7.8 C-56.62 4.84, -64.38 1.88, -72.22 -1.11 M-48.86 7.8 C-58.01 4.31, -67.16 0.82, -72.22 -1.11" stroke="#1e1e1e" stroke-width="4" fill="none"></path></g></g><mask></mask><g stroke-linecap="round"><g transform="translate(231.6666666666663 134.99999999999818) rotate(0 -42.222222222222285 -11.66666666666606)"><path d="M0 0 C-9.81 -3.33, -44.81 -16.11, -58.89 -20 C-72.96 -23.89, -80.19 -22.78, -84.44 -23.33" stroke="#1e1e1e" stroke-width="4.5" fill="none" stroke-dasharray="8 12"></path></g><g transform="translate(231.6666666666663 134.99999999999818) rotate(0 -42.222222222222285 -11.66666666666606)"><path d="M-72.14 -27.15 C-76.95 -25.66, -81.77 -24.16, -84.44 -23.33" stroke="#1e1e1e" stroke-width="4.5" fill="none"></path></g><g transform="translate(231.6666666666663 134.99999999999818) rotate(0 -42.222222222222285 -11.66666666666606)"><path d="M-72.56 -18.34 C-77.21 -20.3, -81.86 -22.25, -84.44 -23.33" stroke="#1e1e1e" stroke-width="4.5" fill="none"></path></g></g><mask></mask></svg>
